<?xml version="1.0" encoding="UTF-8"?>
<svg version="1.1" xmlns="http://www.w3.org/2000/svg" width="1868" height="914">
<path d="M0 0 C616.44 0 1232.88 0 1868 0 C1868 301.62 1868 603.24 1868 914 C1251.56 914 635.12 914 0 914 C0 612.38 0 310.76 0 0 Z " fill="#6D64C6" transform="translate(0,0)"/>
<path d="M0 0 C0.89377999 -0.00382555 1.78755998 -0.00765109 2.70842421 -0.01159257 C5.69765424 -0.02189567 8.68669123 -0.0179355 11.67593384 -0.01396179 C13.82144854 -0.01830976 15.96696169 -0.02349319 18.11247253 -0.02944946 C23.93686629 -0.04284182 29.76119517 -0.04341783 35.58560133 -0.04088616 C40.44894102 -0.03981657 45.31226758 -0.04469954 50.17560446 -0.04949158 C61.64984534 -0.06058769 73.12405347 -0.06102365 84.59829712 -0.05497742 C96.43279721 -0.0489372 108.26717842 -0.06124968 120.10165823 -0.08254749 C130.26488515 -0.10016467 140.42807424 -0.10616463 150.59131587 -0.10290974 C156.66019779 -0.10109687 162.72899492 -0.10373355 168.79786301 -0.11762428 C174.50570528 -0.13019975 180.21336228 -0.12826102 185.92120171 -0.11521339 C188.0141716 -0.11284744 190.10715452 -0.11558298 192.20010948 -0.12383652 C195.06111115 -0.1343039 197.92149117 -0.12620316 200.7824707 -0.11352539 C201.60719293 -0.12089968 202.43191516 -0.12827396 203.28162897 -0.13587171 C212.42131801 -0.05089395 219.98840614 3.48062806 227.01821899 9.26069641 C234.38573699 17.1407374 236.54212949 24.13690327 236.31509399 34.80757141 C235.78972499 40.91844249 233.78034221 45.85654228 231.01821899 51.26069641 C230.35821899 51.26069641 229.69821899 51.26069641 229.01821899 51.26069641 C228.81196899 51.81757141 228.60571899 52.37444641 228.39321899 52.94819641 C224.79109901 59.00630729 218.48878739 62.06316005 212.01821899 64.26069641 C208.85485659 64.77557645 205.77548257 64.80710531 202.57524109 64.77536011 C201.2144669 64.7857784 201.2144669 64.7857784 199.82620233 64.79640716 C196.80930444 64.81459304 193.79320042 64.8044363 190.77627563 64.79414368 C188.60400304 64.80120638 186.43173537 64.80995288 184.25947571 64.82025146 C178.37514642 64.84271532 172.49108649 64.83981266 166.6067307 64.83092999 C161.68873859 64.82581282 156.77079677 64.8331186 151.85280985 64.84040207 C140.24847751 64.8573915 128.64427671 64.85384471 117.03994751 64.83711243 C105.07979984 64.82018979 93.12001712 64.83603006 81.15990931 64.86833531 C70.87937444 64.89504893 60.59895305 64.90230244 50.31838697 64.89382023 C44.1834846 64.88889653 38.0488018 64.89107688 31.91392708 64.91160774 C26.14435928 64.92999258 20.37531564 64.92397127 14.60577583 64.89940834 C12.49268351 64.89440953 10.37955106 64.89786594 8.26649094 64.91055679 C-12.23959042 65.02393891 -12.23959042 65.02393891 -19.98178101 59.26069641 C-20.99487036 58.53005147 -20.99487036 58.53005147 -22.02842617 57.78464603 C-28.2501861 53.07583954 -31.9039829 46.70232574 -33.98178101 39.26069641 C-34.83353984 30.8124373 -34.51015244 23.55405476 -29.98178101 16.26069641 C-29.55767944 15.5633136 -29.13357788 14.86593079 -28.69662476 14.14741516 C-21.75645662 3.88215254 -12.03255379 -0.05484299 0 0 Z " fill="#F174B3" transform="translate(856.9817810058594,585.7393035888672)"/>
<path d="M0 0 C0.73207169 -0.0049649 1.46414337 -0.00992981 2.21839905 -0.01504517 C4.64064474 -0.02965151 7.06282492 -0.03646654 9.48510742 -0.04199219 C11.17038474 -0.04774529 12.85566204 -0.053503 14.54093933 -0.05926514 C18.07579859 -0.06977104 21.61063514 -0.07561627 25.14550781 -0.07910156 C29.66820918 -0.08458276 34.19060896 -0.1086044 38.71321583 -0.13707352 C42.19541797 -0.1557266 45.67754788 -0.16090694 49.15979576 -0.16243744 C50.82671442 -0.16545891 52.49363197 -0.17347038 54.16050148 -0.18662262 C56.49655506 -0.2037379 58.83187736 -0.20178972 61.16796875 -0.1953125 C62.19452576 -0.20913467 62.19452576 -0.20913467 63.24182129 -0.22323608 C68.80071979 -0.17511839 72.78831293 1.30949573 76.86010742 5.09863281 C77.43116211 5.77925781 78.0022168 6.45988281 78.59057617 7.16113281 C79.17452148 7.84175781 79.7584668 8.52238281 80.36010742 9.22363281 C82.72818187 12.45934886 82.90757119 15.21696988 82.93197632 19.09965515 C82.94057678 20.11874466 82.94917725 21.13783417 82.95803833 22.18780518 C82.96229828 23.30524109 82.96655823 24.422677 82.97094727 25.57397461 C82.9832135 27.34025963 82.9832135 27.34025963 82.99572754 29.14222717 C83.02058769 33.04825487 83.03725404 36.95427496 83.05151367 40.86035156 C83.05687514 42.20705484 83.06225265 43.55375805 83.06764603 44.9004612 C83.08927185 50.50479931 83.10800628 56.10913458 83.11926842 61.71350384 C83.13549305 69.73354777 83.16863723 77.75310613 83.22566926 85.77296704 C83.26443856 91.41811643 83.28390944 97.06313635 83.28918898 102.70841533 C83.29283361 106.07685972 83.30475801 109.44478585 83.33729172 112.81308556 C83.36890916 116.57620467 83.36898404 120.33810129 83.36157227 124.10131836 C83.3779776 125.20863312 83.39438293 126.31594788 83.4112854 127.45681763 C83.35613284 134.30698657 82.26594776 138.87816511 77.77807617 144.16113281 C72.45518696 149.09454233 68.7255084 150.40895397 61.47436523 150.4675293 C60.74536011 150.47585281 60.01635498 150.48417633 59.26525879 150.49275208 C56.85801833 150.51682258 54.45104918 150.52562155 52.04370117 150.53222656 C50.36464356 150.54119692 48.68558676 150.55031884 47.00653076 150.55958557 C43.48602356 150.57607135 39.9656114 150.58377461 36.44506836 150.58666992 C31.94812265 150.59204565 27.45207867 150.62969316 22.95538712 150.67541409 C19.48594967 150.70525751 16.01672715 150.71239509 12.54717255 150.71339607 C10.89025504 150.71758589 9.23333616 150.7299703 7.57654572 150.75091362 C-9.21585453 150.94624371 -9.21585453 150.94624371 -15.22192383 145.16113281 C-19.31526196 140.74463641 -21.46862743 137.1429952 -21.48262024 131.08889771 C-21.48970505 130.06554321 -21.49678986 129.04218872 -21.50408936 127.98782349 C-21.50161194 126.87084076 -21.49913452 125.75385803 -21.49658203 124.60302734 C-21.50169296 123.42214539 -21.50680389 122.24126343 -21.5120697 121.02459717 C-21.52358764 117.78894925 -21.52603923 114.55346021 -21.5235064 111.31779718 C-21.52243591 108.61411535 -21.52732218 105.91045709 -21.53211182 103.20678031 C-21.54320456 96.82614938 -21.54364604 90.44557732 -21.53759766 84.06494141 C-21.53156007 77.48929479 -21.54386378 70.91386227 -21.56516773 64.33825219 C-21.58280111 58.68715527 -21.58878227 53.03612638 -21.58552998 47.38500297 C-21.5837194 44.01232767 -21.58633042 40.63980502 -21.60024452 37.26715469 C-21.61257348 33.50394431 -21.6058377 29.74122973 -21.59423828 25.97802734 C-21.60188202 24.86509308 -21.60952576 23.75215881 -21.61740112 22.60549927 C-21.57172897 15.9054306 -21.02928049 11.17790922 -16.28442383 6.07910156 C-15.60379883 5.50804687 -14.92317383 4.93699219 -14.22192383 4.34863281 C-13.54129883 3.7646875 -12.86067383 3.18074219 -12.15942383 2.57910156 C-8.34068052 -0.21566421 -4.52414486 0.00732479 0 0 Z " fill="#837BCD" transform="translate(927.221923828125,398.8388671875)"/>
<path d="M0 0 C616.44 0 1232.88 0 1868 0 C1868 0.99 1868 1.98 1868 3 C1251.56 3 635.12 3 0 3 C0 2.01 0 1.02 0 0 Z " fill="#4F393C" transform="translate(0,0)"/>
<path d="M0 0 C1.72795352 0.06802967 3.45835365 0.08495645 5.1875 0.0625 C6.08855469 0.05347656 6.98960937 0.04445313 7.91796875 0.03515625 C8.94857422 0.01775391 8.94857422 0.01775391 10 0 C10.174148 4.8378696 10.30057219 9.67388346 10.38452148 14.51416016 C10.41954214 16.15738738 10.46717701 17.80039934 10.52807617 19.44287109 C11.08446517 34.84409253 11.08446517 34.84409253 6.78515625 40 C1.70165321 44.51155291 -2.37459157 45.27866415 -9.125 45.25 C-10.34445312 45.25515625 -11.56390625 45.2603125 -12.8203125 45.265625 C-16 45 -16 45 -19 43 C-19.40843923 40.28796348 -19.13336867 37.7562858 -19 35 C-18.154375 35.33 -17.30875 35.66 -16.4375 36 C-11.97282686 37.298814 -8.1451314 37.56450826 -3.625 36.375 C-1.16685039 34.29502726 -1.26930758 32.0970372 -1 29 C-1.99 29.66 -2.98 30.32 -4 31 C-8.20925614 31.60695266 -11.93951362 31.43802698 -15.875 29.8125 C-19.44579851 26.76681892 -20.86272142 24.12667375 -21.43359375 19.44140625 C-21.43488281 18.16136719 -21.43617188 16.88132812 -21.4375 15.5625 C-21.45683594 14.28503906 -21.47617187 13.00757813 -21.49609375 11.69140625 C-20.80813279 6.57232663 -18.7001659 3.45728506 -14.8125 0.125 C-9.93798475 -1.8248061 -4.94742814 -1.64914271 0 0 Z " fill="#F9F9FC" transform="translate(687,304)"/>
<path d="M0 0 C0.73207169 -0.0049649 1.46414337 -0.00992981 2.21839905 -0.01504517 C4.64064474 -0.02965151 7.06282492 -0.03646654 9.48510742 -0.04199219 C11.17038474 -0.04774529 12.85566204 -0.053503 14.54093933 -0.05926514 C18.07579859 -0.06977104 21.61063514 -0.07561627 25.14550781 -0.07910156 C29.66820918 -0.08458276 34.19060896 -0.1086044 38.71321583 -0.13707352 C42.19541797 -0.1557266 45.67754788 -0.16090694 49.15979576 -0.16243744 C50.82671442 -0.16545891 52.49363197 -0.17347038 54.16050148 -0.18662262 C56.49655506 -0.2037379 58.83187736 -0.20178972 61.16796875 -0.1953125 C62.19452576 -0.20913467 62.19452576 -0.20913467 63.24182129 -0.22323608 C68.80071979 -0.17511839 72.78831293 1.30949573 76.86010742 5.09863281 C77.43116211 5.77925781 78.0022168 6.45988281 78.59057617 7.16113281 C79.17452148 7.84175781 79.7584668 8.52238281 80.36010742 9.22363281 C82.72818187 12.45934886 82.90757119 15.21696988 82.93197632 19.09965515 C82.94057678 20.11874466 82.94917725 21.13783417 82.95803833 22.18780518 C82.96229828 23.30524109 82.96655823 24.422677 82.97094727 25.57397461 C82.9832135 27.34025963 82.9832135 27.34025963 82.99572754 29.14222717 C83.02058769 33.04825487 83.03725404 36.95427496 83.05151367 40.86035156 C83.05687514 42.20705484 83.06225265 43.55375805 83.06764603 44.9004612 C83.08927185 50.50479931 83.10800628 56.10913458 83.11926842 61.71350384 C83.13549305 69.73354777 83.16863723 77.75310613 83.22566926 85.77296704 C83.26443856 91.41811643 83.28390944 97.06313635 83.28918898 102.70841533 C83.29283361 106.07685972 83.30475801 109.44478585 83.33729172 112.81308556 C83.36890916 116.57620467 83.36898404 120.33810129 83.36157227 124.10131836 C83.3779776 125.20863312 83.39438293 126.31594788 83.4112854 127.45681763 C83.35613284 134.30698657 82.26594776 138.87816511 77.77807617 144.16113281 C72.45518696 149.09454233 68.7255084 150.40895397 61.47436523 150.4675293 C60.74536011 150.47585281 60.01635498 150.48417633 59.26525879 150.49275208 C56.85801833 150.51682258 54.45104918 150.52562155 52.04370117 150.53222656 C50.36464356 150.54119692 48.68558676 150.55031884 47.00653076 150.55958557 C43.48602356 150.57607135 39.9656114 150.58377461 36.44506836 150.58666992 C31.94812265 150.59204565 27.45207867 150.62969316 22.95538712 150.67541409 C19.48594967 150.70525751 16.01672715 150.71239509 12.54717255 150.71339607 C10.89025504 150.71758589 9.23333616 150.7299703 7.57654572 150.75091362 C-9.21585453 150.94624371 -9.21585453 150.94624371 -15.22192383 145.16113281 C-19.31526196 140.74463641 -21.46862743 137.1429952 -21.48262024 131.08889771 C-21.48970505 130.06554321 -21.49678986 129.04218872 -21.50408936 127.98782349 C-21.50161194 126.87084076 -21.49913452 125.75385803 -21.49658203 124.60302734 C-21.50169296 123.42214539 -21.50680389 122.24126343 -21.5120697 121.02459717 C-21.52358764 117.78894925 -21.52603923 114.55346021 -21.5235064 111.31779718 C-21.52243591 108.61411535 -21.52732218 105.91045709 -21.53211182 103.20678031 C-21.54320456 96.82614938 -21.54364604 90.44557732 -21.53759766 84.06494141 C-21.53156007 77.48929479 -21.54386378 70.91386227 -21.56516773 64.33825219 C-21.58280111 58.68715527 -21.58878227 53.03612638 -21.58552998 47.38500297 C-21.5837194 44.01232767 -21.58633042 40.63980502 -21.60024452 37.26715469 C-21.61257348 33.50394431 -21.6058377 29.74122973 -21.59423828 25.97802734 C-21.60188202 24.86509308 -21.60952576 23.75215881 -21.61740112 22.60549927 C-21.57172897 15.9054306 -21.02928049 11.17790922 -16.28442383 6.07910156 C-15.60379883 5.50804687 -14.92317383 4.93699219 -14.22192383 4.34863281 C-13.54129883 3.7646875 -12.86067383 3.18074219 -12.15942383 2.57910156 C-8.34068052 -0.21566421 -4.52414486 0.00732479 0 0 Z M-16.03442383 9.09863281 C-19.0941501 13.3822496 -19.34354823 17.06897998 -19.36909485 22.23300171 C-19.37625015 23.23104324 -19.38340546 24.22908478 -19.39077759 25.25737 C-19.39346649 26.34113419 -19.3961554 27.42489838 -19.39892578 28.54150391 C-19.40549698 29.69166489 -19.41206818 30.84182587 -19.4188385 32.02684021 C-19.43853482 35.82941759 -19.45022417 39.63195561 -19.46020508 43.43457031 C-19.46428061 44.73412281 -19.46835613 46.03367531 -19.47255516 47.37260818 C-19.49125054 53.53903116 -19.50582215 59.70543447 -19.51416713 65.87187994 C-19.52394271 72.97672383 -19.55027978 80.08125646 -19.59066802 87.18599069 C-19.62450766 93.35135007 -19.63631519 99.51657883 -19.64037132 105.68202591 C-19.64524404 108.29988343 -19.65687738 110.91773745 -19.67540932 113.53553391 C-19.69973094 117.19793332 -19.69884823 120.85951737 -19.69189453 124.52197266 C-19.70470459 125.60168839 -19.71751465 126.68140411 -19.73071289 127.7938385 C-19.68023834 135.08958905 -18.58012613 139.34029561 -13.6781311 144.91760254 C-6.72386582 149.75304152 1.65408075 148.84374656 9.75463867 148.75488281 C11.41034864 148.75316945 13.06606132 148.75323968 14.72177124 148.75500488 C18.17993367 148.75335708 21.63744356 148.73475587 25.09545898 148.703125 C29.51835066 148.66338653 33.9403917 148.65909032 38.36342812 148.66658783 C41.77792087 148.66966281 45.19222392 148.65751931 48.60667038 148.64045715 C50.23727605 148.63344931 51.8679032 148.63029992 53.49852371 148.63114929 C55.77911235 148.6293433 58.05869726 148.60789679 60.33911133 148.58105469 C62.28148178 148.5684259 62.28148178 148.5684259 64.26309204 148.55554199 C70.66856753 147.83679669 74.59603947 144.92400795 78.77807617 140.16113281 C80.67674699 137.04743486 81.03181923 134.71472303 81.04550171 131.08889771 C81.05403168 130.06554321 81.06256165 129.04218872 81.0713501 127.98782349 C81.07044373 126.87084076 81.06953735 125.75385803 81.06860352 124.60302734 C81.07532074 123.42214539 81.08203796 122.24126343 81.08895874 121.02459717 C81.10470076 117.78895705 81.11131372 114.55347101 81.11259031 111.31779718 C81.11401302 109.29487034 81.11828488 107.27197031 81.12358475 105.24905014 C81.14208215 98.18766322 81.15025575 91.12635175 81.14868164 84.06494141 C81.14748038 77.48924121 81.16858008 70.91386932 81.20016897 64.33825219 C81.22634624 58.68715345 81.23704833 53.03616185 81.23577082 47.38500297 C81.2352616 44.01226942 81.24092231 40.63982769 81.26212692 37.26715469 C81.28170545 33.50383452 81.27597983 29.74136093 81.26391602 25.97802734 C81.27515503 24.86509308 81.28639404 23.75215881 81.29797363 22.60549927 C81.23877577 15.34427393 80.31774413 11.72620509 75.14526367 6.51660156 C70.30974277 2.73173049 67.6855654 2.0074381 61.66967773 1.98413086 C60.93775208 1.97755966 60.20582642 1.97098846 59.45172119 1.96421814 C57.02404684 1.94447217 54.59643444 1.93281867 52.16870117 1.92285156 C50.92497364 1.91673827 50.92497364 1.91673827 49.6561203 1.91050148 C45.26611072 1.88963352 40.87613245 1.87533592 36.48608398 1.8659668 C31.95541683 1.85491095 27.42524199 1.82052297 22.89474869 1.7807951 C19.408255 1.75462328 15.92187839 1.74627439 12.4352951 1.74268532 C10.76556835 1.73781947 9.09584683 1.72620545 7.42621613 1.70764732 C5.0851011 1.68324671 2.74525652 1.68422216 0.40405273 1.69116211 C-0.28188965 1.67835205 -0.96783203 1.66554199 -1.67456055 1.65234375 C-7.80412942 1.71834934 -12.17747919 4.44192039 -16.03442383 9.09863281 Z " fill="#A09AD9" transform="translate(927.221923828125,398.8388671875)"/>
<path d="M0 0 C6.04906312 4.32075937 6.04906312 4.32075937 7.625 7.875 C8.4882412 13.77506597 8.49179105 18.97472731 6 24.4375 C1.22271273 29.34050536 -1.90742 31.14450922 -8.8125 31.4375 C-13.84737927 31.27675129 -17.09725926 30.64828584 -21.0078125 27.45703125 C-25.41360707 22.35889753 -25.91241218 18.33035123 -25.71875 11.75390625 C-25.24415713 7.77919096 -24.16664263 5.73822321 -21.375 2.875 C-14.86224688 -2.1757065 -7.77758015 -2.59252672 0 0 Z " fill="#F8F8FC" transform="translate(987.375,304.125)"/>
<path d="M0 0 C6.04906312 4.32075937 6.04906312 4.32075937 7.625 7.875 C8.43435049 13.40673466 8.97342275 19.58696313 5.875 24.5 C2.29535252 28.27851679 -0.49516487 30.59527079 -5.828125 31.11328125 C-12.3038234 31.28512241 -16.24163013 30.96074337 -21.375 26.875 C-25.05356512 22.15889088 -26.08839683 18.35089043 -25.82421875 12.375 C-24.84178409 6.90753752 -22.10908484 3.1962075 -17.75 -0.125 C-11.75704046 -1.90069171 -5.94331308 -1.98110436 0 0 Z " fill="#F8F7FB" transform="translate(844.375,304.125)"/>
<path d="M0 0 C3.3 0 6.6 0 10 0 C10.33 5.28 10.66 10.56 11 16 C12.32 15.01 13.64 14.02 15 13 C18.07750466 12.33935499 20.91298307 12.39470256 24 13 C26.75569447 15.18159145 28.43588747 16.87177494 30 20 C30.08471364 21.81341842 30.10721083 23.62994161 30.09765625 25.4453125 C30.09443359 26.52167969 30.09121094 27.59804688 30.08789062 28.70703125 C30.07951172 29.83496094 30.07113281 30.96289062 30.0625 32.125 C30.05798828 33.26066406 30.05347656 34.39632812 30.04882812 35.56640625 C30.03701615 38.37765638 30.02054507 41.1888023 30 44 C26.7 44 23.4 44 20 44 C19.92652344 41.76089844 19.92652344 41.76089844 19.8515625 39.4765625 C19.77654173 37.52602237 19.7009936 35.57550247 19.625 33.625 C19.57859375 32.14773438 19.57859375 32.14773438 19.53125 30.640625 C19.49257812 29.69960938 19.45390625 28.75859375 19.4140625 27.7890625 C19.36693115 26.48509521 19.36693115 26.48509521 19.31884766 25.15478516 C19.18770567 22.79038206 19.18770567 22.79038206 17 21 C13.69316534 21.28983269 13.69316534 21.28983269 11 23 C10.84313751 24.55948542 10.74923361 26.12542668 10.68359375 27.69140625 C10.64169922 28.63564453 10.59980469 29.57988281 10.55664062 30.55273438 C10.51732422 31.54595703 10.47800781 32.53917969 10.4375 33.5625 C10.39431641 34.55958984 10.35113281 35.55667969 10.30664062 36.58398438 C10.20019833 39.05581111 10.09956241 41.5278866 10 44 C6.7 44 3.4 44 0 44 C0 29.48 0 14.96 0 0 Z " fill="#F8F7FB" transform="translate(1121,290)"/>
<path d="M0 0 C3.3 0 6.6 0 10 0 C10.33 7.92 10.66 15.84 11 24 C11.9075 22.35 12.815 20.7 13.75 19 C16.06536406 15.61049798 17.06629663 14.1976707 21.13671875 13.3359375 C24.14609777 13.37155145 27.02406667 13.5602069 30 14 C24 22 24 22 22.23828125 23.953125 C20.7836108 25.94297286 20.7836108 25.94297286 21.05859375 28.39453125 C22.23544904 31.65163698 23.94593038 33.9512645 26.0625 36.6875 C30 41.80140598 30 41.80140598 30 44 C26.16824682 44.62361263 22.80615108 44.85829984 19 44 C15.39321011 40.5494835 13.21331193 36.42662386 11 32 C10.67 35.96 10.34 39.92 10 44 C6.7 44 3.4 44 0 44 C0 29.48 0 14.96 0 0 Z " fill="#F9F9FC" transform="translate(1003,290)"/>
<path d="M0 0 C3.63 0 7.26 0 11 0 C16.36904762 13.91071429 16.36904762 13.91071429 16 20 C16.66 20 17.32 20 18 20 C18.0825 18.9275 18.165 17.855 18.25 16.75 C18.95274134 10.9182957 21.02768958 5.50412211 23 0 C26.3 0 29.6 0 33 0 C30.86378854 6.52106657 28.5883529 12.98224514 26.25 19.43359375 C25.09586945 22.72647249 24.0753653 26.03676477 23.0625 29.375 C21.13775629 35.20377851 18.4435695 40.82025601 13.10546875 44.19921875 C10.70320282 45.11288204 8.87528905 45.23409616 6.3125 45.1875 C5.52488281 45.18105469 4.73726562 45.17460937 3.92578125 45.16796875 C2 45 2 45 1 44 C0.95907063 41.66702567 0.95758277 39.33294775 1 37 C2.3921875 37.0928125 2.3921875 37.0928125 3.8125 37.1875 C6.91538318 37.27043508 6.91538318 37.27043508 8.8125 35.8125 C10.3503359 33.46527679 10.70371771 31.80085521 11 29 C10.21943255 25.97429218 10.21943255 25.97429218 8.875 22.875 C8.41351562 21.73804688 7.95203125 20.60109375 7.4765625 19.4296875 C5.73818946 15.39187921 3.92344188 11.39803124 2.015625 7.4375 C1 5 1 5 0 0 Z " fill="#F6F6FB" transform="translate(783,304)"/>
<path d="M0 0 C3.53572368 1.67797056 5.3718141 3.67802319 6.84375 7.1875 C8.21799767 11.17857856 7.90625 13.77473062 7.90625 18.375 C1.30625 18.375 -5.29375 18.375 -12.09375 18.375 C-10.59375 22.375 -10.59375 22.375 -8.09375 23.375 C-3.56261254 23.52356188 0.48507704 23.48029324 4.90625 22.375 C4.90625 24.685 4.90625 26.995 4.90625 29.375 C-0.28872272 32.54266629 -6.22429089 31.9663261 -12.09375 31.375 C-17.51181118 28.85279911 -19.50689232 25.54871535 -22.09375 20.375 C-22.85700018 13.53077297 -22.28487923 8.88964372 -18.09375 3.375 C-12.80739564 -1.53375762 -6.76397679 -2.01909755 0 0 Z " fill="#F7F7FB" transform="translate(1241.09375,303.625)"/>
<path d="M0 0 C3.53572368 1.67797056 5.3718141 3.67802319 6.84375 7.1875 C8.21799767 11.17857856 7.90625 13.77473062 7.90625 18.375 C1.30625 18.375 -5.29375 18.375 -12.09375 18.375 C-10.59375 22.375 -10.59375 22.375 -8.09375 23.375 C-3.56261254 23.52356188 0.48507704 23.48029324 4.90625 22.375 C4.90625 24.685 4.90625 26.995 4.90625 29.375 C-0.28872272 32.54266629 -6.22429089 31.9663261 -12.09375 31.375 C-17.51181118 28.85279911 -19.50689232 25.54871535 -22.09375 20.375 C-22.85700018 13.53077297 -22.28487923 8.88964372 -18.09375 3.375 C-12.80739564 -1.53375762 -6.76397679 -2.01909755 0 0 Z " fill="#F7F7FB" transform="translate(1180.09375,303.625)"/>
<path d="M0 0 C3.53350934 1.85896525 5.4991231 3.52352104 6.87109375 7.234375 C7.12857298 10.92147753 6.95923259 14.53254372 6.87109375 18.234375 C0.60109375 18.234375 -5.66890625 18.234375 -12.12890625 18.234375 C-10.62890625 22.234375 -10.62890625 22.234375 -8.12890625 23.234375 C-3.59776879 23.38293688 0.44992079 23.33966824 4.87109375 22.234375 C4.87109375 24.544375 4.87109375 26.854375 4.87109375 29.234375 C-0.31725643 32.39800316 -6.26620484 31.83960413 -12.12890625 31.234375 C-14.79725435 30.21618954 -15.9771504 29.21625539 -18.12890625 27.234375 C-18.72703125 26.739375 -19.32515625 26.244375 -19.94140625 25.734375 C-23.20506844 21.61185433 -22.67087393 15.18841764 -22.12890625 10.234375 C-20.81612321 6.26601942 -18.56505227 3.63936773 -15.50390625 0.796875 C-10.38733528 -1.57190785 -5.36669342 -1.9300402 0 0 Z " fill="#F8F8FC" transform="translate(727.12890625,303.765625)"/>
<path d="M0 0 C4.40608743 2.16298837 7.1987497 4.39680479 9 9 C9.23342355 12.37686071 9.13573937 15.60651581 9 19 C2.73 19 -3.54 19 -10 19 C-9.01 20.65 -8.02 22.3 -7 24 C-4.86668986 24.63941048 -4.86668986 24.63941048 -2.5625 24.375 C-1.80066406 24.34148437 -1.03882813 24.30796875 -0.25390625 24.2734375 C1.90134811 24.01196817 3.91024563 23.58075178 6 23 C6 25.31 6 27.62 6 30 C0.98526475 32.99208547 -4.34076695 32.59258985 -10 32 C-13.93396138 30.78955034 -16.36062995 28.80436877 -18.9375 25.5625 C-20.73316339 19.54174627 -21.7860315 12.44490218 -18.79296875 6.671875 C-13.53882345 0.34029737 -8.04625328 -1.02961535 0 0 Z " fill="#F9F9FC" transform="translate(1057,303)"/>
<path d="M0 0 C2.97 0 5.94 0 9 0 C9.04898438 1.40894531 9.09796875 2.81789063 9.1484375 4.26953125 C9.22347003 6.11720739 9.29901766 7.96486267 9.375 9.8125 C9.4059375 10.74126953 9.436875 11.67003906 9.46875 12.62695312 C9.50742187 13.51962891 9.54609375 14.41230469 9.5859375 15.33203125 C9.6173584 16.15421143 9.6487793 16.9763916 9.68115234 17.82348633 C9.88373622 20.28952937 9.88373622 20.28952937 12 23 C15.29075996 22.62095792 15.29075996 22.62095792 18 21 C18.15686249 19.44051458 18.25076639 17.87457332 18.31640625 16.30859375 C18.35830078 15.36435547 18.40019531 14.42011719 18.44335938 13.44726562 C18.48267578 12.45404297 18.52199219 11.46082031 18.5625 10.4375 C18.60568359 9.44041016 18.64886719 8.44332031 18.69335938 7.41601562 C18.79980167 4.94418889 18.90043759 2.4721134 19 0 C22.3 0 25.6 0 29 0 C29 9.9 29 19.8 29 30 C24.66666667 30 20.33333333 30 16 30 C15.34 30.33 14.68 30.66 14 31 C6.91041162 31.5811138 6.91041162 31.5811138 3.0625 29.125 C-0.17442471 25.78998666 -0.12062999 23.88473779 -0.09765625 19.3359375 C-0.09443359 18.21445312 -0.09121094 17.09296875 -0.08789062 15.9375 C-0.07951172 14.761875 -0.07113281 13.58625 -0.0625 12.375 C-0.05798828 11.19164062 -0.05347656 10.00828125 -0.04882812 8.7890625 C-0.03701467 5.85932493 -0.02054258 2.92968728 0 0 Z " fill="#FAFAFD" transform="translate(860,304)"/>
<path d="M0 0 C0 2.97 0 5.94 0 9 C2.31 9 4.62 9 7 9 C7 11.31 7 13.62 7 16 C4.69 16 2.38 16 0 16 C0.33 20.95 0.66 25.9 1 31 C4.63619656 32.08084521 4.63619656 32.08084521 7 32 C7 34.31 7 36.62 7 39 C4.67404054 40.16297973 3.21276769 40.16600691 0.625 40.1875 C-0.14585937 40.20167969 -0.91671875 40.21585937 -1.7109375 40.23046875 C-4.31749827 39.96803345 -5.82811477 39.46486727 -8 38 C-9.75142541 35.12969454 -10.24303503 33.0124523 -10.1953125 29.671875 C-10.18564453 28.47304688 -10.18564453 28.47304688 -10.17578125 27.25 C-10.15902344 26.425 -10.14226563 25.6 -10.125 24.75 C-10.11597656 23.90953125 -10.10695313 23.0690625 -10.09765625 22.203125 C-10.07415817 20.13529396 -10.03828908 18.06761005 -10 16 C-11.65 16 -13.3 16 -15 16 C-15 13.69 -15 11.38 -15 9 C-13.35 9 -11.7 9 -10 9 C-10 6.69 -10 4.38 -10 2 C-3.375 0 -3.375 0 0 0 Z " fill="#F8F8FC" transform="translate(754,295)"/>
<path d="M0 0 C1.60875 -0.00386719 1.60875 -0.00386719 3.25 -0.0078125 C6 0.125 6 0.125 8 1.125 C8 3.435 8 5.745 8 8.125 C4.37 8.125 0.74 8.125 -3 8.125 C-2.34584887 11.22655668 -2.34584887 11.22655668 -0.0390625 12.1875 C0.75757813 12.496875 1.55421875 12.80625 2.375 13.125 C5.55269548 14.36709595 7.88777207 15.38373867 10 18.125 C10.72990587 23.15324041 10.72990587 23.15324041 10 26.125 C7.59292991 29.22088574 4.71542197 30.88652601 1 32.125 C-0.99820728 32.21935979 -2.99957203 32.25490301 -5 32.25 C-6.051875 32.25257813 -7.10375 32.25515625 -8.1875 32.2578125 C-11 32.125 -11 32.125 -14 31.125 C-14 28.485 -14 25.845 -14 23.125 C-13.44828125 23.28871094 -12.8965625 23.45242188 -12.328125 23.62109375 C-9.73385993 24.18260414 -7.40164589 24.22239008 -4.75 24.1875 C-3.41195313 24.17396484 -3.41195313 24.17396484 -2.046875 24.16015625 C-1.37140625 24.14855469 -0.6959375 24.13695312 0 24.125 C-0.33 23.135 -0.66 22.145 -1 21.125 C-3.26044171 19.98821671 -3.26044171 19.98821671 -5.9375 19.125 C-10.78193146 17.4521028 -10.78193146 17.4521028 -13 14.125 C-13.53592882 11.06174367 -13.55909859 8.18620318 -13 5.125 C-8.87577031 0.78370559 -5.81854618 -0.01398689 0 0 Z " fill="#F7F7FB" transform="translate(1085,302.875)"/>
<path d="M0 0 C3.3 0 6.6 0 10 0 C10.1489943 5.14106727 10.25751582 10.28086202 10.32958984 15.42358398 C10.35965146 17.17055163 10.40051371 18.91736972 10.45263672 20.66381836 C10.5259298 23.18380707 10.55956001 25.7017914 10.5859375 28.22265625 C10.61690521 28.99585709 10.64787292 29.76905792 10.67977905 30.56568909 C10.68311613 36.01650172 9.22022473 38.73118376 5.48721313 42.67967224 C2.81762238 45.0496989 0.91173497 45.13615324 -2.5625 45.125 C-3.77099609 45.12886719 -3.77099609 45.12886719 -5.00390625 45.1328125 C-7 45 -7 45 -8 44 C-8.04092937 41.66702567 -8.04241723 39.33294775 -8 37 C-5.69 37 -3.38 37 -1 37 C-0.67 24.79 -0.34 12.58 0 0 Z " fill="#F7F7FB" transform="translate(944,304)"/>
<path d="M0 0 C4.16960522 1.76049998 6.27128428 3.81468826 8 8 C8.64885576 11.85748316 8.8866804 15.36592616 6.98046875 18.87890625 C4.84791481 21.55265213 3.26139319 22.91286894 0 24 C-5.30452423 24.34222737 -8.72478403 24.52076609 -13 21 C-15.89311176 16.36897658 -15.78998479 11.27960132 -15 6 C-10.73233642 0.38465319 -6.88112601 -0.7278114 0 0 Z " fill="#CEC211" transform="translate(148,21)"/>
<path d="M0 0 C5.46341463 2.92682927 5.46341463 2.92682927 7 6 C7.41079745 10.90586951 7.62569374 15.46705034 5.75 20.0625 C3.40565566 22.65802409 1.28450648 23.80238362 -2.18359375 24.3359375 C-6.18287366 24.40524911 -8.42740621 24.34111971 -11.9375 22.25 C-15.5693826 18.28794625 -16.45800218 15.54724353 -16.32421875 10.03125 C-15.79002404 6.68448796 -14.13123774 4.55748529 -12 2 C-7.96499935 -0.69000043 -4.74124093 -0.678474 0 0 Z " fill="#CEC210" transform="translate(58,21)"/>
<path d="M0 0 C0 2.97 0 5.94 0 9 C-0.928125 8.95875 -1.85625 8.9175 -2.8125 8.875 C-6.15809719 8.72863661 -6.15809719 8.72863661 -9 11 C-9.50702517 13.12106795 -9.50702517 13.12106795 -9.51171875 15.5703125 C-9.54716797 16.46621094 -9.58261719 17.36210937 -9.61914062 18.28515625 C-9.65297852 19.69087891 -9.65297852 19.69087891 -9.6875 21.125 C-9.72166016 22.06988281 -9.75582031 23.01476562 -9.79101562 23.98828125 C-9.87363039 26.32509883 -9.93848768 28.66253175 -10 31 C-13.3 31 -16.6 31 -20 31 C-20 21.1 -20 11.2 -20 1 C-16 1 -12 1 -8 1 C-5.29120665 -0.35439668 -2.99066732 -0.06501451 0 0 Z " fill="#F9F9FC" transform="translate(1215,303)"/>
<path d="M0 0 C0 2.97 0 5.94 0 9 C-0.928125 8.95875 -1.85625 8.9175 -2.8125 8.875 C-6.15809719 8.72863661 -6.15809719 8.72863661 -9 11 C-9.50702517 13.12106795 -9.50702517 13.12106795 -9.51171875 15.5703125 C-9.54716797 16.46621094 -9.58261719 17.36210937 -9.61914062 18.28515625 C-9.65297852 19.69087891 -9.65297852 19.69087891 -9.6875 21.125 C-9.72166016 22.06988281 -9.75582031 23.01476562 -9.79101562 23.98828125 C-9.87363039 26.32509883 -9.93848768 28.66253175 -10 31 C-13.3 31 -16.6 31 -20 31 C-20 21.1 -20 11.2 -20 1 C-16 1 -12 1 -8 1 C-5.29120665 -0.35439668 -2.99066732 -0.06501451 0 0 Z " fill="#F9F9FC" transform="translate(919,303)"/>
<path d="M0 0 C3.83625 -0.12375 3.83625 -0.12375 7.75 -0.25 C8.54889648 -0.28641602 9.34779297 -0.32283203 10.17089844 -0.36035156 C13.67739 -0.41511289 15.62778319 -0.27432672 18.48046875 1.828125 C20 4 20 4 20.5625 7 C20 10 20 10 17.5 12.375 C16.675 12.91125 15.85 13.4475 15 14 C15.433125 14.55429687 15.86625 15.10859375 16.3125 15.6796875 C16.869375 16.40414062 17.42625 17.12859375 18 17.875 C18.556875 18.59429687 19.11375 19.31359375 19.6875 20.0546875 C21 22 21 22 21 24 C18.3125 24.4375 18.3125 24.4375 15 24 C12.89292415 21.92559199 11.34439148 19.62929661 10 17 C10 16.34 10 15.68 10 15 C8.35 14.67 6.7 14.34 5 14 C5 17.3 5 20.6 5 24 C3.35 24 1.7 24 0 24 C0 16.08 0 8.16 0 0 Z " fill="#CFC30E" transform="translate(159,21)"/>
<path d="M0 0 C3.0625 2 3.0625 2 5 4 C4.67 5.32 4.34 6.64 4 8 C2.68 8 1.36 8 0 8 C-0.680625 7.2265625 -0.680625 7.2265625 -1.375 6.4375 C-1.91125 5.963125 -2.4475 5.48875 -3 5 C-6.83266292 5.14090084 -6.83266292 5.14090084 -10 7 C-10.23820921 9.03270562 -10.23820921 9.03270562 -10.25 11.375 C-10.27578125 12.16648437 -10.3015625 12.95796875 -10.328125 13.7734375 C-10.16336098 16.06006514 -10.16336098 16.06006514 -8.71484375 17.80859375 C-6.84023806 19.38130795 -6.84023806 19.38130795 -3.3125 18.6875 C-2.219375 18.460625 -1.12625 18.23375 0 18 C0.33 17.01 0.66 16.02 1 15 C-0.98 15 -2.96 15 -5 15 C-5 13.68 -5 12.36 -5 11 C-1.37 11 2.26 11 6 11 C6 14.3 6 17.6 6 21 C0.99778769 24.0782845 -3.25775896 24.92451108 -9 24 C-12.49522239 22.28416355 -14.38570908 21.03312564 -16.375 17.6875 C-17.54035241 12.67648462 -17.69016617 9.30638597 -15.25 4.6875 C-11.03393519 -0.34835519 -6.31545579 -0.96642206 0 0 Z " fill="#CEC211" transform="translate(198,21)"/>
<path d="M0 0 C1.65 0 3.3 0 5 0 C5.33 2.64 5.66 5.28 6 8 C6.42410156 7.4225 6.84820312 6.845 7.28515625 6.25 C12.135506 0.10977702 12.135506 0.10977702 16.9375 -0.5 C18.4534375 -0.2525 18.4534375 -0.2525 20 0 C19.57847656 0.55429687 19.15695313 1.10859375 18.72265625 1.6796875 C18.17480469 2.40414063 17.62695312 3.12859375 17.0625 3.875 C16.51722656 4.59429688 15.97195312 5.31359375 15.41015625 6.0546875 C13.96035376 7.94357079 13.96035376 7.94357079 13 10 C14.2466011 12.26627954 15.52951633 14.40048871 16.9375 16.5625 C21 22.903798 21 22.903798 21 24 C17.875 24.625 17.875 24.625 14 24 C11.50484239 20.91488105 9.73463624 17.55822819 8 14 C5.70424397 16.29575603 5.67660401 17.00842525 5.375 20.125 C5.25125 21.40375 5.1275 22.6825 5 24 C3.35 24 1.7 24 0 24 C0 16.08 0 8.16 0 0 Z " fill="#CDC211" transform="translate(69,21)"/>
<path d="M0 0 C5.94 0 11.88 0 18 0 C18 1.32 18 2.64 18 4 C13.71 4 9.42 4 5 4 C5 5.65 5 7.3 5 9 C8.96 9 12.92 9 17 9 C17 10.32 17 11.64 17 13 C13.04 13 9.08 13 5 13 C5 15.31 5 17.62 5 20 C9.29 20 13.58 20 18 20 C18 21.32 18 22.64 18 24 C12.06 24 6.12 24 0 24 C0 16.08 0 8.16 0 0 Z " fill="#D2C509" transform="translate(208,21)"/>
<path d="M0 0 C5.94 0 11.88 0 18 0 C18 1.32 18 2.64 18 4 C13.71 4 9.42 4 5 4 C5 5.65 5 7.3 5 9 C8.96 9 12.92 9 17 9 C17 10.32 17 11.64 17 13 C13.04 13 9.08 13 5 13 C5 15.31 5 17.62 5 20 C9.29 20 13.58 20 18 20 C18 21.32 18 22.64 18 24 C12.06 24 6.12 24 0 24 C0 16.08 0 8.16 0 0 Z " fill="#D3C508" transform="translate(92,21)"/>
<path d="M0 0 C2.4375 1.5 2.4375 1.5 4 4 C4.80414661 8.04560357 4.63828902 10.97873756 2.4375 14.5 C-0.9238388 16.56851618 -3.11959911 16.48505011 -7 16 C-9.375 14.9375 -9.375 14.9375 -11 13 C-12.10373378 9.02655839 -12.41543583 6.91000228 -10.6875 3.125 C-7.63346061 -0.72082738 -4.73012808 -0.40776966 0 0 Z " fill="#FDF4F8" transform="translate(991,609)"/>
<path d="M0 0 C5.28 0 10.56 0 16 0 C16 1.32 16 2.64 16 4 C12.37 4 8.74 4 5 4 C5 5.98 5 7.96 5 10 C8.3 10 11.6 10 15 10 C15 11.32 15 12.64 15 14 C11.7 14 8.4 14 5 14 C5 17.3 5 20.6 5 24 C3.35 24 1.7 24 0 24 C0 16.08 0 8.16 0 0 Z " fill="#D1C40A" transform="translate(114,21)"/>
<path d="M0 0 C3.375 1 3.375 1 4.5625 2.78125 C5.9298648 6.51520771 5.9567088 10.08603337 5.375 14 C3.41469628 16.9767575 2.33024971 17.78506882 -1.125 18.5625 C-3.625 18 -3.625 18 -5.9375 16.0625 C-8.20359969 11.94994871 -8.45589011 8.5998762 -7.625 4 C-5.38961917 0.2445602 -4.38071977 0 0 0 Z " fill="#6E67C3" transform="translate(979.625,310)"/>
<path d="M0 0 C2 2 2 2 2.265625 4.2421875 C2.26046875 5.11101562 2.2553125 5.97984375 2.25 6.875 C2.25515625 7.73867188 2.2603125 8.60234375 2.265625 9.4921875 C1.98126531 12.1768775 1.54998999 13.79001427 0 16 C-3.625 16.75 -3.625 16.75 -7 17 C-9.84174553 13.81151629 -10.43172205 11.68429177 -10.4375 7.4375 C-10.45683594 6.48746094 -10.47617187 5.53742188 -10.49609375 4.55859375 C-10 2 -10 2 -8.16796875 0.1484375 C-5.111821 -1.47049482 -3.26248481 -0.92200658 0 0 Z " fill="#6E6BC6" transform="translate(840,311)"/>
<path d="M0 0 C2.62221791 1.00854535 3.69353831 1.76866379 5.4375 3.9375 C6.12684584 7.00508897 6.01432127 9.85393211 5.4375 12.9375 C3.25 16.0625 3.25 16.0625 0.4375 17.9375 C-3.00866056 17.85735673 -4.1181104 17.3818896 -6.5625 14.9375 C-7.23074964 10.04218287 -7.496375 5.45937037 -4.875 1.1875 C-2.5625 -0.0625 -2.5625 -0.0625 0 0 Z " fill="#7070CA" transform="translate(682.5625,310.0625)"/>
<path d="M0 0 C1.65 0 3.3 0 5 0 C5.10822792 3.06345144 5.18741479 6.1230601 5.25 9.1875 C5.30027344 10.48397461 5.30027344 10.48397461 5.3515625 11.80664062 C5.41560289 15.98527609 5.35347352 18.38454943 3.234375 22.07421875 C0.24321649 24.65226271 -1.29092325 24.73022301 -5.09375 24.49609375 C-7 24 -7 24 -9.5 21.6875 C-11 19 -11 19 -11 16 C-8.625 15.8125 -8.625 15.8125 -6 16 C-5.34 16.99 -4.68 17.98 -4 19 C-3.01 19 -2.02 19 -1 19 C-0.67 12.73 -0.34 6.46 0 0 Z " fill="#CEC310" transform="translate(34,21)"/>
<path d="M0 0 C3.4375 0.8125 3.4375 0.8125 5.4375 2.8125 C6.15051718 7.10718485 6.12179532 10.70709987 3.8125 14.4375 C1.4375 15.8125 1.4375 15.8125 -1.6875 15.75 C-4.5625 14.8125 -4.5625 14.8125 -6.5625 11.8125 C-6.86328125 9.65625 -6.86328125 9.65625 -6.875 7.3125 C-6.89175781 6.5390625 -6.90851562 5.765625 -6.92578125 4.96875 C-6.5625 2.8125 -6.5625 2.8125 -5.265625 1.01953125 C-3.5625 -0.1875 -3.5625 -0.1875 0 0 Z " fill="#697DDB" transform="translate(54.5625,25.1875)"/>
<path d="M0 0 C2.875 0.875 2.875 0.875 4.875 2.875 C5.58801718 7.16968485 5.55929532 10.76959987 3.25 14.5 C0.875 15.875 0.875 15.875 -2.25 15.8125 C-5.125 14.875 -5.125 14.875 -7.125 11.875 C-7.78742038 4.91958599 -7.78742038 4.91958599 -5.5 1.3125 C-3.125 -0.125 -3.125 -0.125 0 0 Z " fill="#697BDA" transform="translate(145.125,25.125)"/>
<path d="M0 0 C2 2 2 2 3 4 C-0.35964157 5.11988052 -2.58090665 4.71980913 -6 4 C-6.99 4.495 -6.99 4.495 -8 5 C-8.65772428 8.02934491 -8.65772428 8.02934491 -9 11 C-6.69 11.33 -4.38 11.66 -2 12 C-1.67 11.34 -1.34 10.68 -1 10 C-2.32 10 -3.64 10 -5 10 C-5 9.01 -5 8.02 -5 7 C-2.36 7 0.28 7 3 7 C3.1875 10.375 3.1875 10.375 3 14 C-0.69744096 16.46496064 -3.71032516 16.66459751 -8 16 C-10.5 14.5625 -10.5 14.5625 -12 12 C-12.53830474 8.89353305 -12.56434456 6.10389505 -12 3 C-9.01266484 -1.10758585 -4.63462555 -0.51495839 0 0 Z " fill="#FDF3FA" transform="translate(899,609)"/>
<path d="M0 0 C1.32 0 2.64 0 4 0 C4.33 1.65 4.66 3.3 5 5 C5.556875 4.175 6.11375 3.35 6.6875 2.5 C9 0 9 0 11.75 -0.3125 C12.86375 -0.1578125 12.86375 -0.1578125 14 0 C13.319375 0.7425 12.63875 1.485 11.9375 2.25 C9.82001452 4.69479882 9.82001452 4.69479882 10 6.875 C11.48647324 10.03375564 13.21197855 13.00073821 15 16 C12.6875 16.3125 12.6875 16.3125 10 16 C8.3125 13.5 8.3125 13.5 7 11 C6.34 11 5.68 11 5 11 C4.67 12.65 4.34 14.3 4 16 C2.68 16 1.36 16 0 16 C0 10.72 0 5.44 0 0 Z " fill="#FDF1F6" transform="translate(998,609)"/>
<path d="M0 0 C1.2065625 0.0309375 1.2065625 0.0309375 2.4375 0.0625 C3.27469383 2.35282311 4.1073929 4.64460957 4.9375 6.9375 C5.17597656 7.58847656 5.41445313 8.23945312 5.66015625 8.91015625 C7.4375 13.8359375 7.4375 13.8359375 7.4375 16.0625 C6.1175 16.0625 4.7975 16.0625 3.4375 16.0625 C3.1075 15.0725 2.7775 14.0825 2.4375 13.0625 C-0.5325 12.5675 -0.5325 12.5675 -3.5625 12.0625 C-3.8925 13.3825 -4.2225 14.7025 -4.5625 16.0625 C-5.8825 15.7325 -7.2025 15.4025 -8.5625 15.0625 C-7.75343245 12.74874595 -6.94043083 10.43651052 -6.125 8.125 C-5.89490234 7.46564453 -5.66480469 6.80628906 -5.42773438 6.12695312 C-3.28811329 0.08019789 -3.28811329 0.08019789 0 0 Z " fill="#FCECF4" transform="translate(949.5625,608.9375)"/>
<path d="M0 0 C3.96 0 7.92 0 12 0 C12 0.99 12 1.98 12 3 C9.03 3 6.06 3 3 3 C3 3.99 3 4.98 3 6 C5.64 6 8.28 6 11 6 C11 6.99 11 7.98 11 9 C8.36 9 5.72 9 3 9 C3 10.32 3 11.64 3 13 C5.97 13 8.94 13 12 13 C12 13.99 12 14.98 12 16 C8.04 16 4.08 16 0 16 C0 10.72 0 5.44 0 0 Z " fill="#FEFEFC" transform="translate(1016,609)"/>
<path d="M0 0 C3.96 0 7.92 0 12 0 C12 0.99 12 1.98 12 3 C9.03 3 6.06 3 3 3 C3 3.99 3 4.98 3 6 C5.64 6 8.28 6 11 6 C11 6.99 11 7.98 11 9 C8.36 9 5.72 9 3 9 C3 10.32 3 11.64 3 13 C5.97 13 8.94 13 12 13 C12 13.99 12 14.98 12 16 C8.04 16 4.08 16 0 16 C0 10.72 0 5.44 0 0 Z " fill="#FEFEFD" transform="translate(906,609)"/>
<path d="M0 0 C-0.42152344 0.53109375 -0.84304688 1.0621875 -1.27734375 1.609375 C-1.82519531 2.31578125 -2.37304688 3.0221875 -2.9375 3.75 C-3.48277344 4.44609375 -4.02804687 5.1421875 -4.58984375 5.859375 C-7.06456399 9.61601403 -7.06088416 12.59621596 -6.8125 17 C-6.76452433 21.64678649 -6.76452433 21.64678649 -8.75 24.625 C-11 26 -11 26 -15 26 C-15 24.68 -15 23.36 -15 22 C-13.35 22 -11.7 22 -10 22 C-10.02094727 21.40985107 -10.04189453 20.81970215 -10.06347656 20.21166992 C-10.14663683 17.53712001 -10.19865691 14.86284185 -10.25 12.1875 C-10.28351562 11.25873047 -10.31703125 10.32996094 -10.3515625 9.37304688 C-10.37089844 8.0340332 -10.37089844 8.0340332 -10.390625 6.66796875 C-10.41157227 5.84578857 -10.43251953 5.0236084 -10.45410156 4.17651367 C-10 2 -10 2 -8.17871094 0.1887207 C-5.1652614 -1.45543952 -3.24762443 -0.81190611 0 0 Z M-9 12 C-8 14 -8 14 -8 14 Z " fill="#625EB2" transform="translate(919,312)"/>
<path d="M0 0 C0.33 0 0.66 0 1 0 C1 9.24 1 18.48 1 28 C-4.59097309 21.01128363 -4.80727566 15.73325482 -4 7 C-2.9605242 4.19931629 -1.80003649 2.41879903 0 0 Z " fill="#191424" transform="translate(1867,468)"/>
<path d="M0 0 C3.0625 0.25 3.0625 0.25 6.0625 2.25 C5.80688677 4.5931213 5.46979228 6.92843403 5.0625 9.25 C2.29999964 10.63125018 0.11518901 10.44079306 -2.9375 10.25 C-4.9375 8.25 -4.9375 8.25 -5.1875 5.25 C-4.84699843 1.16398112 -4.09328517 0.3483647 0 0 Z " fill="#F5F5FB" transform="translate(948.9375,289.75)"/>
<path d="M0 0 C6.6 0 13.2 0 20 0 C14.17241379 5.82758621 14.17241379 5.82758621 8.0625 6.3125 C4.86947527 6.2830983 4.17410164 6.13057623 1.5 4.125 C0 2 0 2 0 0 Z " fill="#6459AD" transform="translate(1229,322)"/>
<path d="M0 0 C6.6 0 13.2 0 20 0 C14.17241379 5.82758621 14.17241379 5.82758621 8.0625 6.3125 C4.86947527 6.2830983 4.17410164 6.13057623 1.5 4.125 C0 2 0 2 0 0 Z " fill="#6261B9" transform="translate(715,322)"/>
<path d="M0 0 C4.29 0 8.58 0 13 0 C13 0.99 13 1.98 13 3 C11.68 3 10.36 3 9 3 C9 7.29 9 11.58 9 16 C7.68 16 6.36 16 5 16 C5 11.71 5 7.42 5 3 C3.35 3 1.7 3 0 3 C0 2.01 0 1.02 0 0 Z " fill="#FDF3F5" transform="translate(921,609)"/>
<path d="M0 0 C6.27 0 12.54 0 19 0 C15 5 15 5 12 6 C4.76555024 6.57416268 4.76555024 6.57416268 1.5 4.125 C0 2 0 2 0 0 Z " fill="#645AAF" transform="translate(1168,322)"/>
<path d="M0 0 C1.32 0 2.64 0 4 0 C4.0810206 2.10353495 4.13919907 4.20795952 4.1875 6.3125 C4.22230469 7.48425781 4.25710938 8.65601563 4.29296875 9.86328125 C4 13 4 13 2.64453125 14.890625 C0.2633486 16.49693349 -1.19523051 16.49083466 -4 16 C-5.97610386 13.95575462 -7 12.8823175 -7 10 C-5.68 10 -4.36 10 -3 10 C-2.01 10.99 -1.02 11.98 0 13 C0 8.71 0 4.42 0 0 Z " fill="#FDF2F6" transform="translate(972,609)"/>
<path d="M0 0 C1 2 1 2 0.46875 3.76953125 C-2.12893975 9.24772374 -4.84102406 11.82524558 -10 15 C-10.66 14.67 -11.32 14.34 -12 14 C-12.99 14.04125 -13.98 14.0825 -15 14.125 C-15.99 14.08375 -16.98 14.0425 -18 14 C-18.66 13.01 -19.32 12.02 -20 11 C-19.41992188 10.97421875 -18.83984375 10.9484375 -18.2421875 10.921875 C-12.78405202 10.52557473 -9.28570111 9.67345809 -5 6 C-3.26509754 3.41556677 -3.26509754 3.41556677 -2 1 C-1.34 0.67 -0.68 0.34 0 0 Z " fill="#605AAD" transform="translate(996,324)"/>
<path d="M0 0 C4.55555556 0.55555556 4.55555556 0.55555556 6 2 C6.1875 4.9375 6.1875 4.9375 6 8 C5.34 8.66 4.68 9.32 4 10 C-0.55555556 9.44444444 -0.55555556 9.44444444 -2 8 C-2.1875 5.0625 -2.1875 5.0625 -2 2 C-1.34 1.34 -0.68 0.68 0 0 Z " fill="#F477AA" transform="translate(985,612)"/>
<path d="M0 0 C0 0.99 0 1.98 0 3 C-0.598125 3.5775 -1.19625 4.155 -1.8125 4.75 C-4.61233219 7.62982739 -5.56427771 10.26712205 -7 14 C-7.66 13.67 -8.32 13.34 -9 13 C-9.61989796 4.94132653 -9.61989796 4.94132653 -7.3125 1.4375 C-4.62515045 -0.23301458 -3.10843835 -0.34538204 0 0 Z " fill="#706BB5" transform="translate(981,310)"/>
<path d="M0 0 C3.29714793 0.32971479 4.6226839 0.6226839 7 3 C7 4.32 7 5.64 7 7 C3.7 7 0.4 7 -3 7 C-2.25 2.25 -2.25 2.25 0 0 Z " fill="#6F68B6" transform="translate(1050,309)"/>
<path d="M0 0 C2.375 0.75 2.375 0.75 3.375 1.75 C3.375 3.4 3.375 5.05 3.375 6.75 C0.075 6.75 -3.225 6.75 -6.625 6.75 C-4.82267442 -0.45930233 -4.82267442 -0.45930233 0 0 Z " fill="#6C61B0" transform="translate(1235.625,309.25)"/>
<path d="M0 0 C2.375 0.75 2.375 0.75 3.375 1.75 C3.375 3.4 3.375 5.05 3.375 6.75 C0.075 6.75 -3.225 6.75 -6.625 6.75 C-4.82267442 -0.45930233 -4.82267442 -0.45930233 0 0 Z " fill="#6B62B1" transform="translate(1174.625,309.25)"/>
<path d="M0 0 C2.375 0.75 2.375 0.75 3.375 1.75 C3.375 3.4 3.375 5.05 3.375 6.75 C0.075 6.75 -3.225 6.75 -6.625 6.75 C-4.82267442 -0.45930233 -4.82267442 -0.45930233 0 0 Z " fill="#6969BA" transform="translate(721.625,309.25)"/>
<path d="M0 0 C0.33 0 0.66 0 1 0 C1.05800828 3.60409919 1.09359869 7.20807851 1.125 10.8125 C1.14175781 11.83666016 1.15851562 12.86082031 1.17578125 13.91601562 C1.18222656 14.89892578 1.18867187 15.88183594 1.1953125 16.89453125 C1.20578613 17.80050049 1.21625977 18.70646973 1.22705078 19.63989258 C1 22 1 22 -1 25 C-1.66 25 -2.32 25 -3 25 C-2.8453125 24.20207031 -2.690625 23.40414063 -2.53125 22.58203125 C-1.77268353 17.46728527 -1.61279819 12.35496841 -1.39453125 7.19335938 C-1.10333469 1.10333469 -1.10333469 1.10333469 0 0 Z " fill="#615BB1" transform="translate(956,318)"/>
<path d="M0 0 C1.98284162 3.96568324 1.0139675 8.81134852 0 13 C-1.82189627 15.3785868 -3.40565723 16.39923531 -6 18 C-6.66 16.68 -7.32 15.36 -8 14 C-6.35 14 -4.7 14 -3 14 C-3.03480469 13.24074219 -3.06960938 12.48148437 -3.10546875 11.69921875 C-3.13253906 10.70535156 -3.15960937 9.71148437 -3.1875 8.6875 C-3.22230469 7.70136719 -3.25710938 6.71523438 -3.29296875 5.69921875 C-3 3 -3 3 -1.48828125 1.14453125 C-0.99714844 0.76683594 -0.50601562 0.38914062 0 0 Z " fill="#6157AC" transform="translate(1208,320)"/>
<path d="M0 0 C0.7425 0.2475 1.485 0.495 2.25 0.75 C2.58 1.74 2.91 2.73 3.25 3.75 C2.13625 4.059375 2.13625 4.059375 1 4.375 C-2.53740449 6.14370225 -3.72448591 8.42236972 -5.75 11.75 C-6.08 11.75 -6.41 11.75 -6.75 11.75 C-7.23430493 4.48542601 -7.23430493 4.48542601 -5.0625 1.1875 C-2.75 -0.25 -2.75 -0.25 0 0 Z " fill="#6768B5" transform="translate(682.75,310.25)"/>
<path d="M0 0 C2.64 0 5.28 0 8 0 C8.38218767 1.65614657 8.71395102 3.32457024 9 5 C8 6 8 6 6.15234375 6.09765625 C4.1015625 6.06510417 2.05078125 6.03255208 0 6 C0 4.02 0 2.04 0 0 Z " fill="#687AD5" transform="translate(164,25)"/>
<path d="M0 0 C0.87382235 3.10935118 1.24519667 6.09560791 1.5 9.3125 C1.85993972 13.57464336 2.34267427 17.77433461 3 22 C-1.2679337 16.90601461 -2.12796308 13.92427082 -2.0625 7.3125 C-2.05347656 6.13300781 -2.04445313 4.95351563 -2.03515625 3.73828125 C-2.02355469 2.83464844 -2.01195312 1.93101562 -2 1 C-1.34 0.67 -0.68 0.34 0 0 Z " fill="#272131" transform="translate(1865,474)"/>
<path d="M0 0 C0.78375 0.04125 1.5675 0.0825 2.375 0.125 C-0.1 3.59 -0.1 3.59 -2.625 7.125 C-2.295 7.785 -1.965 8.445 -1.625 9.125 C-1.90442455 10.80154729 -2.23328247 12.47108154 -2.625 14.125 C-3.285 13.795 -3.945 13.465 -4.625 13.125 C-4.67891993 11.33366022 -4.71775571 9.54186101 -4.75 7.75 C-4.77320313 6.75226563 -4.79640625 5.75453125 -4.8203125 4.7265625 C-4.54603402 1.07317311 -3.66648281 0.17459442 0 0 Z M1.375 2.125 C2.035 2.455 2.695 2.785 3.375 3.125 C1.725 4.445 0.075 5.765 -1.625 7.125 C0.25 3.25 0.25 3.25 1.375 2.125 Z " fill="#625FB3" transform="translate(834.625,310.875)"/>
<path d="M0 0 C0.61875 0.268125 1.2375 0.53625 1.875 0.8125 C2.205 1.8025 2.535 2.7925 2.875 3.8125 C1.37760417 5.04947917 -0.11979167 6.28645833 -1.6171875 7.5234375 C-2.83551161 8.56500992 -3.99160097 9.67910097 -5.125 10.8125 C-5.20596803 9.35507537 -5.26417774 7.89637193 -5.3125 6.4375 C-5.34730469 5.62539063 -5.38210938 4.81328125 -5.41796875 3.9765625 C-5.32128906 3.26242187 -5.22460938 2.54828125 -5.125 1.8125 C-2.125 -0.1875 -2.125 -0.1875 0 0 Z " fill="#655DAE" transform="translate(1137.125,310.1875)"/>
<path d="M0 0 C-0.9481262 2.37031549 -1.68896678 3.76672508 -3.75 5.3125 C-6.83927699 6.25644575 -8.91529342 5.8717649 -12 5 C-12.66 4.01 -13.32 3.02 -14 2 C-12.04200486 1.66468585 -10.08359226 1.33180857 -8.125 1 C-6.48917969 0.7215625 -6.48917969 0.7215625 -4.8203125 0.4375 C-2 0 -2 0 0 0 Z " fill="#615DB1" transform="translate(846,333)"/>
<path d="M0 0 C-1.0625 2 -1.0625 2 -3 4 C-6.5 4.5 -6.5 4.5 -10 4 C-11.71875 1.96875 -11.71875 1.96875 -13 0 C-11.20909747 -0.19466332 -9.41723495 -0.38051213 -7.625 -0.5625 C-6.12839844 -0.71912109 -6.12839844 -0.71912109 -4.6015625 -0.87890625 C-2 -1 -2 -1 0 0 Z " fill="#5F5EB5" transform="translate(730,335)"/>
<path d="M0 0 C-1.5625 2.0625 -1.5625 2.0625 -4 4 C-10.01587159 3.89445839 -10.01587159 3.89445839 -12.71484375 1.44140625 C-13.13894531 0.96574219 -13.56304688 0.49007813 -14 0 C-12.04235617 -0.19456705 -10.08384679 -0.38044247 -8.125 -0.5625 C-6.48917969 -0.71912109 -6.48917969 -0.71912109 -4.8203125 -0.87890625 C-2 -1 -2 -1 0 0 Z " fill="#5E5EB5" transform="translate(687,349)"/>
<path d="M0 0 C0.66 0.99 1.32 1.98 2 3 C-2.31606218 6.08290155 -2.31606218 6.08290155 -5 7 C-7.76262112 6.45067572 -9.51222776 5.42158414 -12 4 C-12 3.67 -12 3.34 -12 3 C-11.30132813 2.86722656 -10.60265625 2.73445313 -9.8828125 2.59765625 C-8.51769531 2.33275391 -8.51769531 2.33275391 -7.125 2.0625 C-6.22007812 1.88847656 -5.31515625 1.71445312 -4.3828125 1.53515625 C-2.00043683 1.10036299 -2.00043683 1.10036299 0 0 Z " fill="#615DB1" transform="translate(878,332)"/>
<path d="M0 0 C-1.5625 2.0625 -1.5625 2.0625 -4 4 C-7.75 3.75 -7.75 3.75 -11 3 C-11 2.34 -11 1.68 -11 1 C-11.99 0.67 -12.98 0.34 -14 0 C-12.04235617 -0.19456705 -10.08384679 -0.38044247 -8.125 -0.5625 C-6.48917969 -0.71912109 -6.48917969 -0.71912109 -4.8203125 -0.87890625 C-2 -1 -2 -1 0 0 Z " fill="#6056A9" transform="translate(1183,335)"/>
<path d="M0 0 C0.33 1.32 0.66 2.64 1 4 C-0.04800781 4.05607422 -0.04800781 4.05607422 -1.1171875 4.11328125 C-2.02726563 4.17902344 -2.93734375 4.24476562 -3.875 4.3125 C-4.77992188 4.37050781 -5.68484375 4.42851562 -6.6171875 4.48828125 C-9.36221601 4.7882039 -9.36221601 4.7882039 -11 8 C-11.66 8 -12.32 8 -13 8 C-13 6.35 -13 4.7 -13 3 C-8.71 3 -4.42 3 0 3 C0 2.01 0 1.02 0 0 Z " fill="#6172D6" transform="translate(226,22)"/>
<path d="M0 0 C0.33 1.32 0.66 2.64 1 4 C-2 6 -2 6 -4.26171875 5.7578125 C-5.06222656 5.54898437 -5.86273437 5.34015625 -6.6875 5.125 C-7.49574219 4.92132813 -8.30398438 4.71765625 -9.13671875 4.5078125 C-9.75160156 4.34023438 -10.36648438 4.17265625 -11 4 C-11 3.67 -11 3.34 -11 3 C-10.28972656 2.86722656 -9.57945312 2.73445313 -8.84765625 2.59765625 C-7.92855469 2.42105469 -7.00945313 2.24445313 -6.0625 2.0625 C-4.68771484 1.80146484 -4.68771484 1.80146484 -3.28515625 1.53515625 C-1.04710156 1.22285012 -1.04710156 1.22285012 0 0 Z " fill="#5E5EB3" transform="translate(686,332)"/>
<path d="M0 0 C1.485 0.99 1.485 0.99 3 2 C2.67 4.31 2.34 6.62 2 9 C1.01 8.67 0.02 8.34 -1 8 C-1.04241723 5.66705225 -1.04092937 3.33297433 -1 1 C-0.67 0.67 -0.34 0.34 0 0 Z " fill="#6261B8" transform="translate(755,318)"/>
<path d="M0 0 C3.96 0 7.92 0 12 0 C12 0.33 12 0.66 12 1 C11.30132812 1.09796875 10.60265625 1.1959375 9.8828125 1.296875 C8.97273437 1.44640625 8.06265625 1.5959375 7.125 1.75 C6.22007812 1.88921875 5.31515625 2.0284375 4.3828125 2.171875 C1.83785757 2.77983843 1.83785757 2.77983843 0.6796875 5.078125 C0.45539063 5.71234375 0.23109375 6.3465625 0 7 C0 4.69 0 2.38 0 0 Z " fill="#6171D5" transform="translate(213,34)"/>
<path d="M0 0 C0.66 0.33 1.32 0.66 2 1 C2 1.66 2 2.32 2 3 C0.88625 3.309375 0.88625 3.309375 -0.25 3.625 C-3.79231177 5.39615589 -5.02446841 7.63427951 -7 11 C-8 8 -8 8 -6.875 5.5 C-4.81648231 2.75530974 -3.10312257 1.43221041 0 0 Z " fill="#5E5FB7" transform="translate(684,311)"/>
<path d="M0 0 C0.99 0.33 1.98 0.66 3 1 C1.35 2.65 -0.3 4.3 -2 6 C-2 2 -2 2 0 0 Z " fill="#605AB1" transform="translate(952,345)"/>
<path d="M0 0 C0.66 0.33 1.32 0.66 2 1 C-0.97 4.96 -0.97 4.96 -4 9 C-5.24546405 6.50907189 -4.7767578 5.58919267 -4 3 C-2.68 2.67 -1.36 2.34 0 2 C0 1.34 0 0.68 0 0 Z " fill="#6462B4" transform="translate(808,332)"/>
<path d="M0 0 C2.125 0.375 2.125 0.375 4 1 C3.38125 1.598125 2.7625 2.19625 2.125 2.8125 C-0.13676954 5.00811144 -0.13676954 5.00811144 -2 8 C-2.125 5.125 -2.125 5.125 -2 2 C-1.34 1.34 -0.68 0.68 0 0 Z " fill="#6677CC" transform="translate(189,26)"/>
<path d="M0 0 C-0.99 1.485 -0.99 1.485 -2 3 C-3.32 3 -4.64 3 -6 3 C-6 2.01 -6 1.02 -6 0 C-3 -1 -3 -1 0 0 Z " fill="#615FB2" transform="translate(797,349)"/>
<path d="M0 0 C3.63 0 7.26 0 11 0 C11 0.33 11 0.66 11 1 C8.02148438 1.29296875 8.02148438 1.29296875 5.04296875 1.5859375 C2.70011858 1.92665391 2.70011858 1.92665391 0 4 C0 2.68 0 1.36 0 0 Z " fill="#6072D7" transform="translate(119,25)"/>
</svg>
