<?xml version="1.0" encoding="UTF-8"?>
<svg version="1.1" xmlns="http://www.w3.org/2000/svg" width="1920" height="904">
<path d="M0 0 C633.6 0 1267.2 0 1920 0 C1920 298.32 1920 596.64 1920 904 C1286.4 904 652.8 904 0 904 C0 605.68 0 307.36 0 0 Z " fill="#6D64C5" transform="translate(0,0)"/>
<path d="M0 0 C1.21674349 -0.00327219 2.43348698 -0.00654439 3.68710148 -0.00991574 C5.04192251 -0.00850563 6.39674343 -0.00700361 7.75156426 -0.00541991 C9.19318712 -0.00737256 10.63480943 -0.0097613 12.07643092 -0.01254788 C16.06056038 -0.01896181 20.04466972 -0.0191084 24.02880336 -0.01827047 C28.35473726 -0.0184397 32.68066389 -0.02434272 37.00659418 -0.02951133 C45.59666376 -0.03884892 54.18672818 -0.04276132 62.77680221 -0.0450303 C73.06169741 -0.04798931 83.34658575 -0.05668488 93.63147735 -0.06544458 C118.49134883 -0.08630112 143.35122151 -0.09676022 168.21109969 -0.10557419 C179.9664434 -0.1097785 191.72178658 -0.11500074 203.47712985 -0.12025872 C243.70024947 -0.13814891 283.92336924 -0.15314638 324.14649224 -0.16057891 C326.67226085 -0.16105367 329.19802945 -0.16152956 331.72379805 -0.16200657 C333.60266481 -0.16236113 333.60266481 -0.16236113 335.51948848 -0.16272286 C341.86588114 -0.16392408 348.21227381 -0.16513952 354.55866647 -0.16636485 C355.81813608 -0.166605 357.0776057 -0.16684515 358.37524106 -0.16709258 C399.22813168 -0.17498893 440.0809933 -0.19842769 480.93387125 -0.23092079 C524.10485451 -0.26519511 567.27582079 -0.28492776 610.44681787 -0.28822315 C615.18313893 -0.2886407 619.91945998 -0.28912027 624.65578103 -0.28964633 C626.40516146 -0.28983111 626.40516146 -0.28983111 628.18988291 -0.29001964 C646.98188557 -0.29235452 665.77385462 -0.30803042 684.56584528 -0.32848817 C703.44324215 -0.34871339 722.32059852 -0.35423913 741.19800422 -0.34471754 C752.42085148 -0.33948988 763.64356419 -0.34543962 774.86639216 -0.36725221 C782.35729265 -0.38071454 789.84810005 -0.37972391 797.33900136 -0.36685025 C801.61090648 -0.35992314 805.88255353 -0.3593875 810.15443608 -0.37641034 C814.04006788 -0.39176831 817.92523322 -0.38874239 821.8108509 -0.37100006 C823.2084009 -0.36784796 824.60598617 -0.37141262 826.0034958 -0.38249181 C833.81011743 -0.44035391 839.46092518 -0.16174314 846.10065866 4.12880117 C848.15925241 6.16395742 848.15925241 6.16395742 849.53815866 8.19130117 C850.01124459 8.86290273 850.48433053 9.53450429 850.97175241 10.22645742 C853.44705088 14.39763512 853.26127512 18.43779202 853.27766061 23.12928945 C853.2875174 24.35184186 853.2875174 24.35184186 853.29757333 25.5990923 C853.31729797 28.29910039 853.32896917 30.99905277 853.33893991 33.69911367 C853.34301543 34.62289689 853.34709096 35.54668012 853.35128999 36.49845678 C853.37215056 41.39118648 853.38645042 46.28388817 853.39582467 51.17665273 C853.40686858 56.21702992 853.44124516 61.25696315 853.48099637 66.29718381 C853.50721661 70.18354755 853.51552147 74.06980657 853.51910615 77.95625097 C853.5239608 79.81328869 853.53554264 81.67032209 853.55414414 83.527273 C853.74648376 104.00673217 853.74648376 104.00673217 847.6885035 110.68571645 C842.91066608 115.01012174 838.38996911 116.37829835 832.07070678 116.38180083 C830.85028258 116.38732032 829.62985838 116.3928398 828.37245163 116.39852655 C827.01866317 116.39455088 825.66487524 116.39039195 824.31108785 116.38607007 C822.86659287 116.38876292 821.42209931 116.39233044 819.97760841 116.39669454 C815.99014629 116.40617702 812.00277523 116.403144 808.01530855 116.398139 C803.68404408 116.39488011 799.3527994 116.40314844 795.02154118 116.40995735 C787.42437911 116.4202799 779.82724255 116.42309724 772.23007417 116.42104512 C760.93287595 116.41800099 749.63570604 116.42630604 738.33851332 116.43679438 C716.98994113 116.45616003 695.64137853 116.46176355 674.2927986 116.46290849 C657.80985901 116.46382672 641.3269232 116.46793892 624.84398484 116.47430974 C620.10356715 116.47610476 615.36314945 116.47788439 610.62273175 116.4796595 C609.44433239 116.48010159 608.26593303 116.48054369 607.05182461 116.48099918 C573.89506418 116.49331162 540.73830507 116.5011999 507.58154225 116.50031263 C506.33085716 116.50028147 505.08017207 116.50025031 503.79158743 116.50021821 C497.45224112 116.50005199 491.11289481 116.49985391 484.77354851 116.49964879 C483.51447577 116.4996089 482.25540303 116.49956901 480.95817657 116.49952791 C478.41202375 116.49944704 475.86587093 116.49936344 473.31971811 116.49927713 C433.69728583 116.49805136 394.07488778 116.51306796 354.4524653 116.54042226 C309.96259381 116.57112408 265.47274481 116.58835591 220.98286206 116.58649582 C216.24150129 116.58634655 211.50014053 116.58624914 206.75877976 116.58618718 C205.00754436 116.58615222 205.00754436 116.58615222 203.22093046 116.58611655 C184.40945865 116.58605493 165.59801647 116.59884233 146.78655348 116.61605171 C127.89023231 116.63298154 108.99395464 116.63500285 90.09763011 116.62183307 C78.86367149 116.61442627 67.62984475 116.61815339 56.39590002 116.63771775 C48.89762393 116.64967582 41.39944383 116.64717337 33.90117223 116.63277675 C29.62507603 116.62497834 25.34923589 116.62356315 21.07315727 116.63969146 C17.18372946 116.65423338 13.29477128 116.65039583 9.40536448 116.63184372 C8.00644536 116.62839839 6.60748961 116.63166686 5.20860777 116.64244614 C-3.06830992 116.70195811 -10.04543019 116.66554912 -16.4099191 110.71692725 C-21.37987071 105.1597855 -22.19739465 100.10160463 -22.17399955 92.86952382 C-22.17911048 92.05098424 -22.18422141 91.23244466 -22.18948722 90.38910085 C-22.20335722 87.69028019 -22.20242827 84.99171568 -22.20012259 82.29286367 C-22.20401122 80.41105729 -22.20834624 78.52925178 -22.21310782 76.64744741 C-22.22056466 72.70500513 -22.22028283 68.7626524 -22.21501517 64.82020742 C-22.20922422 59.77750591 -22.22614512 54.73517214 -22.24935985 49.69253141 C-22.26411994 45.80623922 -22.26496573 41.92003509 -22.26185012 38.03371984 C-22.26236228 36.17505206 -22.26758029 34.31637921 -22.27766204 32.4577387 C-22.29005198 29.8538748 -22.28321941 27.25072082 -22.2716558 24.64686757 C-22.27929954 23.88507695 -22.28694327 23.12328634 -22.29481864 22.33841115 C-22.22389067 15.08211837 -19.96557733 9.49305104 -14.89934134 4.12880117 C-9.92976764 0.65009957 -5.98809216 0.00421127 0 0 Z " fill="#FCFDFE" transform="translate(544.8993413448334,364.87119883298874)"/>
<path d="M0 0 C1.41828932 -0.00529263 1.41828932 -0.00529263 2.86523095 -0.01069218 C4.42951267 -0.00889551 4.42951267 -0.00889551 6.02539605 -0.00706255 C7.13463314 -0.00971438 8.24387023 -0.01236621 9.38672057 -0.01509839 C13.14205641 -0.02282081 16.89735972 -0.02335169 20.65270299 -0.02394831 C23.35688663 -0.02796098 26.06106715 -0.03236203 28.76524913 -0.03722787 C35.4424575 -0.04831282 42.11966061 -0.05395442 48.79687656 -0.05793675 C56.79140726 -0.06294195 64.78592774 -0.07366876 72.78045241 -0.08441848 C92.1042727 -0.11005931 111.42809697 -0.12508531 130.75192939 -0.13792895 C137.15038469 -0.14218228 143.54883971 -0.14674796 149.94729465 -0.15151227 C183.95115229 -0.17676882 217.9550104 -0.19882212 251.95887536 -0.21124041 C259.8386447 -0.21416185 267.71841403 -0.21712935 275.59818333 -0.22014582 C277.06665872 -0.22070219 277.06665872 -0.22070219 278.56480028 -0.22126979 C310.32002657 -0.23343071 342.0751975 -0.2643836 373.83039778 -0.30606735 C406.46249376 -0.34882421 439.0945605 -0.37547742 471.72668526 -0.38071512 C476.33251452 -0.38145561 480.93834373 -0.3823663 485.54417294 -0.3833729 C486.45067562 -0.38356352 487.35717829 -0.38375413 488.29115075 -0.38395052 C502.89844078 -0.38746842 517.50566161 -0.40778603 532.1129262 -0.43416954 C546.78628146 -0.4602735 561.45955652 -0.46805884 576.13293169 -0.45706825 C584.85673913 -0.45107794 593.58027511 -0.45907368 602.30404163 -0.48689909 C608.12662979 -0.50410097 613.94903204 -0.50324472 619.77162401 -0.4875314 C623.0925199 -0.47908832 626.412472 -0.48138325 629.73338941 -0.50014286 C633.30710215 -0.5191042 636.87943598 -0.50755625 640.45311517 -0.48808062 C641.48894615 -0.50092984 642.52477714 -0.51377906 643.59199694 -0.52701765 C648.12032502 -0.47241044 651.41025885 -0.39092814 655.0514487 2.48107886 C658.10260529 5.88183328 658.55133238 8.20818218 658.58915013 12.61383855 C658.59875767 13.51842809 658.60836522 14.42301763 658.6182639 15.35501897 C658.62251378 16.33004369 658.62676366 17.30506841 658.63114232 18.30963933 C658.63684239 19.31455419 658.64254246 20.31946905 658.64841527 21.35483587 C658.65786309 23.48152397 658.66439838 25.6082267 658.66825169 27.7349323 C658.67795879 30.98535516 658.70898517 34.2351461 658.74051732 37.48542058 C658.74704738 39.55182308 658.75229784 41.6182301 658.75614232 43.68463933 C658.76848912 44.65561559 658.78083592 45.62659185 658.79355687 46.62699163 C658.76484625 55.34124171 658.76484625 55.34124171 655.42801732 59.12995183 C650.62313468 63.11246001 645.51373475 62.54992962 639.58454293 62.51306188 C638.47299815 62.5180214 637.36145337 62.52298091 636.21622542 62.52809072 C632.46497694 62.54111758 628.7140803 62.53263948 624.96282262 62.52436101 C622.25690581 62.52758752 619.55100601 62.53531353 616.84509814 62.5428189 C610.94820073 62.55675158 605.05138005 62.55945907 599.15446919 62.55485952 C590.38564565 62.54803757 581.61690002 62.55827199 572.8480873 62.57181708 C556.27750786 62.59675457 539.7069606 62.60124479 523.13636542 62.59935111 C510.34286107 62.59797922 497.54936791 62.60178991 484.75586575 62.60927618 C482.91927264 62.6103265 481.08267952 62.61137412 479.2460864 62.61241904 C477.87861973 62.61319805 477.87861973 62.61319805 476.48352748 62.61399281 C475.11359062 62.61477302 475.11359062 62.61477302 473.71597826 62.615569 C472.80118461 62.61609299 471.88639095 62.61661698 470.94387628 62.61715685 C445.206883 62.63174464 419.46989383 62.64002062 393.73289651 62.63540685 C392.76222157 62.6352349 391.79154663 62.63506294 390.79145729 62.63488578 C385.87144287 62.63399686 380.95142845 62.63305204 376.03141404 62.63208777 C375.0542445 62.63189673 374.07707496 62.6317057 373.07029423 62.63150888 C371.09421945 62.63112179 369.11814468 62.63073146 367.14206991 62.6303379 C336.38782699 62.62436661 305.63365929 62.63981005 274.87943333 62.67194402 C240.34455139 62.70799747 205.80971715 62.72735691 171.2748152 62.72240531 C167.59453836 62.72193532 163.91426151 62.72152507 160.23398465 62.72115362 C159.32777497 62.72105123 158.4215653 62.72094884 157.48789472 62.72084336 C143.79127363 62.71964713 130.09470397 62.7316338 116.39809674 62.7502979 C100.82672224 62.77150616 85.25545583 62.77541421 69.68407656 62.75599831 C60.96471087 62.74564941 52.24560863 62.74919963 43.5262666 62.77252917 C37.7066955 62.786723 31.88732007 62.78284293 26.0677623 62.7640834 C22.74863737 62.75389745 19.43044843 62.75442809 16.11128766 62.77140409 C12.53948616 62.78843523 8.96908007 62.77496938 5.39733285 62.75357091 C4.36207356 62.76584844 3.32681427 62.77812597 2.26018348 62.79077554 C-2.30697494 62.73321335 -5.55146734 62.65026235 -9.1950649 59.71597564 C-12.24361937 56.39922884 -12.69717889 54.96047299 -12.76485378 50.5918659 C-12.7809167 49.65038702 -12.79697963 48.70890813 -12.81352931 47.73889959 C-12.85799121 43.4262236 -12.89905357 39.11370195 -12.92208034 34.80085027 C-12.93863053 32.52730858 -12.96590793 30.25381871 -13.00411159 27.98053777 C-13.05892962 24.70194294 -13.08076361 21.42456851 -13.09542018 18.14557683 C-13.11808955 17.13287725 -13.14075893 16.12017766 -13.16411525 15.07679021 C-13.15050434 10.52035781 -13.12725404 7.16925006 -10.22676784 3.50397527 C-6.78364376 0.42498515 -4.45244905 0.00524802 0 0 Z " fill="#FEFEFE" transform="translate(562.5719826817513,391.87004816532135)"/>
<path d="M0 0 C0.74829238 -0.00367669 1.49658476 -0.00735338 2.26755267 -0.01114148 C4.782364 -0.0221804 7.29713401 -0.02602252 9.81196594 -0.02983093 C11.61221447 -0.03609546 13.41246171 -0.04274225 15.21270752 -0.04974365 C21.13160806 -0.07078887 27.05050887 -0.08114692 32.96943665 -0.09111023 C35.00706814 -0.09515771 37.04469949 -0.09927462 39.0823307 -0.10346031 C48.65580645 -0.12251351 58.22927448 -0.1367439 67.80276555 -0.14507228 C78.85249494 -0.15484361 89.90202396 -0.18115991 100.95168275 -0.22157317 C109.49277596 -0.25173908 118.03381175 -0.26654164 126.57495719 -0.26985329 C131.675903 -0.27220338 136.77663477 -0.28115837 141.87752342 -0.30631447 C146.67841024 -0.32960822 151.47894229 -0.33382314 156.27987099 -0.32355309 C158.03905035 -0.32305792 159.79824725 -0.32937265 161.55737305 -0.34310913 C178.0701115 -0.46480591 178.0701115 -0.46480591 184.7077179 4.14717102 C186.76631165 6.18232727 186.76631165 6.18232727 188.1452179 8.20967102 C188.61830383 8.88127258 189.09138977 9.55287415 189.57881165 10.24482727 C191.52269227 13.52050155 191.83632289 16.21055209 191.85488892 19.93383789 C191.86562187 21.41198723 191.86562187 21.41198723 191.87657166 22.91999817 C191.87926056 24.00003113 191.88194946 25.08006409 191.88471985 26.19282532 C191.89129105 27.33133438 191.89786224 28.46984344 191.90463257 29.64285278 C191.92437904 33.41903242 191.93603159 37.19517225 191.94599915 40.97138977 C191.95007467 42.2604957 191.9541502 43.54960163 191.95834923 44.87777138 C191.97706411 50.99775085 191.99162795 57.11771036 191.9999612 63.23771256 C192.00972421 70.29049751 192.03602021 77.34296783 192.07646209 84.39564198 C192.11033003 90.51293964 192.12211195 96.63010565 192.12616539 102.74749184 C192.13103561 105.3449854 192.14266189 107.9424755 192.16120338 110.53990746 C192.18556046 114.17837388 192.18463536 117.81602101 192.1776886 121.45454407 C192.19690369 123.05941177 192.19690369 123.05941177 192.21650696 124.69670105 C192.16796621 131.68392933 191.18415049 137.40418949 186.29573536 142.66741467 C180.95800154 147.40766116 176.12226308 148.44551609 169.17492676 148.41459656 C168.04992491 148.42139323 168.04992491 148.42139323 166.90219575 148.4283272 C164.39354057 148.44096937 161.88510254 148.43935096 159.37641907 148.43769836 C157.57587404 148.44368376 155.77533157 148.45048933 153.97479248 148.45805359 C149.08626384 148.4757203 144.19780521 148.48040927 139.30924773 148.48168516 C136.25394129 148.48310701 133.19865263 148.48737725 130.1433506 148.4926796 C119.48111974 148.5111825 108.81893889 148.51934993 98.1566925 148.51777649 C88.22338951 148.51657521 78.29030385 148.53767429 68.35705584 148.56926382 C59.82440615 148.59543062 51.29182743 148.6061436 42.75913793 148.60486567 C37.66494152 148.60435613 32.57093823 148.61003486 27.47678185 148.63122177 C22.68405932 148.65061075 17.891714 148.65072407 13.09897804 148.63618851 C11.34302849 148.63410009 9.5870553 148.63880327 7.83114624 148.65090942 C-10.39357475 148.76839093 -10.39357475 148.76839093 -16.78898335 142.73525047 C-20.78290122 138.31455503 -22.53658589 134.01944074 -22.55970764 128.11999512 C-22.56823761 127.1318129 -22.57676758 126.14363068 -22.58555603 125.12550354 C-22.58464966 124.05266113 -22.58374329 122.97981873 -22.58280945 121.87446594 C-22.58952667 120.73566483 -22.5962439 119.59686371 -22.60316467 118.42355347 C-22.62216511 114.65820453 -22.62607 110.89303367 -22.6282196 107.12763977 C-22.63464628 104.50836107 -22.64137454 101.88908309 -22.64839172 99.26980591 C-22.66117246 93.7779881 -22.6641577 88.28621849 -22.66288757 82.79438782 C-22.66168699 76.460117 -22.68277526 70.12618738 -22.7143749 63.79200286 C-22.74375155 57.68429433 -22.75086169 51.57674863 -22.74966812 45.46897316 C-22.75202609 42.87706929 -22.76086054 40.28516282 -22.77633286 37.69330406 C-22.79596559 34.06460281 -22.79016427 30.43677554 -22.77812195 26.80805969 C-22.78936096 25.74128998 -22.80059998 24.67452026 -22.81217957 23.57542419 C-22.75010449 16.20067481 -21.64737198 10.54089917 -16.25712585 5.08857727 C-15.58810242 4.63353821 -14.91907898 4.17849915 -14.2297821 3.70967102 C-13.55818054 3.23658508 -12.88657898 2.76349915 -12.19462585 2.27607727 C-8.21117207 -0.08782035 -4.47890128 -0.00117671 0 0 Z " fill="#FBFBFB" transform="translate(875.2922821044922,517.8528289794922)"/>
<path d="M0 0 C0.99391754 -0.01004562 1.98783508 -0.02009125 3.01187134 -0.03044128 C4.10642136 -0.03627228 5.20097137 -0.04210327 6.32868958 -0.04811096 C8.05327393 -0.06278664 8.05327393 -0.06278664 9.81269836 -0.07775879 C13.63157484 -0.10776324 17.45041615 -0.12911287 21.2693634 -0.14796448 C23.22281898 -0.15782222 23.22281898 -0.15782222 25.2157383 -0.1678791 C30.68964689 -0.19377728 36.16354243 -0.21726601 41.63749218 -0.23237514 C49.47655056 -0.25426697 57.31492268 -0.29620108 65.15370673 -0.36581272 C70.66803196 -0.4131145 76.18217249 -0.43731704 81.6966942 -0.44457203 C84.98870554 -0.44952037 88.27976749 -0.46755945 91.57159996 -0.50431633 C95.24898631 -0.5431655 98.92458473 -0.54427261 102.60212708 -0.53639221 C103.68655594 -0.55639282 104.7709848 -0.57639343 105.88827515 -0.59700012 C112.1033777 -0.53723534 115.59225669 0.24286079 120.07085133 4.67732143 C122.32485656 7.42220214 122.42215799 9.33307592 122.45002747 12.80638123 C122.45963501 13.77110855 122.46924255 14.73583588 122.47914124 15.72979736 C122.48551605 17.29850838 122.48551605 17.29850838 122.49201965 18.89891052 C122.49771973 19.97182846 122.5034198 21.0447464 122.5092926 22.150177 C122.51875148 24.42407746 122.5252801 26.69799169 122.52912903 28.97190857 C122.53882588 32.44847103 122.56983787 35.92444026 122.60139465 39.40086365 C122.60792545 41.60854242 122.61317562 43.81622543 122.61701965 46.02391052 C122.62936646 47.06364517 122.64171326 48.10337982 122.6544342 49.17462158 C122.6349618 55.4955409 121.97522514 59.02657703 117.78889465 63.91062927 C114.92100579 66.30053666 112.05212356 66.2914306 108.48876953 66.31452942 C107.00628471 66.32743011 107.00628471 66.32743011 105.49385071 66.34059143 C104.41067566 66.34485138 103.32750061 66.34911133 102.21150208 66.35350037 C100.4989196 66.3657666 100.4989196 66.3657666 98.7517395 66.37828064 C94.96595283 66.4031343 91.18020362 66.41964938 87.3943634 66.43406677 C85.45696006 66.44205229 85.45696006 66.44205229 83.48041725 66.45019913 C78.05278594 66.4714267 72.62516682 66.49055703 67.197505 66.50182152 C59.42568245 66.51805884 51.65435995 66.55123841 43.88272589 66.60822237 C37.75473983 66.65161925 31.62694968 66.66756915 25.49881935 66.67395401 C22.89407603 66.68067891 20.28934034 66.69593282 17.6846981 66.71984482 C14.04090047 66.75139209 10.39836865 66.75154808 6.75447083 66.74412537 C5.67736847 66.7605307 4.60026611 66.77693604 3.49052429 66.7938385 C-4.67347101 66.72570726 -4.67347101 66.72570726 -8.30270386 63.87416077 C-11.79538746 59.93897513 -12.94819261 57.56202286 -13.03337097 52.31956482 C-13.0621936 50.8823835 -13.0621936 50.8823835 -13.09159851 49.41616821 C-13.10009827 48.38695755 -13.10859802 47.35774689 -13.11735535 46.29734802 C-13.13445557 44.69933098 -13.13445557 44.69933098 -13.15190125 43.06903076 C-13.17078395 40.8155056 -13.18386237 38.56192543 -13.1915741 36.30833435 C-13.2109777 32.87074323 -13.27302702 29.43554929 -13.33610535 25.9985199 C-13.34916735 23.80647677 -13.35966754 21.61441658 -13.36735535 19.42234802 C-13.39204895 18.39921005 -13.41674255 17.37607208 -13.44218445 16.32192993 C-13.40412691 10.18690847 -12.54845912 6.81811567 -8.19584656 2.39361572 C-5.4371167 0.10265989 -3.50509221 0.02779089 0 0 Z " fill="#6E64C6" transform="translate(1250.7111053466797,389.83937072753906)"/>
<path d="M0 0 C1.11462193 -0.00525911 2.22924386 -0.01051822 3.37764221 -0.0159367 C7.13936403 -0.02997205 10.90074078 -0.02250628 14.66247749 -0.01523495 C17.37593193 -0.01917914 20.08936828 -0.02761681 22.8028127 -0.03583091 C28.71620191 -0.05130527 34.62951743 -0.0555424 40.54292488 -0.05246258 C49.33633179 -0.04789393 58.12965695 -0.06035933 66.92304799 -0.07608646 C83.5403876 -0.10512579 100.15769948 -0.11353986 116.77506147 -0.11525763 C129.60526621 -0.11663526 142.43546004 -0.12280504 155.26566124 -0.1323595 C158.95628042 -0.13505205 162.64689961 -0.13772149 166.33751881 -0.14038414 C167.25496574 -0.14104728 168.17241266 -0.14171043 169.11766101 -0.14239367 C194.92967153 -0.16086064 220.74167826 -0.1726949 246.55369568 -0.17136383 C248.01396884 -0.17129373 248.01396884 -0.17129373 249.50374247 -0.17122221 C254.43814203 -0.17097288 259.37254158 -0.17067575 264.30694114 -0.17036808 C265.28696536 -0.17030825 266.26698958 -0.17024841 267.2767115 -0.17018676 C269.25855952 -0.17006545 271.24040753 -0.16994006 273.22225555 -0.16981059 C304.06379161 -0.16797189 334.90522877 -0.19049816 365.74673653 -0.23152828 C400.38087912 -0.27758474 435.01495673 -0.30342856 469.64913189 -0.30063862 C473.34037979 -0.30041472 477.03162769 -0.3002686 480.7228756 -0.30017567 C482.08623843 -0.30012322 482.08623843 -0.30012322 483.47714394 -0.30006972 C498.11946573 -0.2999773 512.76170183 -0.31915484 527.40399812 -0.34497246 C542.11299178 -0.37037176 556.82185973 -0.37339563 571.53086315 -0.3536445 C580.27450299 -0.34253734 589.01776156 -0.34811534 597.7613612 -0.37747152 C603.59838639 -0.39541685 609.43513424 -0.39164615 615.27214649 -0.37006002 C618.600538 -0.35836803 621.92758365 -0.35950687 625.25602101 -0.38043208 C628.83952995 -0.40147623 632.42104694 -0.38584491 636.00448608 -0.36076355 C637.04032705 -0.37566809 638.07616802 -0.39057263 639.14339811 -0.40592882 C645.15751589 -0.31642132 648.50360081 0.60261898 652.89024193 4.80668462 C655.18581158 7.73533453 655.26661538 10.55583582 655.32095528 14.12931156 C655.3370182 15.09073566 655.35308113 16.05215977 655.36963081 17.04271793 C655.41417757 21.43436745 655.45513746 25.82586782 655.47818184 30.21769047 C655.49474571 32.53289686 655.52204111 34.84805202 655.56021309 37.16300297 C655.61501125 40.5044995 655.63686023 43.84479912 655.65152168 47.18668461 C655.67419106 48.21812092 655.69686043 49.24955723 655.72021675 50.31224918 C655.69665305 58.33935177 655.69665305 58.33935177 652.78286934 61.96085453 C649.24339698 65.19403266 647.28896771 66.63552597 642.54327744 66.63890302 C641.5948844 66.64442251 640.64649135 66.649942 639.66935912 66.65562874 C638.62329594 66.6515181 637.57723277 66.64740747 636.49947071 66.64317226 C635.38685687 66.64667834 634.27424303 66.65018441 633.12791362 66.65379673 C629.36105079 66.66317718 625.59434032 66.65817034 621.82747078 66.6533289 C619.11503496 66.65595644 616.4026072 66.66158161 613.69017583 66.66705954 C607.77284107 66.67738722 601.85553906 66.68019855 595.93819618 66.67814732 C587.13894655 66.67510448 578.3397333 66.68340535 569.54049073 66.69389657 C552.91246159 66.71326724 536.28444475 66.71886593 519.65640565 66.72001068 C506.81804265 66.72092877 493.97968451 66.72504021 481.14132309 66.73141193 C477.4496008 66.73320695 473.75787851 66.73498657 470.06615621 66.73676169 C468.68960532 66.73742483 468.68960532 66.73742483 467.28524532 66.73810137 C441.4618051 66.75041476 415.63836657 66.758302 389.81492329 66.75741482 C388.84075059 66.75738366 387.8665779 66.7573525 386.86288483 66.7573204 C381.92505565 66.75715418 376.98722648 66.7569561 372.04939731 66.75675099 C371.06867722 66.7567111 370.08795712 66.75667121 369.07751823 66.75663011 C367.09426195 66.75654923 365.11100566 66.75646564 363.12774938 66.75637932 C332.26643264 66.75515361 301.40515983 66.77016866 270.54385567 66.79752445 C235.89399519 66.82822559 201.24416359 66.84545813 166.59428865 66.84359801 C162.90162329 66.84344874 159.20895793 66.84335133 155.51629257 66.84328938 C154.60702359 66.84326607 153.69775462 66.84324276 152.76093204 66.84321874 C138.10902511 66.84315712 123.45715622 66.85594548 108.80526062 66.8731539 C94.08709999 66.89008297 79.3689952 66.89210567 64.65083023 66.87893526 C55.90040312 66.87152779 47.15014531 66.87525744 38.39973603 66.89481994 C32.55939382 66.90677647 26.71917485 66.90427738 20.8788384 66.88987895 C17.54790695 66.88207887 14.21757377 66.88285692 10.88662174 66.89679365 C7.30218192 66.91080357 3.71862958 66.90041503 0.13422108 66.8836813 C-0.9048186 66.89361766 -1.94385827 66.90355402 -3.014384 66.91379148 C-8.96418283 66.85465084 -12.317096 66.30810928 -16.87191582 62.38590336 C-19.65263819 59.45981957 -20.25032867 57.5318016 -20.27596855 53.52896976 C-20.28865273 52.56762119 -20.3013369 51.60627262 -20.31440544 50.61579227 C-20.31000198 49.0672707 -20.31000198 49.0672707 -20.30550957 47.48746586 C-20.31075142 46.41974949 -20.31599327 45.35203312 -20.32139397 44.25196171 C-20.32781489 41.99420891 -20.32647629 39.73642266 -20.31796074 37.4786768 C-20.30946405 34.03047633 -20.3381915 30.58393962 -20.36996269 27.13590336 C-20.37157517 24.94059135 -20.37099629 22.74527642 -20.36800957 20.54996586 C-20.37924355 19.5216666 -20.39047752 18.49336735 -20.40205193 17.43390751 C-20.34559298 11.61012027 -19.9817901 7.87092186 -15.87191582 3.38590336 C-11.06994178 -0.60491669 -5.93350293 -0.03516088 0 0 Z M-16.6581707 7.27558231 C-18.08791669 9.76146094 -18.26272453 11.29568689 -18.29183769 14.15104008 C-18.30774956 15.0923679 -18.32366142 16.03369572 -18.34005547 17.00354862 C-18.34025688 18.01402256 -18.3404583 19.0244965 -18.34066582 20.06559086 C-18.34827934 21.11111118 -18.35589287 22.15663151 -18.36373711 23.23383427 C-18.3745374 25.44449318 -18.37739151 27.65520311 -18.37289238 29.86588383 C-18.37192128 33.24191678 -18.41352042 36.615668 -18.45785332 39.99137211 C-18.46306135 42.14110696 -18.46574849 44.2908497 -18.46566582 46.44059086 C-18.48206108 47.44701633 -18.49845634 48.45344181 -18.51534843 49.49036503 C-18.47039612 54.06815476 -18.40921149 57.35675028 -15.45980644 61.00748539 C-12.15421835 64.04550795 -10.7714557 64.51081203 -6.42298096 64.51355386 C-5.00767825 64.51807781 -5.00767825 64.51807781 -3.56378356 64.52269316 C-2.51801621 64.52092369 -1.47224887 64.51915421 -0.3947916 64.51733112 C0.71359124 64.51938376 1.82197408 64.52143639 2.96394429 64.52355123 C6.72238854 64.52925935 10.4807966 64.52775931 14.23924446 64.52634525 C16.94327744 64.52837547 19.64730802 64.53190015 22.35133952 64.53534865 C29.0320269 64.54294476 35.71270629 64.54512253 42.39339753 64.54567771 C50.39123402 64.54658976 58.38906308 64.55325255 66.38689638 64.56002453 C85.71964537 64.57610296 105.05239358 64.58198977 124.38514805 64.58677328 C133.52597753 64.58910725 142.66680638 64.59270966 151.80763537 64.59646866 C183.08129717 64.6093054 214.35495863 64.6200248 245.62862301 64.62347126 C247.59268859 64.62369289 249.55675418 64.62391468 251.52081976 64.62413661 C253.48970096 64.62435725 255.45858216 64.62457774 257.42746335 64.62479806 C261.37755636 64.62524062 265.32764938 64.62568773 269.27774239 64.62613773 C270.74683824 64.62630182 270.74683824 64.62630182 272.24561281 64.62646922 C304.01449531 64.6301012 335.78335502 64.64602592 367.55222879 64.6693281 C401.11927505 64.69390432 434.68630827 64.70764306 468.25336379 64.70883918 C471.93563537 64.70901064 475.61790695 64.70922607 479.30017853 64.70947361 C480.20689513 64.70952938 481.11361173 64.70958515 482.04780459 64.70964261 C496.66183476 64.71079495 511.2758416 64.72183241 525.88986389 64.73636067 C540.56891315 64.75070163 555.24793239 64.75397626 569.92698673 64.74592069 C578.6553752 64.74145314 587.38366699 64.74536977 596.11204283 64.76115919 C601.93645099 64.770873 607.76079105 64.76976559 613.58519852 64.75972297 C616.90779567 64.7543047 620.23005394 64.75534294 623.55266068 64.76623169 C627.12642408 64.77720738 630.69968788 64.76991961 634.27343655 64.75784016 C635.31218039 64.76543535 636.35092424 64.77303054 637.42114517 64.78085589 C644.26752081 64.74293771 644.26752081 64.74293771 650.12808418 61.38590336 C654.10382232 56.85089039 653.56250132 51.72659335 653.52652168 46.01090336 C653.53082695 44.50777592 653.53082695 44.50777592 653.53521919 42.97428226 C653.53725704 40.85953041 653.53174675 38.74475959 653.51919746 36.63004398 C653.50314025 33.39719245 653.51905606 30.16559111 653.53824043 26.93277836 C653.53625795 24.87548394 653.53241418 22.81819029 653.52652168 20.76090336 C653.53259438 19.79620121 653.53866707 18.83149906 653.54492378 17.83756351 C653.49334624 12.90457559 653.45223879 9.31504845 650.12808418 5.38590336 C647.17467921 2.77484206 645.36134506 2.01083402 641.43075234 2.00985587 C640.48272261 2.00234531 639.53469287 1.99483476 638.55793497 1.98709661 C637.51742165 1.99412011 636.47690834 2.0011436 635.40486431 2.00837994 C633.73882851 2.00183945 633.73882851 2.00183945 632.03913543 1.99516684 C628.28477385 1.98414244 624.53077431 1.99466626 620.77641487 2.00495243 C618.07064993 2.003162 615.36489971 1.99685967 612.65914148 1.9907707 C606.75949593 1.97991504 600.85993267 1.9802769 594.96028328 1.98791218 C586.18742446 1.99923521 577.41463537 1.99347114 568.64177705 1.98428726 C552.97541355 1.96846812 537.30908668 1.96986796 521.64271966 1.97852399 C507.93243295 1.98606231 494.22215969 1.98804468 480.51187134 1.98445606 C479.60342843 1.98422691 478.69498553 1.98399775 477.75901405 1.98376165 C474.07159807 1.98282768 470.38418209 1.98187248 466.69676612 1.98088236 C432.08496546 1.97169927 397.47318817 1.98003525 362.86139112 1.99617305 C332.09391235 2.01040934 301.32647083 2.00913769 270.55899239 1.99479008 C236.01314374 1.97873447 201.46731576 1.97235166 166.92146391 1.98162687 C163.24034687 1.98258906 159.55922983 1.98352758 155.87811279 1.98445606 C154.51847739 1.98481191 154.51847739 1.98481191 153.13137461 1.98517495 C139.42857702 1.98859091 125.72579434 1.98458992 112.02299881 1.9770174 C96.44536836 1.96845187 80.86778038 1.97055785 65.29015524 1.98685963 C56.56620513 1.99568737 47.84234691 1.99621644 39.11839913 1.98492111 C33.29701161 1.97821358 27.47569804 1.98234494 21.65432152 1.99543542 C18.33349238 2.00259782 15.01299743 2.00332422 11.69215012 1.99421747 C8.12030293 1.98516938 4.54896523 1.9943761 0.9771452 2.00837994 C-0.06102696 2.00135644 -1.09919911 1.99433294 -2.16883102 1.98709661 C-8.39208528 2.03626911 -12.22108461 2.58158915 -16.6581707 7.27558231 Z " fill="#E8E8E8" transform="translate(567.8719158172607,389.6140966415405)"/>
<path d="M0 0 C1.55972244 -0.01652729 3.11937014 -0.04377525 4.67871094 -0.08203125 C6.92894727 -0.13696166 9.17740503 -0.1586989 11.42822266 -0.17333984 C12.12111389 -0.19600922 12.81400513 -0.21867859 13.52789307 -0.24203491 C17.47326591 -0.22492213 18.96081115 0.23214478 22.01708984 2.8203125 C23.04817871 4.07255615 23.04817871 4.07255615 24.10009766 5.35009766 C24.59509766 5.84509766 24.59509766 5.84509766 25.10009766 6.35009766 C25.39156963 10.97970567 25.41416707 15.61209438 25.45019531 20.25 C25.4667226 21.80972244 25.49397056 23.36937014 25.53222656 24.92871094 C25.58715698 27.17894727 25.60889421 29.42740503 25.62353516 31.67822266 C25.64620453 32.37111389 25.6688739 33.06400513 25.69223022 33.77789307 C25.67511744 37.72326591 25.21805053 39.21081115 22.62988281 42.26708984 C21.79505371 42.95448242 20.96022461 43.641875 20.10009766 44.35009766 C19.77009766 44.68009766 19.44009766 45.01009766 19.10009766 45.35009766 C14.47048964 45.64156963 9.83810093 45.66416707 5.20019531 45.70019531 C3.64047287 45.7167226 2.08082517 45.74397056 0.52148438 45.78222656 C-1.72875195 45.83715698 -3.97720972 45.85889421 -6.22802734 45.87353516 C-6.92091858 45.89620453 -7.61380981 45.9188739 -8.32769775 45.94223022 C-12.27307059 45.92511744 -13.76061583 45.46805053 -16.81689453 42.87988281 C-17.50428711 42.04505371 -18.19167969 41.21022461 -18.89990234 40.35009766 C-19.22990234 40.02009766 -19.55990234 39.69009766 -19.89990234 39.35009766 C-20.19137432 34.72048964 -20.21397176 30.08810093 -20.25 25.45019531 C-20.26652729 23.89047287 -20.29377525 22.33082517 -20.33203125 20.77148438 C-20.38696166 18.52124805 -20.4086989 16.27279028 -20.42333984 14.02197266 C-20.44600922 13.32908142 -20.46867859 12.63619019 -20.49203491 11.92230225 C-20.47492213 7.97692941 -20.01785522 6.48938417 -17.4296875 3.43310547 C-16.5948584 2.74571289 -15.7600293 2.05832031 -14.89990234 1.35009766 C-12.26907761 -1.28072707 -3.69685023 0.02871792 0 0 Z " fill="#FE6C6C" transform="translate(1000.89990234375,568.64990234375)"/>
<path d="M0 0 C4.43885173 2.53648671 8.30299682 4.764741 10.0625 9.75 C12.03974951 17.65899803 12.56433248 26.87298968 8.33203125 34.06640625 C5.07755546 38.38234184 1.19319984 41.0322657 -3.9375 42.75 C-10.887841 43.66073434 -16.57586579 43.39863799 -22.3203125 39.1796875 C-26.85162753 35.17374233 -29.65966763 31.19439057 -30.34375 25.17578125 C-30.62632536 17.71742199 -30.7244027 11.552647 -25.7578125 5.5234375 C-18.47409136 -1.57272001 -9.85077933 -3.87148533 0 0 Z " fill="#FAFAFD" transform="translate(866.9375,258.25)"/>
<path d="M0 0 C4.87818446 2.85997509 8.47641435 7.10057385 10.5625 12.375 C11.43069631 20.22532242 11.62578356 27.79356453 7.125 34.5703125 C2.93445857 39.41038785 -1.6277777 42.07574689 -8.0234375 42.578125 C-15.52387066 42.7041827 -20.09712266 41.7015981 -25.6875 36.5 C-29.90106886 32.35439193 -30.71708265 27.89482246 -30.80859375 22.18554688 C-30.80988281 21.44369141 -30.81117188 20.70183594 -30.8125 19.9375 C-30.83699219 19.19951172 -30.86148438 18.46152344 -30.88671875 17.70117188 C-30.91975957 11.50601839 -28.9908368 7.99422936 -24.62109375 3.51171875 C-24.04488281 3.03347656 -23.46867188 2.55523437 -22.875 2.0625 C-22.29621094 1.57136719 -21.71742188 1.08023437 -21.12109375 0.57421875 C-15.50978229 -3.42270148 -6.03453484 -2.77542538 0 0 Z " fill="#F9F9FC" transform="translate(962.4375,258.625)"/>
<path d="M0 0 C5.445 -0.0928125 5.445 -0.0928125 11 -0.1875 C12.12792969 -0.21481201 13.25585938 -0.24212402 14.41796875 -0.27026367 C21.41827744 -0.32765337 27.49703483 0.01550026 33.05859375 4.75390625 C33.74115234 5.64916016 33.74115234 5.64916016 34.4375 6.5625 C34.91058594 7.16191406 35.38367188 7.76132812 35.87109375 8.37890625 C39.56308352 13.68055246 38.86261492 21.76948244 38 28 C36.05609209 33.1860686 33.03253971 36.6478909 28.3125 39.5 C24.21310486 41.35632987 21.34755972 42.1233963 16.89453125 42.09765625 C16.00870361 42.09515869 15.12287598 42.09266113 14.21020508 42.09008789 C13.0889624 42.08098389 11.96771973 42.07187988 10.8125 42.0625 C7.244375 42.041875 3.67625 42.02125 0 42 C0 28.14 0 14.28 0 0 Z " fill="#F9F9FC" transform="translate(887,258)"/>
<path d="M0 0 C1.05058594 -0.03738281 2.10117187 -0.07476563 3.18359375 -0.11328125 C10.80503558 -0.20021785 10.80503558 -0.20021785 13.56445312 1.47949219 C14.921875 2.8359375 14.921875 2.8359375 16.75 5.375 C17.245 5.87 17.245 5.87 17.75 6.375 C18.08628631 10.11586591 18.07506728 13.87096739 18.125 17.625 C18.18107422 19.20087891 18.18107422 19.20087891 18.23828125 20.80859375 C18.32521785 28.43003558 18.32521785 28.43003558 16.64550781 31.18945312 C15.2890625 32.546875 15.2890625 32.546875 12.75 34.375 C12.42 34.705 12.09 35.035 11.75 35.375 C8.00913409 35.71128631 4.25403261 35.70006728 0.5 35.75 C-0.55058594 35.78738281 -1.60117187 35.82476563 -2.68359375 35.86328125 C-10.30503558 35.95021785 -10.30503558 35.95021785 -13.06445312 34.27050781 C-14.421875 32.9140625 -14.421875 32.9140625 -16.25 30.375 C-16.58 30.045 -16.91 29.715 -17.25 29.375 C-17.58628631 25.63413409 -17.57506728 21.87903261 -17.625 18.125 C-17.66238281 17.07441406 -17.69976563 16.02382813 -17.73828125 14.94140625 C-17.82521785 7.31996442 -17.82521785 7.31996442 -16.14550781 4.56054688 C-14.7890625 3.203125 -14.7890625 3.203125 -12.25 1.375 C-9.76289113 -1.11210887 -3.33585866 0.04437055 0 0 Z " fill="#6F66C6" transform="translate(916.25,573.625)"/>
<path d="M0 0 C3.71194997 1.64975554 5.85325399 3.56520639 8 7 C10.05388439 13.16165316 9.48496817 19.31450465 6.9921875 25.2734375 C5.09974738 28.56658133 2.321535 30.3392325 -1 32 C-8.29411765 32.35294118 -8.29411765 32.35294118 -13 30 C-13 34.95 -13 39.9 -13 45 C-16.3 45 -19.6 45 -23 45 C-23 30.48 -23 15.96 -23 1 C-19.7 1 -16.4 1 -13 1 C-13 1.66 -13 2.32 -13 3 C-12.34 2.505 -11.68 2.01 -11 1.5 C-7.17252125 -0.41373937 -4.20462736 -0.63112054 0 0 Z " fill="#F9F8FC" transform="translate(1068,269)"/>
<path d="M0 0 C4.07432176 2.07420017 6.36687753 3.743536 8 8 C8.86029572 15.56259958 8.82972623 22.80396963 4 29 C0.34972756 32.33739194 -3.17739881 32.34993924 -7.9140625 32.3984375 C-10 32 -10 32 -13 29 C-13.33 34.28 -13.66 39.56 -14 45 C-16.97 45 -19.94 45 -23 45 C-23 30.48 -23 15.96 -23 1 C-19 1 -15 1 -11 1 C-7.52817697 -0.73591152 -3.79591036 -0.46571673 0 0 Z " fill="#FBFBFD" transform="translate(1108,269)"/>
<path d="M0 0 C4.29 0 8.58 0 13 0 C13.94401042 2.89713542 14.88802083 5.79427083 15.83203125 8.69140625 C16.83215015 11.52451898 17.97448741 14.23899277 19.17700195 16.98950195 C20.89473503 21.18574399 22.26499875 25.50935948 23.6875 29.8125 C24.00783203 30.76576172 24.32816406 31.71902344 24.65820312 32.70117188 C25.11163086 34.06532227 25.11163086 34.06532227 25.57421875 35.45703125 C25.84838623 36.28178955 26.12255371 37.10654785 26.4050293 37.95629883 C27 40 27 40 27 42 C23.37 42 19.74 42 16 42 C14.68373308 38.38026598 14 35.90432869 14 32 C9.05 32 4.1 32 -1 32 C-1.33 34.31 -1.66 36.62 -2 39 C-2.33 39.99 -2.66 40.98 -3 42 C-6.63 42 -10.26 42 -14 42 C-12.37217405 32.94393032 -9.06289643 24.53379593 -5.875 15.9375 C-5.30546523 14.38886461 -4.7364503 12.84003794 -4.16796875 11.29101562 C-2.78463367 7.52511006 -1.39427449 3.76186839 0 0 Z " fill="#F8F8FC" transform="translate(1011,258)"/>
<path d="M0 0 C11.22 0 22.44 0 34 0 C34 2.64 34 5.28 34 8 C30.04 8 26.08 8 22 8 C22 19.22 22 30.44 22 42 C18.7 42 15.4 42 12 42 C12 30.78 12 19.56 12 8 C8.04 8 4.08 8 0 8 C0 5.36 0 2.72 0 0 Z " fill="#FBFBFD" transform="translate(800,258)"/>
<path d="M0 0 C4.1118254 4.1118254 5.17781524 7.05070803 5.3125 12.75 C5.26637259 18.24575177 4.78216293 21.00771691 1 25 C-1.65863745 27.10857453 -2.98701207 27.00023614 -6.4375 26.9375 C-10.68676949 25.81927119 -12.29711327 24.41835675 -15 21 C-16.37571091 16.75019242 -16.55963022 12.41571244 -16 8 C-12.29254116 0.84990081 -8.19980501 -2.81184279 0 0 Z " fill="#6B68C1" transform="translate(863,266)"/>
<path d="M0 0 C2.86942113 2.26533247 3.83907612 3.51722837 5 7 C5.1447963 8.95475009 5.22067502 10.9151138 5.25 12.875 C5.27578125 13.90367187 5.3015625 14.93234375 5.328125 15.9921875 C4.8392183 20.47383223 3.15579282 23.06287069 -0.3125 25.875 C-3.75309569 27.31524936 -5.46443189 27.1283728 -9 26 C-12.29051309 23.44071204 -13.95069711 21.02232773 -15 17 C-15.56420765 11.89648531 -15.57474845 8.1494969 -13.25 3.5 C-8.97224461 -1.25306155 -6.27930619 -1.56982655 0 0 Z " fill="#6964BE" transform="translate(957,266)"/>
<path d="M0 0 C10.44444444 0 10.44444444 0 15 3 C17.28219901 6.42329851 17.29741163 7.84137668 17.3125 11.875 C17.32925781 12.90367187 17.34601562 13.93234375 17.36328125 14.9921875 C16.83669743 19.352075 15.18953549 21.9853962 11.875 24.8125 C9 26 9 26 0 26 C0 17.42 0 8.84 0 0 Z " fill="#6A67BF" transform="translate(897,266)"/>
<path d="M0 0 C0.66 0.33 1.32 0.66 2 1 C1.51300629 1.68305206 1.02601257 2.36610413 0.52426147 3.06985474 C-1.31108418 6.59800884 -1.38037047 8.91705024 -1.38818359 12.88232422 C-1.39344055 13.55456024 -1.39869751 14.22679626 -1.40411377 14.91940308 C-1.41726692 17.13140424 -1.40859094 19.34267959 -1.3984375 21.5546875 C-1.40046007 23.1001906 -1.40337304 24.64569278 -1.40713501 26.19119263 C-1.4115524 29.42752179 -1.40514811 32.66360216 -1.39111328 35.89990234 C-1.37405021 40.034651 -1.38384766 44.16881416 -1.40183067 48.30354118 C-1.41270897 51.49500887 -1.40920322 54.68633946 -1.4014473 57.87781143 C-1.39945496 59.40154211 -1.40187041 60.92528549 -1.40888596 62.44900131 C-1.41656434 64.58596133 -1.40480765 66.7219951 -1.38818359 68.85888672 C-1.38579681 70.07180389 -1.38341003 71.28472107 -1.38095093 72.53439331 C-0.93374114 76.60277356 0.22790066 79.33307326 2 83 C-1.91304179 81.73090537 -3.85610288 80.53743024 -6 77 C-7.11107409 73.66677772 -7.15411087 71.11693539 -7.19287109 67.60424805 C-7.20104858 66.9599585 -7.20922607 66.31566895 -7.21765137 65.65185547 C-7.24244261 63.52181922 -7.25900507 61.39184934 -7.2734375 59.26171875 C-7.27876118 58.53277719 -7.28408485 57.80383564 -7.28956985 57.05280495 C-7.31627414 53.19447507 -7.33565771 49.33617725 -7.35009766 45.4777832 C-7.36343638 42.28934029 -7.39129006 39.10153745 -7.43212891 35.91333008 C-7.4815039 32.05834159 -7.50622416 28.20393353 -7.51332474 24.34864235 C-7.52002723 22.88263421 -7.53522348 21.41663852 -7.55921555 19.95081139 C-7.75838409 7.04620586 -7.75838409 7.04620586 -4.59228516 3.11645508 C-2 1 -2 1 0 0 Z " fill="#687FEA" transform="translate(879,550)"/>
<path d="M0 0 C-0.14019692 2.81288705 -0.28687955 5.62516885 -0.4375 8.4375 C-0.47681641 9.23994141 -0.51613281 10.04238281 -0.55664062 10.86914062 C-0.88671875 16.88671875 -0.88671875 16.88671875 -2 18 C-4.16480797 18.0989294 -6.33293785 18.129711 -8.5 18.125 C-9.6859375 18.12757813 -10.871875 18.13015625 -12.09375 18.1328125 C-15 18 -15 18 -16 17 C-16.23701239 14.14122091 -16.42219182 11.30116703 -16.5625 8.4375 C-16.60568359 7.63119141 -16.64886719 6.82488281 -16.69335938 5.99414062 C-16.79975262 3.99631195 -16.90040888 1.9981793 -17 0 C-11.11317342 -1.270103 -5.88682658 -1.270103 0 0 Z " fill="#FF7D7D" transform="translate(1012,583)"/>
<path d="M0 0 C1.05058594 -0.03738281 2.10117187 -0.07476563 3.18359375 -0.11328125 C10.80503558 -0.20021785 10.80503558 -0.20021785 13.56445312 1.47949219 C14.921875 2.8359375 14.921875 2.8359375 16.75 5.375 C17.245 5.87 17.245 5.87 17.75 6.375 C18.08628631 10.11586591 18.07506728 13.87096739 18.125 17.625 C18.18107422 19.20087891 18.18107422 19.20087891 18.23828125 20.80859375 C18.32521785 28.43003558 18.32521785 28.43003558 16.64550781 31.18945312 C15.2890625 32.546875 15.2890625 32.546875 12.75 34.375 C12.42 34.705 12.09 35.035 11.75 35.375 C8.00913409 35.71128631 4.25403261 35.70006728 0.5 35.75 C-0.55058594 35.78738281 -1.60117187 35.82476563 -2.68359375 35.86328125 C-10.30503558 35.95021785 -10.30503558 35.95021785 -13.06445312 34.27050781 C-14.421875 32.9140625 -14.421875 32.9140625 -16.25 30.375 C-16.58 30.045 -16.91 29.715 -17.25 29.375 C-17.58628631 25.63413409 -17.57506728 21.87903261 -17.625 18.125 C-17.66238281 17.07441406 -17.69976563 16.02382813 -17.73828125 14.94140625 C-17.82521785 7.31996442 -17.82521785 7.31996442 -16.14550781 4.56054688 C-14.7890625 3.203125 -14.7890625 3.203125 -12.25 1.375 C-9.76289113 -1.11210887 -3.33585866 0.04437055 0 0 Z M-13.3203125 3.7421875 C-16.85064718 8.55887894 -16.28402589 11.8993966 -16 17.6875 C-15.97292969 18.54279297 -15.94585938 19.39808594 -15.91796875 20.27929688 C-15.68856472 25.05608082 -15.36399416 28.51333892 -12.25 32.375 C-8.50636763 34.24681618 -4.05807994 33.68928147 0.0625 33.75 C1.01318359 33.78738281 1.96386719 33.82476563 2.94335938 33.86328125 C7.36931473 33.91895364 10.02576051 33.80521449 13.88671875 31.51171875 C16.59845531 26.94667796 16.40694685 23.02384868 16.25 17.8125 C16.25257813 16.86697266 16.25515625 15.92144531 16.2578125 14.94726562 C16.21073181 8.57106593 16.21073181 8.57106593 12.75 3.375 C8.50342903 1.95947634 4.32301022 1.80370482 -0.125 1.5 C-1.02347656 1.41492188 -1.92195312 1.32984375 -2.84765625 1.2421875 C-8.50845298 0.86323825 -8.50845298 0.86323825 -13.3203125 3.7421875 Z " fill="#6D83EA" transform="translate(916.25,573.625)"/>
<path d="M0 0 C8.20815451 -0.48283262 8.20815451 -0.48283262 11.5625 1.5625 C13.56331202 4.95518126 13.55326548 7.12714161 13 11 C11.5625 13.4375 11.5625 13.4375 9 15 C5.91795892 15.32358779 3.11556103 15.1832683 0 15 C0 10.05 0 5.1 0 0 Z " fill="#F1F0F5" transform="translate(1314,414)"/>
<path d="M0 0 C2.875 0.875 2.875 0.875 4.875 2.875 C5.54324964 7.77031713 5.808875 12.35312963 3.1875 16.625 C0.875 17.875 0.875 17.875 -1.6875 17.875 C-4.78708371 16.60337591 -5.67787366 15.92158176 -7.125 12.875 C-7.78768854 8.47862725 -7.87372011 5.08447095 -5.5 1.25 C-3.125 -0.125 -3.125 -0.125 0 0 Z " fill="#6C64B7" transform="translate(1101.125,276.125)"/>
<path d="M0 0 C2.375 0.8125 2.375 0.8125 4.375 2.8125 C4.7109375 5.52734375 4.7109375 5.52734375 4.75 8.75 C4.77835938 9.81089844 4.80671875 10.87179687 4.8359375 11.96484375 C4.375 14.8125 4.375 14.8125 2.515625 16.69921875 C0.375 17.8125 0.375 17.8125 -2.25 17.6875 C-4.625 16.8125 -4.625 16.8125 -6.625 13.8125 C-6.9609375 11.21875 -6.9609375 11.21875 -7 8.3125 C-7.02835938 7.3534375 -7.05671875 6.394375 -7.0859375 5.40625 C-6.625 2.8125 -6.625 2.8125 -4.765625 0.95703125 C-2.625 -0.1875 -2.625 -0.1875 0 0 Z " fill="#6962B7" transform="translate(1061.625,276.1875)"/>
<path d="M0 0 C1.423125 -0.061875 2.84625 -0.12375 4.3125 -0.1875 C5.51326172 -0.23970703 5.51326172 -0.23970703 6.73828125 -0.29296875 C9 0 9 0 10.76953125 1.23046875 C12.31941307 3.45934642 12.40198045 4.80195476 12.375 7.5 C12.38273437 8.2734375 12.39046875 9.046875 12.3984375 9.84375 C11.89828645 12.55044982 11.25274699 13.4335203 9 15 C6.73828125 15.29296875 6.73828125 15.29296875 4.3125 15.1875 C2.889375 15.125625 1.46625 15.06375 0 15 C0 10.05 0 5.1 0 0 Z " fill="#FBF2F4" transform="translate(1299,414)"/>
<path d="M0 0 C3.375 0.875 3.375 0.875 5.375 2.875 C5.80611339 6.75502054 5.90673772 9.02421964 3.8125 12.375 C1.375 13.875 1.375 13.875 -2.25 13.8125 C-5.625 12.875 -5.625 12.875 -7.625 9.875 C-8.08455739 6.27513378 -8.03741898 4.51837361 -6.0625 1.4375 C-3.625 -0.125 -3.625 -0.125 0 0 Z " fill="#FDFDFB" transform="translate(727.625,417.125)"/>
<path d="M0 0 C3.375 0.875 3.375 0.875 5.375 2.875 C5.80611339 6.75502054 5.90673772 9.02421964 3.8125 12.375 C1.375 13.875 1.375 13.875 -2.25 13.8125 C-5.625 12.875 -5.625 12.875 -7.625 9.875 C-8.08455739 6.27513378 -8.03741898 4.51837361 -6.0625 1.4375 C-3.625 -0.125 -3.625 -0.125 0 0 Z " fill="#FDFDFB" transform="translate(698.625,417.125)"/>
<path d="M0 0 C7 0 7 0 9.4375 1.0625 C11 3 11 3 11.5 6.4375 C11 10 11 10 9.4375 12.4375 C7 14 7 14 0 14 C0 9.38 0 4.76 0 0 Z " fill="#ABABB2" transform="translate(707,417)"/>
<path d="M0 0 C-0.14019692 2.81288705 -0.28687955 5.62516885 -0.4375 8.4375 C-0.47681641 9.23994141 -0.51613281 10.04238281 -0.55664062 10.86914062 C-0.88671875 16.88671875 -0.88671875 16.88671875 -2 18 C-4.16480797 18.0989294 -6.33293785 18.129711 -8.5 18.125 C-9.6859375 18.12757813 -10.871875 18.13015625 -12.09375 18.1328125 C-15 18 -15 18 -16 17 C-16.23701239 14.14122091 -16.42219182 11.30116703 -16.5625 8.4375 C-16.60568359 7.63119141 -16.64886719 6.82488281 -16.69335938 5.99414062 C-16.79975262 3.99631195 -16.90040888 1.9981793 -17 0 C-11.11317342 -1.270103 -5.88682658 -1.270103 0 0 Z M-14 2 C-14 6.62 -14 11.24 -14 16 C-10.37 16 -6.74 16 -3 16 C-3 11.38 -3 6.76 -3 2 C-6.63 2 -10.26 2 -14 2 Z " fill="#FFF3F3" transform="translate(1012,583)"/>
<path d="M0 0 C1.65 0 3.3 0 5 0 C5.83739781 2.1234016 6.66980283 4.2487728 7.5 6.375 C7.9640625 7.55835938 8.428125 8.74171875 8.90625 9.9609375 C10 13 10 13 10 15 C8.68 14.67 7.36 14.34 6 14 C6 13.34 6 12.68 6 12 C4.02 12 2.04 12 0 12 C-0.33 12.99 -0.66 13.98 -1 15 C-1.99 15 -2.98 15 -4 15 C-3.32584613 9.7415998 -1.75734451 4.97361654 0 0 Z " fill="#EEF4F9" transform="translate(1286,414)"/>
<path d="M0 0 C0.66 0 1.32 0 2 0 C2.33 1.65 2.66 3.3 3 5 C3.763125 5.144375 4.52625 5.28875 5.3125 5.4375 C8 6 8 6 11 7 C11 6.34 11 5.68 11 5 C11.66 5 12.32 5 13 5 C13 5.66 13 6.32 13 7 C13.66 7 14.32 7 15 7 C15 7.66 15 8.32 15 9 C14.34 9 13.68 9 13 9 C13 10.98 13 12.96 13 15 C12.34 15 11.68 15 11 15 C11 13.02 11 11.04 11 9 C10.34 9 9.68 9 9 9 C9 10.98 9 12.96 9 15 C8.34 15 7.68 15 7 15 C7 13.02 7 11.04 7 9 C5.35 9 3.7 9 2 9 C2 10.98 2 12.96 2 15 C1.34 15 0.68 15 0 15 C0 13.02 0 11.04 0 9 C-0.66 9 -1.32 9 -2 9 C-2 8.34 -2 7.68 -2 7 C-1.34 7 -0.68 7 0 7 C0 4.69 0 2.38 0 0 Z " fill="#A9A6AB" transform="translate(951,585)"/>
<path d="M0 0 C2.12472576 -0.05386629 4.24983652 -0.09273071 6.375 -0.125 C7.55835938 -0.14820313 8.74171875 -0.17140625 9.9609375 -0.1953125 C13 0 13 0 15 2 C15.26991906 4.68839385 15.08737357 7.29141936 15 10 C14.34 10 13.68 10 13 10 C13 7.36 13 4.72 13 2 C11.68 2.33 10.36 2.66 9 3 C8.67 5.31 8.34 7.62 8 10 C7.34 10 6.68 10 6 10 C6 7.36 6 4.72 6 2 C5.01 2.33 4.02 2.66 3 3 C2.67 5.31 2.34 7.62 2 10 C1.34 10 0.68 10 0 10 C0 6.7 0 3.4 0 0 Z " fill="#B7AFB0" transform="translate(763,421)"/>
<path d="M0 0 C0.66 0.33 1.32 0.66 2 1 C2.62669199 3.16467461 3.15427374 5.35864524 3.625 7.5625 C3.88539063 8.76003906 4.14578125 9.95757812 4.4140625 11.19140625 C4.60742188 12.11824219 4.80078125 13.04507812 5 14 C2.03 14 -0.94 14 -4 14 C-3.46148032 8.72250715 -2.22656164 4.74354436 0 0 Z " fill="#6762B2" transform="translate(1017,269)"/>
<path d="M0 0 C3.375 0.875 3.375 0.875 5.375 2.875 C5.80611339 6.75502054 5.90673772 9.02421964 3.8125 12.375 C1.375 13.875 1.375 13.875 -2.25 13.8125 C-5.625 12.875 -5.625 12.875 -7.625 9.875 C-8.08455739 6.27513378 -8.03741898 4.51837361 -6.0625 1.4375 C-3.625 -0.125 -3.625 -0.125 0 0 Z M-5.625 3.875 C-5.95833333 6.875 -5.95833333 6.875 -5.625 9.875 C-3.72744856 12.22473818 -3.72744856 12.22473818 -0.5 12 C0.44875 11.95875 1.3975 11.9175 2.375 11.875 C3.86606457 8.89287087 3.49441467 6.15890342 3.375 2.875 C2.26333136 1.54312207 2.26333136 1.54312207 -0.5625 1.6875 C-3.73392859 1.54221267 -3.73392859 1.54221267 -5.625 3.875 Z " fill="#ABA8AE" transform="translate(727.625,417.125)"/>
<path d="M0 0 C3.375 0.875 3.375 0.875 5.375 2.875 C5.80611339 6.75502054 5.90673772 9.02421964 3.8125 12.375 C1.375 13.875 1.375 13.875 -2.25 13.8125 C-5.625 12.875 -5.625 12.875 -7.625 9.875 C-8.08455739 6.27513378 -8.03741898 4.51837361 -6.0625 1.4375 C-3.625 -0.125 -3.625 -0.125 0 0 Z M-5.625 3.875 C-5.95833333 6.875 -5.95833333 6.875 -5.625 9.875 C-3.72744856 12.22473818 -3.72744856 12.22473818 -0.5 12 C0.44875 11.95875 1.3975 11.9175 2.375 11.875 C3.86606457 8.89287087 3.49441467 6.15890342 3.375 2.875 C2.26333136 1.54312207 2.26333136 1.54312207 -0.5625 1.6875 C-3.73392859 1.54221267 -3.73392859 1.54221267 -5.625 3.875 Z " fill="#ABA8AE" transform="translate(698.625,417.125)"/>
<path d="M0 0 C6.8359375 -0.1953125 6.8359375 -0.1953125 9 0 C11 2 11 2 11.125 5.625 C11.08375 6.73875 11.0425 7.8525 11 9 C10.34 9 9.68 9 9 9 C8.6596875 7.7934375 8.6596875 7.7934375 8.3125 6.5625 C7.879375 5.716875 7.44625 4.87125 7 4 C4.45224694 3.10613836 4.45224694 3.10613836 2 3 C2.02320313 3.61488281 2.04640625 4.22976563 2.0703125 4.86328125 C2.08835937 5.67152344 2.10640625 6.47976563 2.125 7.3125 C2.14820313 8.11300781 2.17140625 8.91351563 2.1953125 9.73828125 C2 12 2 12 0 15 C0 10.05 0 5.1 0 0 Z " fill="#F9FCFD" transform="translate(1299,414)"/>
<path d="M0 0 C2.5 0.25 2.5 0.25 4.5 2.25 C4.5 3.57 4.5 4.89 4.5 6.25 C2.19 6.25 -0.12 6.25 -2.5 6.25 C-2.5 6.91 -2.5 7.57 -2.5 8.25 C-0.52 8.25 1.46 8.25 3.5 8.25 C3.5 8.91 3.5 9.57 3.5 10.25 C0.625 10.375 0.625 10.375 -2.5 10.25 C-4.5 8.25 -4.5 8.25 -4.75 5.25 C-4.43608753 1.48305032 -3.83691092 0.38369109 0 0 Z " fill="#BBBABD" transform="translate(655.5,420.75)"/>
<path d="M0 0 C1.65 0 3.3 0 5 0 C7 2 7 2 7.25 5 C7 8 7 8 5 10 C3.35 10 1.7 10 0 10 C0 6.7 0 3.4 0 0 Z " fill="#FFFEFD" transform="translate(709,419)"/>
<path d="M0 0 C0.66 0 1.32 0 2 0 C2.66 1.32 3.32 2.64 4 4 C4.66 2.68 5.32 1.36 6 0 C6.66 0 7.32 0 8 0 C8.66 1.98 9.32 3.96 10 6 C10.66 4.02 11.32 2.04 12 0 C12.66 0 13.32 0 14 0 C13.01 3.3 12.02 6.6 11 10 C10.34 10 9.68 10 9 10 C7.375 8 7.375 8 6 6 C5.67 7.32 5.34 8.64 5 10 C4.01 10 3.02 10 2 10 C1.34 6.7 0.68 3.4 0 0 Z " fill="#B3ACB0" transform="translate(661,421)"/>
<path d="M0 0 C2.31 0 4.62 0 7 0 C7 0.66 7 1.32 7 2 C5.35 2 3.7 2 2 2 C2 3.32 2 4.64 2 6 C3.65 6 5.3 6 7 6 C7 6.66 7 7.32 7 8 C5.35 8 3.7 8 2 8 C2 9.32 2 10.64 2 12 C3.65 12 5.3 12 7 12 C7 12.66 7 13.32 7 14 C4.69 14 2.38 14 0 14 C0 9.38 0 4.76 0 0 Z " fill="#ADAFB7" transform="translate(574,417)"/>
<path d="M0 0 C0.33 0 0.66 0 1 0 C1 4.62 1 9.24 1 14 C6.94 13.505 6.94 13.505 13 13 C13.33 8.71 13.66 4.42 14 0 C14.33 0 14.66 0 15 0 C15.02685095 2.47923801 15.04676547 4.9581884 15.0625 7.4375 C15.07087891 8.14455078 15.07925781 8.85160156 15.08789062 9.58007812 C15.09653588 11.38693559 15.05220011 13.19387603 15 15 C14 16 14 16 11.09375 16.1328125 C9.9078125 16.13023437 8.721875 16.12765625 7.5 16.125 C6.3140625 16.12757813 5.128125 16.13015625 3.90625 16.1328125 C1 16 1 16 0 15 C-0.07313567 12.46950598 -0.09247527 9.96695163 -0.0625 7.4375 C-0.05798828 6.72658203 -0.05347656 6.01566406 -0.04882812 5.28320312 C-0.03700864 3.52209987 -0.01907263 1.76103964 0 0 Z " fill="#FFE8E8" transform="translate(996,585)"/>
<path d="M0 0 C0.33 1.32 0.66 2.64 1 4 C-1.31 4 -3.62 4 -6 4 C-5.67 4.66 -5.34 5.32 -5 6 C-2.47266765 6.65555119 -2.47266765 6.65555119 0 7 C0 7.66 0 8.32 0 9 C-2.875 9.1875 -2.875 9.1875 -6 9 C-8 6 -8 6 -7.75 2.875 C-7.37875 1.451875 -7.37875 1.451875 -7 0 C-4.3333581 -1.33332095 -2.83319697 -0.67102033 0 0 Z " fill="#ADA9A8" transform="translate(760,422)"/>
<path d="M0 0 C0.33 1.32 0.66 2.64 1 4 C-1.31 4 -3.62 4 -6 4 C-5.67 4.66 -5.34 5.32 -5 6 C-2.47266765 6.65555119 -2.47266765 6.65555119 0 7 C0 7.66 0 8.32 0 9 C-2.875 9.1875 -2.875 9.1875 -6 9 C-8 6 -8 6 -7.75 2.875 C-7.37875 1.451875 -7.37875 1.451875 -7 0 C-4.3333581 -1.33332095 -2.83319697 -0.67102033 0 0 Z " fill="#ADA9A8" transform="translate(609,422)"/>
<path d="M0 0 C4.875 0.875 4.875 0.875 6 2 C5.71269945 4.33944736 5.38063221 6.6739143 5 9 C3.35 9 1.7 9 0 9 C0 6.03 0 3.06 0 0 Z " fill="#6D69CB" transform="translate(1302,417)"/>
<path d="M0 0 C3.375 -0.125 3.375 -0.125 7 0 C9 2 9 2 9.1953125 3.9453125 C9.13020833 5.96354167 9.06510417 7.98177083 9 10 C8.34 10 7.68 10 7 10 C7 7.36 7 4.72 7 2 C5.68 2.33 4.36 2.66 3 3 C2.67 5.31 2.34 7.62 2 10 C1.34 10 0.68 10 0 10 C0 6.7 0 3.4 0 0 Z " fill="#B5ABAD" transform="translate(640,421)"/>
<path d="M0 0 C2.475 0.495 2.475 0.495 5 1 C5.625 3.3125 5.625 3.3125 6 6 C5.01 7.485 5.01 7.485 4 9 C2.68 9 1.36 9 0 9 C0 6.03 0 3.06 0 0 Z " fill="#7069C7" transform="translate(1318,417)"/>
<path d="M0 0 C0.66 0 1.32 0 2 0 C2 0.66 2 1.32 2 2 C0.52460414 3.24588984 -0.95449544 4.48812639 -2.46484375 5.69140625 C-4.3047996 7.25981645 -5.66183579 8.99275368 -7 11 C-10.36720387 9.60667426 -11.9859524 8.0210714 -14 5 C-13.01 4.67 -12.02 4.34 -11 4 C-10.01 5.485 -10.01 5.485 -9 7 C-6.12018877 5.82674357 -4.62061333 4.62061333 -2.375 2.375 C-1.59125 1.59125 -0.8075 0.8075 0 0 Z " fill="#E6E4F5" transform="translate(923,587)"/>
<path d="M0 0 C2.97 0.495 2.97 0.495 6 1 C6 3.97 6 6.94 6 10 C3.69 10 1.38 10 -1 10 C-1 9.01 -1 8.02 -1 7 C0.65 7.33 2.3 7.66 4 8 C4 7.01 4 6.02 4 5 C3.34 4.67 2.68 4.34 2 4 C2.66 4 3.32 4 4 4 C4 3.34 4 2.68 4 2 C2.35 2 0.7 2 -1 2 C-0.67 1.34 -0.34 0.68 0 0 Z " fill="#A9A7AD" transform="translate(626,421)"/>
<path d="M0 0 C3.3 0 6.6 0 10 0 C10 0.66 10 1.32 10 2 C8.68 2 7.36 2 6 2 C6 5.96 6 9.92 6 14 C5.34 14 4.68 14 4 14 C4 9.71 4 5.42 4 1 C2.68 0.67 1.36 0.34 0 0 Z " fill="#ABADBA" transform="translate(681,417)"/>
<path d="M0 0 C2.33294775 -0.04241723 4.66702567 -0.04092937 7 0 C8 1 8 1 8.09765625 3.06640625 C8.08605469 3.89011719 8.07445312 4.71382813 8.0625 5.5625 C8.05347656 6.38878906 8.04445313 7.21507812 8.03515625 8.06640625 C8.02355469 8.70449219 8.01195312 9.34257812 8 10 C7.34 10 6.68 10 6 10 C6 7.36 6 4.72 6 2 C4.68 2.33 3.36 2.66 2 3 C1.67 5.31 1.34 7.62 1 10 C0.67 10 0.34 10 0 10 C0 6.7 0 3.4 0 0 Z " fill="#ABA7AC" transform="translate(584,421)"/>
<path d="M0 0 C0.99 0 1.98 0 3 0 C3 3.3 3 6.6 3 10 C2.01 10 1.02 10 0 10 C0 6.7 0 3.4 0 0 Z " fill="#FFCBCB" transform="translate(1000,587)"/>
<path d="M0 0 C0.99 0 1.98 0 3 0 C3 3.3 3 6.6 3 10 C2.01 10 1.02 10 0 10 C0 6.7 0 3.4 0 0 Z " fill="#FFD7D7" transform="translate(1004,587)"/>
<path d="M0 0 C0.33 0.99 0.66 1.98 1 3 C-1.31 3 -3.62 3 -6 3 C-6.33 2.01 -6.66 1.02 -7 0 C-4.3333581 -1.33332095 -2.83319697 -0.67102033 0 0 Z " fill="#C8C8C9" transform="translate(760,422)"/>
<path d="M0 0 C0.33 0.99 0.66 1.98 1 3 C-1.31 3 -3.62 3 -6 3 C-6.33 2.01 -6.66 1.02 -7 0 C-4.3333581 -1.33332095 -2.83319697 -0.67102033 0 0 Z " fill="#C8C8C9" transform="translate(609,422)"/>
<path d="M0 0 C0.33 0.99 0.66 1.98 1 3 C1.99 3.33 2.98 3.66 4 4 C3.01 4 2.02 4 1 4 C1 6.31 1 8.62 1 11 C1.99 11 2.98 11 4 11 C4 11.66 4 12.32 4 13 C2.68 13 1.36 13 0 13 C0 10.03 0 7.06 0 4 C-0.66 3.67 -1.32 3.34 -2 3 C-1.34 3 -0.68 3 0 3 C0 2.01 0 1.02 0 0 Z " fill="#A3A1A8" transform="translate(747,418)"/>
<path d="M0 0 C0.33 0.99 0.66 1.98 1 3 C1.99 3.33 2.98 3.66 4 4 C3.01 4 2.02 4 1 4 C1 6.31 1 8.62 1 11 C1.99 11 2.98 11 4 11 C4 11.66 4 12.32 4 13 C2.68 13 1.36 13 0 13 C0 10.03 0 7.06 0 4 C-0.66 3.67 -1.32 3.34 -2 3 C-1.34 3 -0.68 3 0 3 C0 2.01 0 1.02 0 0 Z " fill="#A3A1A8" transform="translate(596,418)"/>
<path d="M0 0 C0.99 0.33 1.98 0.66 3 1 C2.67 3.97 2.34 6.94 2 10 C1.34 10 0.68 10 0 10 C0 6.7 0 3.4 0 0 Z " fill="#BFADA9" transform="translate(612,421)"/>
<path d="M0 0 C0.99 0 1.98 0 3 0 C3.33 1.98 3.66 3.96 4 6 C2.68 6 1.36 6 0 6 C-0.38218767 4.34385343 -0.71395102 2.67542976 -1 1 C-0.67 0.67 -0.34 0.34 0 0 Z " fill="#BBB7E6" transform="translate(1287,417)"/>
<path d="M0 0 C0 0.99 0 1.98 0 3 C-1.65 3 -3.3 3 -5 3 C-5.33 2.01 -5.66 1.02 -6 0 C-3.50907189 -1.24546405 -2.58919267 -0.7767578 0 0 Z " fill="#D4D3D1" transform="translate(630,426)"/>
<path d="M0 0 C4.75 1.875 4.75 1.875 7 3 C7 3.66 7 4.32 7 5 C4.625 4.75 4.625 4.75 2 4 C0.6875 1.9375 0.6875 1.9375 0 0 Z " fill="#7B8FEB" transform="translate(901,604)"/>
<path d="M0 0 C1.32 0 2.64 0 4 0 C4.33 1.65 4.66 3.3 5 5 C4.34 5 3.68 5 3 5 C3 4.34 3 3.68 3 3 C2.01 3 1.02 3 0 3 C0 2.01 0 1.02 0 0 Z " fill="#FDF8F8" transform="translate(1287,414)"/>
</svg>
