<?xml version="1.0" encoding="UTF-8"?>
<svg version="1.1" xmlns="http://www.w3.org/2000/svg" width="1860" height="905">
<path d="M0 0 C613.8 0 1227.6 0 1860 0 C1860 298.65 1860 597.3 1860 905 C1246.2 905 632.4 905 0 905 C0 606.35 0 307.7 0 0 Z " fill="#6C64C5" transform="translate(0,0)"/>
<path d="M0 0 C0.99476752 -0.00465992 1.98953504 -0.00931984 3.01444703 -0.01412097 C6.35645553 -0.0260965 9.69805941 -0.01666541 13.04007149 -0.00736332 C15.45683418 -0.0115351 17.87359491 -0.01701176 20.29035199 -0.02368313 C25.54938485 -0.03514834 30.80829843 -0.03726034 36.06733131 -0.0311327 C43.88776207 -0.02204494 51.70811026 -0.03007101 59.52853468 -0.04142394 C73.49607774 -0.06109983 87.46358371 -0.06343648 101.43113732 -0.05822874 C113.65555522 -0.05367312 125.87995842 -0.05426879 138.10437584 -0.06006908 C139.74358266 -0.06082595 141.38278948 -0.06158193 143.0219963 -0.06233703 C145.49208015 -0.06348221 147.96216401 -0.06463209 150.43224785 -0.06579627 C173.39995734 -0.07650289 196.36766193 -0.08122487 219.33537292 -0.07332611 C220.63432348 -0.07288035 220.63432348 -0.07288035 221.95951545 -0.07242559 C228.99195689 -0.0699766 236.02439827 -0.06736504 243.05683964 -0.06474145 C270.48837678 -0.05463899 297.9198527 -0.06299374 325.3513813 -0.086236 C356.16646601 -0.1123028 386.98151386 -0.12515806 417.79661 -0.11804825 C421.08175476 -0.11733218 424.36689952 -0.11665779 427.6520443 -0.1160078 C428.8653851 -0.11575309 428.8653851 -0.11575309 430.10323785 -0.11549323 C442.31870631 -0.11318935 454.53414057 -0.12117148 466.74960136 -0.13429928 C480.64062938 -0.14920111 494.5315772 -0.15006636 508.42260347 -0.13222837 C516.19706074 -0.12265611 523.97133105 -0.124119 531.74577589 -0.14146306 C537.54881113 -0.15317032 543.3516906 -0.1439956 549.15471591 -0.12664068 C551.50391017 -0.12286128 553.85312695 -0.12585809 556.20230125 -0.13625234 C559.39266931 -0.14936663 562.58204438 -0.13788751 565.77236938 -0.12025452 C567.14412294 -0.13473028 567.14412294 -0.13473028 568.5435887 -0.14949849 C576.24112322 -0.06199837 581.86881499 2.32514042 588.26202583 6.50531673 C594.71841123 13.25517419 596.76005081 20.49944348 596.63843822 29.64373016 C596.64540583 30.63182898 596.65237344 31.61992779 596.65955219 32.63796899 C596.67675781 35.93949343 596.65844989 39.23983814 596.64021492 42.54134274 C596.64526145 44.93594867 596.6524911 47.33055083 596.66171306 49.72514433 C596.67669535 54.92650777 596.67618129 60.12763071 596.66188622 65.32898617 C596.64068726 73.06358919 596.64816741 80.79798143 596.66126143 88.53259291 C596.68370466 102.3474781 596.67773049 116.16224086 596.65982533 129.97712615 C596.64425417 142.06616403 596.63840624 154.15515899 596.64216614 166.24420643 C596.64252134 167.44733785 596.64252134 167.44733785 596.64288372 168.67477495 C596.64385865 171.9307501 596.64487946 175.18672522 596.64596882 178.44270033 C596.65605013 208.98123848 596.63779168 239.51970126 596.60624846 270.05822169 C596.57838547 297.18815569 596.57342563 324.31800006 596.58844185 351.44794369 C596.59226431 358.39577161 596.59605911 365.34359954 596.59961224 372.29142761 C596.60005005 373.14679575 596.60048786 374.0021639 596.60093895 374.88345229 C596.61217887 397.55600765 596.60482982 420.22855642 596.59173149 442.90110964 C596.59034292 445.34070834 596.58896222 447.78030704 596.58759307 450.21990575 C596.58668369 451.83825596 596.58576102 453.45660615 596.58482496 455.07495634 C596.57802965 467.15690103 596.5806889 479.23881983 596.58777237 491.32076359 C596.59573838 505.05801747 596.58917438 518.79518114 596.56359733 532.53241522 C596.54967377 540.22023134 596.54669092 547.90786583 596.55953204 555.59568488 C596.56787079 561.33412728 596.55531356 567.07237154 596.53455781 572.81077545 C596.52938828 575.13363106 596.53097869 577.45651342 596.53995246 579.77935744 C596.551128 582.93417957 596.53773094 586.08798454 596.51818371 589.24274445 C596.53180193 590.59877258 596.53180193 590.59877258 596.54569528 591.98219523 C596.43896648 600.80546245 593.33357768 608.20243652 587.01202583 614.38031673 C582.26003779 617.2874153 577.52759957 619.50282338 571.89348787 619.51026857 C571.04932576 619.51379699 570.20516365 619.51732541 569.33542088 619.52096075 C568.40601396 619.51976297 567.47660705 619.5185652 566.51903629 619.51733112 C565.52918375 619.51998295 564.5393312 619.52263478 563.51948312 619.52536696 C560.17022181 619.53308588 556.820997 619.53362012 553.47172737 619.53421688 C551.0591314 619.5382298 548.6465361 619.54266773 546.23394161 619.54749644 C540.27782481 619.55822729 534.3217193 619.56422243 528.36559551 619.56820531 C521.23393474 619.57321148 514.10228542 619.58393857 506.97063141 619.59468705 C489.7309314 619.62032716 472.49122693 619.63535469 455.25151332 619.64819752 C449.54189305 619.65245139 443.83227311 619.6570171 438.12265325 619.66178083 C407.7714439 619.68704058 377.42023401 619.70909114 347.06901646 619.72150898 C340.03561527 619.72443036 333.00221409 619.72739787 325.96881294 619.73041439 C325.09499137 619.7307853 324.22116981 619.73115621 323.32086879 619.73153836 C294.98872498 619.74369419 266.65664328 619.77463828 238.32452864 619.81633591 C209.20320055 619.85911697 180.08190526 619.88574917 150.96054488 619.89098369 C146.84790945 619.89172415 142.73527407 619.89263484 138.6226387 619.89364147 C137.40852003 619.89392739 137.40852003 619.89392739 136.1698737 619.89421909 C123.14036675 619.89773353 110.11093755 619.91803544 97.08145915 619.94443811 C83.98528437 619.97057582 70.88919949 619.9783131 57.79300236 619.96733682 C50.01205998 619.96135789 42.23142242 619.96928258 34.45052614 619.99716766 C28.64074266 620.01644816 22.83118086 620.00960562 17.02138377 619.99259849 C14.6706996 619.98978828 12.31998698 619.99545328 9.96934872 620.01041143 C6.77434789 620.02950081 3.58086941 620.01773834 0.38590336 619.99834919 C-0.98362477 620.01762302 -0.98362477 620.01762302 -2.38082013 620.03728622 C-9.81717452 619.93810432 -16.30943292 617.68329329 -21.91034183 612.6542153 C-28.31421381 605.94912883 -29.43437365 598.25959972 -29.37108421 589.36579227 C-29.37604373 588.38030075 -29.38100324 587.39480922 -29.38611305 586.37945431 C-29.39907322 583.07501457 -29.39068291 579.77097861 -29.38238335 576.46652889 C-29.38727203 574.07436425 -29.39346172 571.68220197 -29.40084124 569.29004371 C-29.41383598 564.087845 -29.41749041 558.88572582 -29.41288185 553.6835165 C-29.40604645 545.94753096 -29.41631152 538.21163338 -29.42983941 530.47566006 C-29.45474891 515.85524415 -29.45926846 501.23486476 -29.45737344 486.61443104 C-29.45600041 475.32465566 -29.45981783 464.03489295 -29.46729851 452.74512005 C-29.46834884 451.1231621 -29.46939646 449.50120415 -29.47044137 447.8792462 C-29.47096072 447.07411436 -29.47148006 446.26898252 -29.47201514 445.43945275 C-29.47253528 444.63284872 -29.47305542 443.8262447 -29.47359133 442.99519813 C-29.47411532 442.18724494 -29.47463931 441.37929175 -29.47517918 440.54685513 C-29.48976255 417.82242306 -29.49804491 395.09799565 -29.49342918 372.373559 C-29.49325723 371.51688036 -29.49308527 370.66020172 -29.49290811 369.77756312 C-29.49201922 365.43557077 -29.49107441 361.09357843 -29.4901101 356.75158609 C-29.48991907 355.88925178 -29.48972803 355.02691747 -29.48953121 354.13845181 C-29.48914412 352.39460257 -29.48875379 350.65075334 -29.48836023 348.90690411 C-29.48238976 321.77056541 -29.49783054 294.63431198 -29.52996635 267.49799252 C-29.56604036 237.01030222 -29.58537644 206.52266599 -29.58042765 176.034953 C-29.57995767 172.78435032 -29.57954742 169.53374764 -29.57917595 166.28314495 C-29.57907356 165.48276391 -29.57897118 164.68238286 -29.57886569 163.85774784 C-29.57767074 151.77405067 -29.58963956 139.6904119 -29.60832024 127.60673046 C-29.62955435 113.86469662 -29.63341002 100.12278533 -29.61402065 86.38074602 C-29.60369204 78.69087956 -29.60717042 71.001312 -29.6305515 63.31147254 C-29.64646168 57.56965591 -29.63623658 51.82812292 -29.61583048 46.08633147 C-29.61163115 43.76339261 -29.61588921 41.44041998 -29.62942642 39.11751677 C-29.64657546 35.95998075 -29.63289447 32.80400094 -29.61159325 29.64652348 C-29.62387077 28.74456004 -29.6361483 27.8425966 -29.64879787 26.91330093 C-29.54458415 19.51898765 -27.28264966 12.98920827 -22.23259768 7.45752848 C-15.53545317 1.19419421 -8.86307939 -0.06496663 0 0 Z " fill="#F4F6F9" transform="translate(676.9879741668701,161.61968326568604)"/>
<path d="M0 0 C1.28743309 -0.00654048 1.28743309 -0.00654048 2.60087493 -0.0132131 C5.49065751 -0.02420308 8.37996634 -0.01372984 11.26974583 -0.00342751 C13.35693643 -0.00688259 15.4441252 -0.01164614 17.53131014 -0.01760924 C23.27767544 -0.03016948 29.02389189 -0.02392601 34.77025783 -0.01465058 C40.96326369 -0.00788093 47.1562434 -0.01833098 53.34924412 -0.02659035 C64.78397799 -0.03917958 76.21864526 -0.03806008 87.65337881 -0.02985594 C98.21691823 -0.02231395 108.78044019 -0.02033698 119.34398174 -0.02392387 C120.04425877 -0.02415303 120.74453579 -0.02438218 121.46603333 -0.02461828 C124.30858466 -0.02555228 127.15113599 -0.02650747 129.9936873 -0.02749758 C156.66870007 -0.03667818 183.34368251 -0.02834866 210.0186906 -0.01220688 C233.72401974 0.00202877 257.42930053 0.00075777 281.13462925 -0.01358986 C307.75885258 -0.02965023 334.38304909 -0.03602558 361.00727659 -0.02675307 C363.84500602 -0.0257909 366.68273546 -0.02485238 369.5204649 -0.02392387 C370.219202 -0.02368664 370.9179391 -0.02344941 371.63785006 -0.02320499 C382.19472079 -0.01979096 392.75157216 -0.02378643 403.30844021 -0.03136253 C415.31151848 -0.03993348 427.31452718 -0.03752122 439.31760328 -0.0215203 C445.44484554 -0.01362219 451.57198956 -0.01057222 457.69923115 -0.02046776 C463.30434555 -0.0293833 468.9092703 -0.02453366 474.51436741 -0.0085351 C476.54593789 -0.00517395 478.57752428 -0.00691115 480.6090846 -0.01416247 C483.36376017 -0.02324331 486.11778029 -0.01397061 488.87242126 0 C489.66702874 -0.0070235 490.46163621 -0.014047 491.2803227 -0.02128333 C496.0786108 0.02758072 499.32828805 0.75944353 503.4991312 3.37752342 C508.08688839 8.39765472 508.08768319 12.91864882 508.0303812 19.37752342 C508.03420811 20.33142967 508.03803501 21.28533592 508.04197788 22.26814842 C508.04469156 24.27857587 508.03736857 26.28903895 508.02061558 28.29939842 C507.99919829 31.36791129 508.02043587 34.43408294 508.0460062 37.50252342 C508.04336283 39.4608619 508.03823766 41.41919892 508.0303812 43.37752342 C508.03847813 44.29017967 508.04657505 45.20283592 508.05491734 46.14314842 C507.97371858 51.6885306 507.330843 55.06972061 503.4991312 59.37752342 C499.19510561 62.71518355 495.23050763 62.80211808 489.98264503 62.75784016 C489.12266793 62.76250008 488.26269083 62.76715999 487.37665382 62.77196112 C484.48113316 62.78395763 481.58607769 62.77449773 478.69055271 62.76520348 C476.59923689 62.76937435 474.50792333 62.7748505 472.416614 62.78152329 C466.65885168 62.7960289 460.90123188 62.79171721 455.14346159 62.78435647 C448.93818227 62.77963975 442.73293446 62.79212136 436.52766514 62.80237389 C425.07026424 62.81860038 413.61292674 62.82100112 402.15551974 62.81606889 C391.5710402 62.81151461 380.98657764 62.81210728 370.40209866 62.81790924 C368.98321142 62.8186661 367.56432419 62.81942208 366.14543695 62.82017719 C364.00739503 62.82132236 361.86935312 62.82247223 359.7313112 62.82363643 C339.84939723 62.83434408 319.96748891 62.83906394 300.0855732 62.83116627 C299.33584444 62.83086909 298.58611567 62.83057192 297.81366786 62.83026574 C291.72504382 62.82781672 285.63641985 62.82520518 279.54779589 62.82258161 C255.79546349 62.81247824 232.04320179 62.8208352 208.29087925 62.84407616 C181.61391597 62.87013646 154.93699525 62.88300001 128.26001877 62.87588841 C125.41667236 62.87517233 122.57332594 62.87449794 119.72997952 62.87384796 C119.02985926 62.87367815 118.32973901 62.87350834 117.60840299 62.87333339 C107.03059193 62.87102847 96.45282033 62.87901656 85.87501812 62.89213943 C73.84813797 62.9070333 61.82137559 62.90754186 49.79448933 62.89006852 C43.65506644 62.88152795 37.51582055 62.87948342 31.37640667 62.89472008 C25.76014222 62.90848616 20.14420776 62.90390856 14.5279628 62.88448084 C12.49235374 62.8806956 10.45671875 62.88371474 8.42113263 62.89409249 C5.66083939 62.90716815 2.90170108 62.89576347 0.14145851 62.87809467 C-1.05285922 62.89257044 -1.05285922 62.89257044 -2.27130458 62.90733865 C-7.45111091 62.83893876 -10.38505694 61.78740196 -14.5008688 58.37752342 C-18.03124369 53.33639622 -17.95401138 48.52812092 -17.93446255 42.59627342 C-17.9397044 41.66456322 -17.94494625 40.73285301 -17.95034695 39.77290916 C-17.95674982 37.80958106 -17.95545269 35.8462145 -17.94691372 33.88289452 C-17.93839551 30.88691774 -17.96720249 27.89284378 -17.99891567 24.89705467 C-18.00052773 22.98429482 -17.99995007 21.07153162 -17.99696255 19.15877342 C-18.00819653 18.26799095 -18.0194305 17.37720848 -18.03100491 16.4594326 C-17.96969575 10.96260455 -17.28761237 7.65336271 -13.5008688 3.37752342 C-9.2006613 0.04248675 -5.24351398 -0.04621102 0 0 Z " fill="#F8F8F8" transform="translate(715.5008687973022,386.6224765777588)"/>
<path d="M0 0 C0.85965738 -0.00320648 1.71931476 -0.00641296 2.60502237 -0.0097166 C5.51140171 -0.01807697 8.41757821 -0.01207132 11.32396126 -0.00622082 C13.41838694 -0.00923875 15.51281151 -0.01312642 17.60723412 -0.01781338 C23.38282132 -0.02814833 29.15834683 -0.02589765 34.93393922 -0.02163279 C41.15490604 -0.01917548 47.37585761 -0.02816731 53.59681892 -0.03567028 C65.79225619 -0.04844722 77.98766455 -0.05021311 90.18310605 -0.04787002 C100.09193893 -0.04603925 110.00076533 -0.0477924 119.9095974 -0.05209446 C121.33185338 -0.05269685 122.75410937 -0.05329805 124.17636535 -0.05389806 C126.31942515 -0.05480529 128.46248494 -0.05571395 130.60554473 -0.05663041 C150.53818267 -0.06506353 170.47081817 -0.06939318 190.40345764 -0.06522369 C191.53126095 -0.06498913 191.53126095 -0.06498913 192.68184816 -0.06474983 C196.49284291 -0.06394401 200.30383765 -0.06309824 204.11483239 -0.06223653 C204.87174273 -0.06206544 205.62865307 -0.06189435 206.4085001 -0.06171808 C207.93915789 -0.06137142 209.46981568 -0.06102289 211.00047348 -0.06067249 C234.81959057 -0.05531481 258.63867065 -0.06324556 282.45778084 -0.08170605 C309.20320075 -0.1024101 335.94859773 -0.11315178 362.69402611 -0.10913056 C365.54440697 -0.1087352 368.39478782 -0.10837366 371.24516869 -0.10803318 C371.94703251 -0.10794245 372.64889634 -0.10785172 373.37202877 -0.10775824 C383.97960064 -0.10659097 394.5871494 -0.11325037 405.1947155 -0.1238451 C417.2553254 -0.13587864 429.31587029 -0.13719836 441.37648545 -0.12505493 C447.53397137 -0.11914459 453.69135749 -0.11812606 459.8488369 -0.13005733 C465.48049681 -0.14084321 471.11197271 -0.13790037 476.74362375 -0.12379565 C478.78600511 -0.12112847 480.82840056 -0.12357793 482.87076817 -0.13153151 C485.63764245 -0.14156252 488.40386778 -0.13328011 491.17071533 -0.12025452 C491.97173021 -0.12756386 492.77274508 -0.13487321 493.59803313 -0.14240405 C499.57228129 -0.08373007 502.64914629 1.38682311 506.99269295 5.32088184 C509.49131741 9.58618537 509.26657264 13.33223098 509.20729256 18.19197559 C509.20874779 19.14966846 509.21020302 20.10736134 509.21170235 21.0940752 C509.21004566 23.11469541 509.19851025 25.13532853 509.17775154 27.15584278 C509.14879745 30.24395465 509.15714766 33.33034883 509.17018318 36.41853809 C509.16394533 38.38469225 509.15555403 40.35084099 509.14479256 42.31697559 C509.1477282 43.23793018 509.15066383 44.15888477 509.15368843 45.10774708 C509.06659074 51.04325266 508.14248084 54.41797989 504.21119881 59.00447559 C500.53904375 62.0646048 495.95582748 61.39464098 491.45363235 61.38311005 C490.1692114 61.3857396 490.1692114 61.3857396 488.85884255 61.38842228 C485.96400056 61.39310713 483.06920825 61.39061042 480.17436409 61.38818836 C478.08818898 61.39005509 476.00201423 61.39235523 473.91584003 61.39505368 C468.16307083 61.40119525 462.41031611 61.40103533 456.65754437 61.39985931 C450.46112228 61.3996559 444.2647049 61.40516836 438.06828499 61.40991688 C425.92098143 61.41823683 413.7736845 61.42098526 401.62637867 61.42152926 C391.75663983 61.42198837 381.88690256 61.42404449 372.01716423 61.42722988 C369.17864605 61.42812739 366.34012787 61.42901721 363.50160968 61.42990476 C362.44318633 61.43023633 362.44318633 61.43023633 361.36338068 61.4305746 C341.50933488 61.43673083 321.65528963 61.44067496 301.80124283 61.44023132 C300.6778881 61.44020796 300.6778881 61.44020796 299.53183934 61.44018411 C295.7358777 61.440101 291.93991605 61.44000196 288.14395441 61.43989941 C287.39002995 61.43987946 286.63610548 61.43985952 285.85933482 61.43983897 C284.33471521 61.43979853 282.81009559 61.43975673 281.28547597 61.43971358 C257.56035272 61.4391007 233.83524375 61.44660873 210.11012459 61.46028614 C183.47018336 61.47563751 156.83025152 61.48425294 130.19030559 61.48332292 C127.3511587 61.48324828 124.51201181 61.48319958 121.67286491 61.4831686 C120.97376739 61.48315695 120.27466986 61.48314529 119.55438756 61.48313329 C108.29060617 61.48310248 97.02683716 61.48949585 85.76305945 61.49810087 C74.44811691 61.50656635 63.13319747 61.50740398 51.81825174 61.50099155 C45.68508806 61.49771508 39.55196936 61.49771005 33.41880989 61.5063448 C27.80939165 61.5141612 22.20005441 61.51282852 16.59063827 61.50406066 C14.55633176 61.50251489 12.52201935 61.50438195 10.48771979 61.50992074 C7.73186292 61.51692987 4.97629427 61.51172744 2.22044754 61.50336456 C1.42264136 61.50833274 0.62483518 61.51330092 -0.19714695 61.51841965 C-4.32274925 61.4917812 -7.62921193 61.23402754 -11.28880119 59.25447559 C-14.65667931 55.51238879 -16.39689873 53.08754033 -16.48167229 48.08357716 C-16.49773521 47.22218128 -16.51379814 46.36078541 -16.53034782 45.47328663 C-16.57484666 41.52698529 -16.61587452 37.58085213 -16.63889885 33.63435841 C-16.65544434 31.55481737 -16.68271569 29.47533287 -16.7209301 27.39607716 C-16.7757905 24.39545196 -16.79758821 21.39616027 -16.81223869 18.39510059 C-16.83490807 17.46989613 -16.85757744 16.54469166 -16.88093376 15.59145069 C-16.86672516 11.23418058 -16.73889264 8.21724913 -13.94358635 4.74568653 C-9.24709155 0.33856561 -6.18770814 -0.03376475 0 0 Z " fill="#6E64C6" transform="translate(714.2888011932373,481.7455244064331)"/>
<path d="M0 0 C1.28743309 -0.00654048 1.28743309 -0.00654048 2.60087493 -0.0132131 C5.49065751 -0.02420308 8.37996634 -0.01372984 11.26974583 -0.00342751 C13.35693643 -0.00688259 15.4441252 -0.01164614 17.53131014 -0.01760924 C23.27767544 -0.03016948 29.02389189 -0.02392601 34.77025783 -0.01465058 C40.96326369 -0.00788093 47.1562434 -0.01833098 53.34924412 -0.02659035 C64.78397799 -0.03917958 76.21864526 -0.03806008 87.65337881 -0.02985594 C98.21691823 -0.02231395 108.78044019 -0.02033698 119.34398174 -0.02392387 C120.04425877 -0.02415303 120.74453579 -0.02438218 121.46603333 -0.02461828 C124.30858466 -0.02555228 127.15113599 -0.02650747 129.9936873 -0.02749758 C156.66870007 -0.03667818 183.34368251 -0.02834866 210.0186906 -0.01220688 C233.72401974 0.00202877 257.42930053 0.00075777 281.13462925 -0.01358986 C307.75885258 -0.02965023 334.38304909 -0.03602558 361.00727659 -0.02675307 C363.84500602 -0.0257909 366.68273546 -0.02485238 369.5204649 -0.02392387 C370.219202 -0.02368664 370.9179391 -0.02344941 371.63785006 -0.02320499 C382.19472079 -0.01979096 392.75157216 -0.02378643 403.30844021 -0.03136253 C415.31151848 -0.03993348 427.31452718 -0.03752122 439.31760328 -0.0215203 C445.44484554 -0.01362219 451.57198956 -0.01057222 457.69923115 -0.02046776 C463.30434555 -0.0293833 468.9092703 -0.02453366 474.51436741 -0.0085351 C476.54593789 -0.00517395 478.57752428 -0.00691115 480.6090846 -0.01416247 C483.36376017 -0.02324331 486.11778029 -0.01397061 488.87242126 0 C489.66702874 -0.0070235 490.46163621 -0.014047 491.2803227 -0.02128333 C496.0786108 0.02758072 499.32828805 0.75944353 503.4991312 3.37752342 C508.08688839 8.39765472 508.08768319 12.91864882 508.0303812 19.37752342 C508.03420811 20.33142967 508.03803501 21.28533592 508.04197788 22.26814842 C508.04469156 24.27857587 508.03736857 26.28903895 508.02061558 28.29939842 C507.99919829 31.36791129 508.02043587 34.43408294 508.0460062 37.50252342 C508.04336283 39.4608619 508.03823766 41.41919892 508.0303812 43.37752342 C508.03847813 44.29017967 508.04657505 45.20283592 508.05491734 46.14314842 C507.97371858 51.6885306 507.330843 55.06972061 503.4991312 59.37752342 C499.19510561 62.71518355 495.23050763 62.80211808 489.98264503 62.75784016 C489.12266793 62.76250008 488.26269083 62.76715999 487.37665382 62.77196112 C484.48113316 62.78395763 481.58607769 62.77449773 478.69055271 62.76520348 C476.59923689 62.76937435 474.50792333 62.7748505 472.416614 62.78152329 C466.65885168 62.7960289 460.90123188 62.79171721 455.14346159 62.78435647 C448.93818227 62.77963975 442.73293446 62.79212136 436.52766514 62.80237389 C425.07026424 62.81860038 413.61292674 62.82100112 402.15551974 62.81606889 C391.5710402 62.81151461 380.98657764 62.81210728 370.40209866 62.81790924 C368.98321142 62.8186661 367.56432419 62.81942208 366.14543695 62.82017719 C364.00739503 62.82132236 361.86935312 62.82247223 359.7313112 62.82363643 C339.84939723 62.83434408 319.96748891 62.83906394 300.0855732 62.83116627 C299.33584444 62.83086909 298.58611567 62.83057192 297.81366786 62.83026574 C291.72504382 62.82781672 285.63641985 62.82520518 279.54779589 62.82258161 C255.79546349 62.81247824 232.04320179 62.8208352 208.29087925 62.84407616 C181.61391597 62.87013646 154.93699525 62.88300001 128.26001877 62.87588841 C125.41667236 62.87517233 122.57332594 62.87449794 119.72997952 62.87384796 C119.02985926 62.87367815 118.32973901 62.87350834 117.60840299 62.87333339 C107.03059193 62.87102847 96.45282033 62.87901656 85.87501812 62.89213943 C73.84813797 62.9070333 61.82137559 62.90754186 49.79448933 62.89006852 C43.65506644 62.88152795 37.51582055 62.87948342 31.37640667 62.89472008 C25.76014222 62.90848616 20.14420776 62.90390856 14.5279628 62.88448084 C12.49235374 62.8806956 10.45671875 62.88371474 8.42113263 62.89409249 C5.66083939 62.90716815 2.90170108 62.89576347 0.14145851 62.87809467 C-1.05285922 62.89257044 -1.05285922 62.89257044 -2.27130458 62.90733865 C-7.45111091 62.83893876 -10.38505694 61.78740196 -14.5008688 58.37752342 C-18.03124369 53.33639622 -17.95401138 48.52812092 -17.93446255 42.59627342 C-17.9397044 41.66456322 -17.94494625 40.73285301 -17.95034695 39.77290916 C-17.95674982 37.80958106 -17.95545269 35.8462145 -17.94691372 33.88289452 C-17.93839551 30.88691774 -17.96720249 27.89284378 -17.99891567 24.89705467 C-18.00052773 22.98429482 -17.99995007 21.07153162 -17.99696255 19.15877342 C-18.00819653 18.26799095 -18.0194305 17.37720848 -18.03100491 16.4594326 C-17.96969575 10.96260455 -17.28761237 7.65336271 -13.5008688 3.37752342 C-9.2006613 0.04248675 -5.24351398 -0.04621102 0 0 Z M-14.5008688 7.37752342 C-15.64394416 9.66367414 -15.65066005 11.00553053 -15.69373989 13.54842186 C-15.71783428 14.84051567 -15.71783428 14.84051567 -15.74241543 16.15871239 C-15.78691426 20.10501373 -15.82794213 24.05114689 -15.85096645 27.99764061 C-15.86751194 30.07718165 -15.8947833 32.15666614 -15.9329977 34.23592186 C-15.9878581 37.23654706 -16.00965581 40.23583875 -16.0243063 43.23689842 C-16.04697567 44.16210289 -16.06964504 45.08730736 -16.09300137 46.04054832 C-16.07861296 50.45295929 -15.92981048 53.44001123 -13.09315395 56.94881248 C-8.93218849 60.84721938 -5.81557567 60.52265046 -0.35352612 60.51453781 C0.50298945 60.51718964 1.35950502 60.51984146 2.24197561 60.52257365 C5.14364327 60.53030012 8.04526885 60.5308271 10.94694614 60.53142357 C13.03567072 60.53543598 15.12439451 60.53987383 17.21311736 60.54470313 C22.97761234 60.55669903 28.74209893 60.56232404 34.50660396 60.56688428 C40.71397279 60.57282891 46.92133153 60.58444153 53.12869358 60.59517479 C67.42203397 60.61856338 81.7153748 60.63310954 96.00872824 60.64540421 C100.95271089 60.64965744 105.89669317 60.65422312 110.84067535 60.65898752 C137.11587856 60.68424552 163.39108237 60.70629844 189.66629505 60.71871567 C195.75559332 60.7216371 201.84489157 60.7246046 207.9341898 60.72762108 C208.69072471 60.72799199 209.44725963 60.7283629 210.22671985 60.72874505 C234.76186758 60.74090374 259.29694362 60.77185246 283.83205767 60.8135426 C309.04571471 60.85630774 334.25933388 60.88295379 359.47302818 60.88819038 C363.03250794 60.88893086 366.59198763 60.88984155 370.15146732 60.89084816 C371.20230696 60.89113408 371.20230696 60.89113408 372.27437567 60.89142578 C383.55943619 60.89494256 394.84440708 60.91525518 406.12943466 60.9416448 C417.46806673 60.96776041 428.8065649 60.97511409 440.14523348 60.96454351 C446.29075823 60.95934113 452.43599734 60.96234616 458.58148098 60.98700905 C464.20346151 61.0093834 469.82494929 61.00885382 475.44693777 60.98980518 C477.48466303 60.98698854 479.52242087 60.99269516 481.56009343 61.00761811 C484.32347613 61.0266242 487.08508357 61.01500345 489.84842396 60.99555588 C491.044028 61.01482971 491.044028 61.01482971 492.26378566 61.03449291 C497.98819341 60.94555466 500.49660799 59.48248474 504.4991312 55.37752342 C505.64220656 53.0913727 505.64892246 51.74951632 505.6920023 49.20662498 C505.70806522 48.34522911 505.72412815 47.48383324 505.74067783 46.59633446 C505.78517667 42.65003312 505.82620453 38.70389996 505.84922886 34.75740623 C505.86577435 32.6778652 505.8930457 30.5983807 505.93126011 28.51912498 C505.98612051 25.51849979 506.00791822 22.5192081 506.0225687 19.51814842 C506.04523808 18.59294395 506.06790745 17.66773949 506.09126377 16.71449852 C506.07687536 12.30208756 505.92807288 9.31503561 503.09141636 5.80623436 C498.9304509 1.90782747 495.81383807 2.23239639 490.35178852 2.24050903 C489.49527295 2.23785721 488.63875739 2.23520538 487.7562868 2.23247319 C484.85461913 2.22474672 481.95299355 2.22421975 479.05131626 2.22362328 C476.96259169 2.21961086 474.87386789 2.21517301 472.78514504 2.21034372 C467.02065007 2.19834781 461.25616347 2.19272281 455.49165845 2.18816257 C449.28428962 2.18221793 443.07693087 2.17060532 436.86956882 2.15987206 C422.57622843 2.13648347 408.28288761 2.1219373 393.98953417 2.10964264 C389.04555151 2.10538941 384.10156924 2.10082372 379.15758705 2.09605932 C352.88238385 2.07080132 326.60718003 2.0487484 300.33196735 2.03633118 C294.24266908 2.03340974 288.15337083 2.03044224 282.06407261 2.02742577 C281.30753769 2.02705486 280.55100277 2.02668395 279.77154255 2.0263018 C255.23639483 2.0141431 230.70131878 1.98319439 206.16620473 1.94150424 C180.95254769 1.89873911 155.73892852 1.87209305 130.52523423 1.86685646 C126.96575447 1.86611599 123.40627477 1.8652053 119.84679508 1.86419868 C118.79595545 1.86391276 118.79595545 1.86391276 117.72388673 1.86362106 C106.43882621 1.86010428 95.15385532 1.83979167 83.86882774 1.81340205 C72.53019567 1.78728643 61.19169751 1.77993276 49.85302892 1.79050334 C43.70750418 1.79570572 37.56226506 1.79270068 31.41678143 1.7680378 C25.79480089 1.74566344 20.17331312 1.74619302 14.55132464 1.76524167 C12.51359938 1.7680583 10.47584153 1.76235169 8.43816897 1.74742873 C5.67478628 1.72842265 2.91317884 1.7400434 0.14983845 1.75949097 C-0.64723091 1.74664175 -1.44430028 1.73379253 -2.26552325 1.72055393 C-7.98993101 1.80949218 -10.49834558 3.27256211 -14.5008688 7.37752342 Z " fill="#E0E0E0" transform="translate(715.5008687973022,386.6224765777588)"/>
<path d="M0 0 C1.28743309 -0.00654048 1.28743309 -0.00654048 2.60087493 -0.0132131 C5.49065751 -0.02420308 8.37996634 -0.01372984 11.26974583 -0.00342751 C13.35693643 -0.00688259 15.4441252 -0.01164614 17.53131014 -0.01760924 C23.27767544 -0.03016948 29.02389189 -0.02392601 34.77025783 -0.01465058 C40.96326369 -0.00788093 47.1562434 -0.01833098 53.34924412 -0.02659035 C64.78397799 -0.03917958 76.21864526 -0.03806008 87.65337881 -0.02985594 C98.21691823 -0.02231395 108.78044019 -0.02033698 119.34398174 -0.02392387 C120.04425877 -0.02415303 120.74453579 -0.02438218 121.46603333 -0.02461828 C124.30858466 -0.02555228 127.15113599 -0.02650747 129.9936873 -0.02749758 C156.66870007 -0.03667818 183.34368251 -0.02834866 210.0186906 -0.01220688 C233.72401974 0.00202877 257.42930053 0.00075777 281.13462925 -0.01358986 C307.75885258 -0.02965023 334.38304909 -0.03602558 361.00727659 -0.02675307 C363.84500602 -0.0257909 366.68273546 -0.02485238 369.5204649 -0.02392387 C370.219202 -0.02368664 370.9179391 -0.02344941 371.63785006 -0.02320499 C382.19472079 -0.01979096 392.75157216 -0.02378643 403.30844021 -0.03136253 C415.31151848 -0.03993348 427.31452718 -0.03752122 439.31760328 -0.0215203 C445.44484554 -0.01362219 451.57198956 -0.01057222 457.69923115 -0.02046776 C463.30434555 -0.0293833 468.9092703 -0.02453366 474.51436741 -0.0085351 C476.54593789 -0.00517395 478.57752428 -0.00691115 480.6090846 -0.01416247 C483.36376017 -0.02324331 486.11778029 -0.01397061 488.87242126 0 C489.66702874 -0.0070235 490.46163621 -0.014047 491.2803227 -0.02128333 C496.0786108 0.02758072 499.32828805 0.75944353 503.4991312 3.37752342 C508.08688839 8.39765472 508.08768319 12.91864882 508.0303812 19.37752342 C508.03420811 20.33142967 508.03803501 21.28533592 508.04197788 22.26814842 C508.04469156 24.27857587 508.03736857 26.28903895 508.02061558 28.29939842 C507.99919829 31.36791129 508.02043587 34.43408294 508.0460062 37.50252342 C508.04336283 39.4608619 508.03823766 41.41919892 508.0303812 43.37752342 C508.03847813 44.29017967 508.04657505 45.20283592 508.05491734 46.14314842 C507.97371858 51.6885306 507.330843 55.06972061 503.4991312 59.37752342 C499.19510561 62.71518355 495.23050763 62.80211808 489.98264503 62.75784016 C489.12266793 62.76250008 488.26269083 62.76715999 487.37665382 62.77196112 C484.48113316 62.78395763 481.58607769 62.77449773 478.69055271 62.76520348 C476.59923689 62.76937435 474.50792333 62.7748505 472.416614 62.78152329 C466.65885168 62.7960289 460.90123188 62.79171721 455.14346159 62.78435647 C448.93818227 62.77963975 442.73293446 62.79212136 436.52766514 62.80237389 C425.07026424 62.81860038 413.61292674 62.82100112 402.15551974 62.81606889 C391.5710402 62.81151461 380.98657764 62.81210728 370.40209866 62.81790924 C368.98321142 62.8186661 367.56432419 62.81942208 366.14543695 62.82017719 C364.00739503 62.82132236 361.86935312 62.82247223 359.7313112 62.82363643 C339.84939723 62.83434408 319.96748891 62.83906394 300.0855732 62.83116627 C299.33584444 62.83086909 298.58611567 62.83057192 297.81366786 62.83026574 C291.72504382 62.82781672 285.63641985 62.82520518 279.54779589 62.82258161 C255.79546349 62.81247824 232.04320179 62.8208352 208.29087925 62.84407616 C181.61391597 62.87013646 154.93699525 62.88300001 128.26001877 62.87588841 C125.41667236 62.87517233 122.57332594 62.87449794 119.72997952 62.87384796 C119.02985926 62.87367815 118.32973901 62.87350834 117.60840299 62.87333339 C107.03059193 62.87102847 96.45282033 62.87901656 85.87501812 62.89213943 C73.84813797 62.9070333 61.82137559 62.90754186 49.79448933 62.89006852 C43.65506644 62.88152795 37.51582055 62.87948342 31.37640667 62.89472008 C25.76014222 62.90848616 20.14420776 62.90390856 14.5279628 62.88448084 C12.49235374 62.8806956 10.45671875 62.88371474 8.42113263 62.89409249 C5.66083939 62.90716815 2.90170108 62.89576347 0.14145851 62.87809467 C-1.05285922 62.89257044 -1.05285922 62.89257044 -2.27130458 62.90733865 C-7.45111091 62.83893876 -10.38505694 61.78740196 -14.5008688 58.37752342 C-18.03124369 53.33639622 -17.95401138 48.52812092 -17.93446255 42.59627342 C-17.9397044 41.66456322 -17.94494625 40.73285301 -17.95034695 39.77290916 C-17.95674982 37.80958106 -17.95545269 35.8462145 -17.94691372 33.88289452 C-17.93839551 30.88691774 -17.96720249 27.89284378 -17.99891567 24.89705467 C-18.00052773 22.98429482 -17.99995007 21.07153162 -17.99696255 19.15877342 C-18.00819653 18.26799095 -18.0194305 17.37720848 -18.03100491 16.4594326 C-17.96969575 10.96260455 -17.28761237 7.65336271 -13.5008688 3.37752342 C-9.2006613 0.04248675 -5.24351398 -0.04621102 0 0 Z M-14.5008688 7.37752342 C-15.64394416 9.66367414 -15.65066005 11.00553053 -15.69373989 13.54842186 C-15.71783428 14.84051567 -15.71783428 14.84051567 -15.74241543 16.15871239 C-15.78691426 20.10501373 -15.82794213 24.05114689 -15.85096645 27.99764061 C-15.86751194 30.07718165 -15.8947833 32.15666614 -15.9329977 34.23592186 C-15.9878581 37.23654706 -16.00965581 40.23583875 -16.0243063 43.23689842 C-16.04697567 44.16210289 -16.06964504 45.08730736 -16.09300137 46.04054832 C-16.07861296 50.45295929 -15.92981048 53.44001123 -13.09315395 56.94881248 C-8.93218849 60.84721938 -5.81557567 60.52265046 -0.35352612 60.51453781 C0.50298945 60.51718964 1.35950502 60.51984146 2.24197561 60.52257365 C5.14364327 60.53030012 8.04526885 60.5308271 10.94694614 60.53142357 C13.03567072 60.53543598 15.12439451 60.53987383 17.21311736 60.54470313 C22.97761234 60.55669903 28.74209893 60.56232404 34.50660396 60.56688428 C40.71397279 60.57282891 46.92133153 60.58444153 53.12869358 60.59517479 C67.42203397 60.61856338 81.7153748 60.63310954 96.00872824 60.64540421 C100.95271089 60.64965744 105.89669317 60.65422312 110.84067535 60.65898752 C137.11587856 60.68424552 163.39108237 60.70629844 189.66629505 60.71871567 C195.75559332 60.7216371 201.84489157 60.7246046 207.9341898 60.72762108 C208.69072471 60.72799199 209.44725963 60.7283629 210.22671985 60.72874505 C234.76186758 60.74090374 259.29694362 60.77185246 283.83205767 60.8135426 C309.04571471 60.85630774 334.25933388 60.88295379 359.47302818 60.88819038 C363.03250794 60.88893086 366.59198763 60.88984155 370.15146732 60.89084816 C371.20230696 60.89113408 371.20230696 60.89113408 372.27437567 60.89142578 C383.55943619 60.89494256 394.84440708 60.91525518 406.12943466 60.9416448 C417.46806673 60.96776041 428.8065649 60.97511409 440.14523348 60.96454351 C446.29075823 60.95934113 452.43599734 60.96234616 458.58148098 60.98700905 C464.20346151 61.0093834 469.82494929 61.00885382 475.44693777 60.98980518 C477.48466303 60.98698854 479.52242087 60.99269516 481.56009343 61.00761811 C484.32347613 61.0266242 487.08508357 61.01500345 489.84842396 60.99555588 C491.044028 61.01482971 491.044028 61.01482971 492.26378566 61.03449291 C497.98819341 60.94555466 500.49660799 59.48248474 504.4991312 55.37752342 C505.64220656 53.0913727 505.64892246 51.74951632 505.6920023 49.20662498 C505.70806522 48.34522911 505.72412815 47.48383324 505.74067783 46.59633446 C505.78517667 42.65003312 505.82620453 38.70389996 505.84922886 34.75740623 C505.86577435 32.6778652 505.8930457 30.5983807 505.93126011 28.51912498 C505.98612051 25.51849979 506.00791822 22.5192081 506.0225687 19.51814842 C506.04523808 18.59294395 506.06790745 17.66773949 506.09126377 16.71449852 C506.07687536 12.30208756 505.92807288 9.31503561 503.09141636 5.80623436 C498.9304509 1.90782747 495.81383807 2.23239639 490.35178852 2.24050903 C489.49527295 2.23785721 488.63875739 2.23520538 487.7562868 2.23247319 C484.85461913 2.22474672 481.95299355 2.22421975 479.05131626 2.22362328 C476.96259169 2.21961086 474.87386789 2.21517301 472.78514504 2.21034372 C467.02065007 2.19834781 461.25616347 2.19272281 455.49165845 2.18816257 C449.28428962 2.18221793 443.07693087 2.17060532 436.86956882 2.15987206 C422.57622843 2.13648347 408.28288761 2.1219373 393.98953417 2.10964264 C389.04555151 2.10538941 384.10156924 2.10082372 379.15758705 2.09605932 C352.88238385 2.07080132 326.60718003 2.0487484 300.33196735 2.03633118 C294.24266908 2.03340974 288.15337083 2.03044224 282.06407261 2.02742577 C281.30753769 2.02705486 280.55100277 2.02668395 279.77154255 2.0263018 C255.23639483 2.0141431 230.70131878 1.98319439 206.16620473 1.94150424 C180.95254769 1.89873911 155.73892852 1.87209305 130.52523423 1.86685646 C126.96575447 1.86611599 123.40627477 1.8652053 119.84679508 1.86419868 C118.79595545 1.86391276 118.79595545 1.86391276 117.72388673 1.86362106 C106.43882621 1.86010428 95.15385532 1.83979167 83.86882774 1.81340205 C72.53019567 1.78728643 61.19169751 1.77993276 49.85302892 1.79050334 C43.70750418 1.79570572 37.56226506 1.79270068 31.41678143 1.7680378 C25.79480089 1.74566344 20.17331312 1.74619302 14.55132464 1.76524167 C12.51359938 1.7680583 10.47584153 1.76235169 8.43816897 1.74742873 C5.67478628 1.72842265 2.91317884 1.7400434 0.14983845 1.75949097 C-0.64723091 1.74664175 -1.44430028 1.73379253 -2.26552325 1.72055393 C-7.98993101 1.80949218 -10.49834558 3.27256211 -14.5008688 7.37752342 Z " fill="#E0E0E0" transform="translate(715.5008687973022,309.6224765777588)"/>
<path d="M0 0 C3.3 0 6.6 0 10 0 C10.27714844 1.33675781 10.55429687 2.67351562 10.83984375 4.05078125 C11.20563575 5.80470699 11.57152629 7.55861217 11.9375 9.3125 C12.11990234 10.19357422 12.30230469 11.07464844 12.49023438 11.98242188 C12.66748047 12.82998047 12.84472656 13.67753906 13.02734375 14.55078125 C13.18968506 15.33106689 13.35202637 16.11135254 13.51928711 16.9152832 C14.00566604 19.1752971 14.00566604 19.1752971 15 22 C15.14622803 21.36908447 15.29245605 20.73816895 15.44311523 20.08813477 C16.10417974 17.24537383 16.77076362 14.40393575 17.4375 11.5625 C17.66759766 10.56927734 17.89769531 9.57605469 18.13476562 8.55273438 C18.35712891 7.60849609 18.57949219 6.66425781 18.80859375 5.69140625 C19.11494751 4.37958374 19.11494751 4.37958374 19.42749023 3.04125977 C20 1 20 1 21 0 C24.3 0 27.6 0 31 0 C32.65 6.93 34.3 13.86 36 21 C36.9590625 17.473125 36.9590625 17.473125 37.9375 13.875 C38.23708618 12.78227783 38.23708618 12.78227783 38.54272461 11.66748047 C39.58450345 7.7974164 40.41342107 3.96403869 41 0 C43.97 0 46.94 0 50 0 C47.43195619 12.13723499 44.43791402 24.08001944 41 36 C37.7 36 34.4 36 31 36 C29.02 28.41 27.04 20.82 25 13 C23.39822838 19.44657498 23.39822838 19.44657498 21.79907227 25.89379883 C21.59854248 26.69841553 21.3980127 27.50303223 21.19140625 28.33203125 C20.98717041 29.15421143 20.78293457 29.9763916 20.57250977 30.82348633 C20.11375842 32.56752397 19.57027363 34.28917912 19 36 C15.7 36 12.4 36 9 36 C5.56208598 24.08001944 2.56804381 12.13723499 0 0 Z " fill="#F6F6FB" transform="translate(805,63)"/>
<path d="M0 0 C2.97 0 5.94 0 9 0 C9 0.66 9 1.32 9 2 C9.99 1.34 10.98 0.68 12 0 C17.29895331 -0.42733494 20.73394141 -0.51322472 25 3 C27.7375141 7.46291912 27.64055643 11.91460688 27 17 C25.77475751 20.45467857 24.10302108 23.12519018 21.1875 25.4375 C17.42896725 26.40397985 13.52583012 26.76291506 10 25 C9.67 29.29 9.34 33.58 9 38 C6.03 38 3.06 38 0 38 C0 25.46 0 12.92 0 0 Z " fill="#F5F5FA" transform="translate(1087,73)"/>
<path d="M0 0 C2.97 0 5.94 0 9 0 C9 0.66 9 1.32 9 2 C9.99 1.34 10.98 0.68 12 0 C17.29895331 -0.42733494 20.73394141 -0.51322472 25 3 C27.7375141 7.46291912 27.64055643 11.91460688 27 17 C25.77475751 20.45467857 24.10302108 23.12519018 21.1875 25.4375 C17.42896725 26.40397985 13.52583012 26.76291506 10 25 C9.67 29.29 9.34 33.58 9 38 C6.03 38 3.06 38 0 38 C0 25.46 0 12.92 0 0 Z " fill="#F5F5FA" transform="translate(1056,73)"/>
<path d="M0 0 C3.63 0 7.26 0 11 0 C15.52336458 11.87546146 19.59762007 23.7545681 23 36 C20.03 36 17.06 36 14 36 C12 32 12 32 12 28 C7.71 28 3.42 28 -1 28 C-1.2165625 29.7015625 -1.2165625 29.7015625 -1.4375 31.4375 C-2 35 -2 35 -3 36 C-4.51928038 36.07179964 -6.04167482 36.08392007 -7.5625 36.0625 C-8.38878906 36.05347656 -9.21507812 36.04445312 -10.06640625 36.03515625 C-10.70449219 36.02355469 -11.34257813 36.01195312 -12 36 C-8.52282246 23.77809086 -4.72400274 11.81000684 0 0 Z " fill="#F6F6FB" transform="translate(1030,63)"/>
<path d="M0 0 C2.97 0 5.94 0 9 0 C9 4.62 9 9.24 9 14 C9.99 13.34 10.98 12.68 12 12 C18.85534334 11.22600962 18.85534334 11.22600962 22.73828125 13.8515625 C26.03061226 18.43466923 25.55214648 22.32275226 25.3125 27.8125 C25.28994141 28.79154297 25.26738281 29.77058594 25.24414062 30.77929688 C25.18541964 33.1868573 25.09574426 35.59362754 25 38 C22.03 38 19.06 38 16 38 C15.67 31.73 15.34 25.46 15 19 C13.35 19.33 11.7 19.66 10 20 C9.67 25.94 9.34 31.88 9 38 C6.03 38 3.06 38 0 38 C0 25.46 0 12.92 0 0 Z " fill="#F4F4FA" transform="translate(930,61)"/>
<path d="M0 0 C0.91523437 -0.03996094 1.83046875 -0.07992187 2.7734375 -0.12109375 C5.90612137 0.49256898 8.08332176 1.4971668 10.46044922 3.66137695 C12.92391493 7.4185495 12.22624372 11.93106533 12 16.25 C11.97292969 17.22904297 11.94585938 18.20808594 11.91796875 19.21679688 C11.84745648 21.62596621 11.74898568 24.03058819 11.625 26.4375 C8.985 26.4375 6.345 26.4375 3.625 26.4375 C3.625 25.7775 3.625 25.1175 3.625 24.4375 C2.635 25.0975 1.645 25.7575 0.625 26.4375 C-6.31714876 27.09865702 -6.31714876 27.09865702 -9.875 24.875 C-11.95892818 21.48861671 -11.93302097 19.34364682 -11.375 15.4375 C-8.57828658 11.29836415 -5.12889329 10.45619142 -0.375 9.4375 C0.945 9.4375 2.265 9.4375 3.625 9.4375 C3.295 8.7775 2.965 8.1175 2.625 7.4375 C-3.45908472 7.23935739 -3.45908472 7.23935739 -9.375 8.4375 C-9.375 6.4575 -9.375 4.4775 -9.375 2.4375 C-6.1854753 0.57320035 -3.68237059 0.08767549 0 0 Z " fill="#F5F5FB" transform="translate(893.375,72.5625)"/>
<path d="M0 0 C3.12001504 1.68818449 5.39047471 3.78094941 7 7 C7 9.64 7 12.28 7 15 C1.72 15 -3.56 15 -9 15 C-8.34 16.32 -7.68 17.64 -7 19 C-0.91591528 19.19814261 -0.91591528 19.19814261 5 18 C5.1875 20.875 5.1875 20.875 5 24 C1.57670149 26.28219901 0.15862332 26.29741163 -3.875 26.3125 C-4.90367187 26.32925781 -5.93234375 26.34601563 -6.9921875 26.36328125 C-11.352075 25.83669743 -13.9853962 24.18953549 -16.8125 20.875 C-18.48059796 16.83644705 -18.69143192 13.30815275 -18 9 C-13.83875594 0.9747436 -8.80605262 -1.52545793 0 0 Z " fill="#F6F6FB" transform="translate(873,73)"/>
<path d="M0 0 C5.46341463 2.92682927 5.46341463 2.92682927 7 6 C7.13559318 9.00474497 7.04299016 11.99068847 7 15 C1.72 15 -3.56 15 -9 15 C-8.67 16.32 -8.34 17.64 -8 19 C-6.39592672 19.02708567 -4.7917215 19.04643483 -3.1875 19.0625 C-1.84751953 19.07990234 -1.84751953 19.07990234 -0.48046875 19.09765625 C2.13413791 19.11009967 2.13413791 19.11009967 5 18 C5 19.98 5 21.96 5 24 C0.433878 26.64687442 -3.84577803 26.53550358 -9 26 C-12.13594153 24.73227896 -13.56546548 23.47948636 -15.8125 21 C-17.64812601 16.36262902 -17.8050573 11.9115881 -17 7 C-12.29635674 0.77085081 -7.54034287 -1.07902692 0 0 Z " fill="#F8F8FC" transform="translate(976,73)"/>
<path d="M0 0 C0 2.64 0 5.28 0 8 C1.98 8 3.96 8 6 8 C6 9.98 6 11.96 6 14 C4.02 14 2.04 14 0 14 C0.33 18.29 0.66 22.58 1 27 C2.65 27 4.3 27 6 27 C6 28.98 6 30.96 6 33 C2.87057535 34.56471233 -0.61082223 34.69701958 -4 34 C-6.2421875 32.49609375 -6.2421875 32.49609375 -8 30 C-8.2906124 27.10550051 -8.38186045 24.62050065 -8.25 21.75 C-8.23195313 21.00492188 -8.21390625 20.25984375 -8.1953125 19.4921875 C-8.14835649 17.66090299 -8.07661652 15.83028351 -8 14 C-9.65 14 -11.3 14 -13 14 C-13 12.02 -13 10.04 -13 8 C-11.68 8 -10.36 8 -9 8 C-9 6.02 -9 4.04 -9 2 C-3.375 0 -3.375 0 0 0 Z " fill="#F6F6FB" transform="translate(921,65)"/>
<path d="M0 0 C5.66666667 0 11.33333333 0 17 0 C17 2.31 17 4.62 17 7 C14.69 7.66 12.38 8.32 10 9 C9.67 14.61 9.34 20.22 9 26 C6.03 26 3.06 26 0 26 C0 17.42 0 8.84 0 0 Z " fill="#F5F5FA" transform="translate(987,73)"/>
<path d="M0 0 C1.32 0 2.64 0 4 0 C4.33 2.31 4.66 4.62 5 7 C5.66 7 6.32 7 7 7 C7.33 4.69 7.66 2.38 8 0 C9.65 0 11.3 0 13 0 C13.99 1.98 14.98 3.96 16 6 C16.33 4.02 16.66 2.04 17 0 C18.32 0 19.64 0 21 0 C20.68806536 1.72926874 20.37542638 3.45841044 20.0625 5.1875 C19.80146484 6.63189453 19.80146484 6.63189453 19.53515625 8.10546875 C19.0476265 10.74239972 18.53328895 13.3719905 18 16 C15.525 15.505 15.525 15.505 13 15 C12.34 12.69 11.68 10.38 11 8 C10.01 10.64 9.02 13.28 8 16 C6.68 16 5.36 16 4 16 C2.68 10.72 1.36 5.44 0 0 Z " fill="#EEF0F7" transform="translate(938,504)"/>
<path d="M0 0 C2.5625 0.25 2.5625 0.25 5.5625 2.25 C6.2225 1.59 6.8825 0.93 7.5625 0.25 C10.0625 0 10.0625 0 12.5625 0.25 C14.5625 2.25 14.5625 2.25 14.8125 5.75 C14.5625 9.25 14.5625 9.25 12.5625 11.25 C8.82953674 11.63286803 7.78623677 11.39915785 4.5625 9.25 C3.9025 9.91 3.2425 10.57 2.5625 11.25 C0.0625 11.5 0.0625 11.5 -2.4375 11.25 C-4.4375 9.25 -4.4375 9.25 -4.6875 5.75 C-4.40285958 1.76503411 -4.11280588 0.42182624 0 0 Z " fill="#CECCCD" transform="translate(849.4375,412.75)"/>
<path d="M0 0 C0.99 0.66 1.98 1.32 3 2 C2.67 2.99 2.34 3.98 2 5 C0.700625 4.814375 -0.59875 4.62875 -1.9375 4.4375 C-4.08575543 4.1018371 -4.08575543 4.1018371 -6 4 C-7.35618499 5.12534105 -7.35618499 5.12534105 -7.0625 8.0625 C-7.041875 9.031875 -7.02125 10.00125 -7 11 C-3.52852158 11.74957157 -3.52852158 11.74957157 0 12 C0 11.34 0 10.68 0 10 C-1.32 10 -2.64 10 -4 10 C-4 9.01 -4 8.02 -4 7 C-1.36 7 1.28 7 4 7 C4 9.31 4 11.62 4 14 C0.35187527 16.33479983 -2.74187788 16.38018947 -7 16 C-9.375 15 -9.375 15 -11 13 C-11.96503736 10.26474073 -12.32035831 7.88884515 -12 5 C-8.67364733 0.010471 -5.83859478 -0.75685488 0 0 Z " fill="#F1F2F9" transform="translate(908,504)"/>
<path d="M0 0 C0.78375 0.04125 1.5675 0.0825 2.375 0.125 C2.705 1.445 3.035 2.765 3.375 4.125 C1.395 3.465 -0.585 2.805 -2.625 2.125 C-2.625 4.435 -2.625 6.745 -2.625 9.125 C-0.315 8.465 1.995 7.805 4.375 7.125 C4.49875 6.34125 4.6225 5.5575 4.75 4.75 C5.375 2.125 5.375 2.125 7.375 0.125 C9.875 -0.125 9.875 -0.125 12.375 0.125 C14.375 2.125 14.375 2.125 14.625 5.625 C14.375 9.125 14.375 9.125 12.375 11.125 C8.64203674 11.50786803 7.59873677 11.27415785 4.375 9.125 C3.715 9.785 3.055 10.445 2.375 11.125 C-0.125 11.375 -0.125 11.375 -2.625 11.125 C-4.625 9.125 -4.625 9.125 -4.875 5.625 C-4.58138251 1.51435512 -4.25902123 0.20281053 0 0 Z " fill="#A7A4A7" transform="translate(778.625,412.875)"/>
<path d="M0 0 C0.0810206 2.10353495 0.13919907 4.20795952 0.1875 6.3125 C0.22230469 7.48425781 0.25710938 8.65601563 0.29296875 9.86328125 C0 13 0 13 -1.3125 14.90625 C-3.8393329 16.54401207 -6.06920094 16.1953866 -9 16 C-9 15.01 -9 14.02 -9 13 C-7.35 13 -5.7 13 -4 13 C-4 12.34 -4 11.68 -4 11 C-6.97 10.505 -6.97 10.505 -10 10 C-11.31690141 3.65492958 -11.31690141 3.65492958 -10.0625 1.0625 C-6.74491303 -0.64655995 -3.69558797 -0.18175023 0 0 Z " fill="#7D6B5E" transform="translate(1035,225)"/>
<path d="M0 0 C8 0 8 0 10 1 C10.1953125 7.0546875 10.1953125 7.0546875 10 9 C9.34 9.66 8.68 10.32 8 11 C6.68 11 5.36 11 4 11 C3.67 12.65 3.34 14.3 3 16 C2.01 16 1.02 16 0 16 C0 10.72 0 5.44 0 0 Z " fill="#697080" transform="translate(750,225)"/>
<path d="M0 0 C11.77777778 0 11.77777778 0 16 1 C17 2 17 2 17.09765625 4.06640625 C17.08605469 4.89011719 17.07445312 5.71382813 17.0625 6.5625 C17.05347656 7.38878906 17.04445313 8.21507812 17.03515625 9.06640625 C17.02355469 9.70449219 17.01195312 10.34257812 17 11 C16.01 11 15.02 11 14 11 C13.67 8.36 13.34 5.72 13 3 C12.34 3 11.68 3 11 3 C10.67 5.64 10.34 8.28 10 11 C9.01 11 8.02 11 7 11 C6.67 8.36 6.34 5.72 6 3 C5.34 3 4.68 3 4 3 C3.67 5.64 3.34 8.28 3 11 C2.01 11 1.02 11 0 11 C0 7.37 0 3.74 0 0 Z " fill="#6E6D75" transform="translate(950,255)"/>
<path d="M0 0 C2.375 0.6875 2.375 0.6875 3.375 1.6875 C3.8479064 8.89932266 3.8479064 8.89932266 1.875 12.1875 C1.38 12.6825 0.885 13.1775 0.375 13.6875 C-4.5 12.8125 -4.5 12.8125 -5.625 11.6875 C-5.828125 9.47265625 -5.828125 9.47265625 -5.875 6.75 C-5.90078125 5.85410156 -5.9265625 4.95820312 -5.953125 4.03515625 C-5.84484375 3.26042969 -5.7365625 2.48570313 -5.625 1.6875 C-2.625 -0.3125 -2.625 -0.3125 0 0 Z " fill="#6561B8" transform="translate(1101.625,79.3125)"/>
<path d="M0 0 C2.375 0.6875 2.375 0.6875 3.375 1.6875 C3.8479064 8.89932266 3.8479064 8.89932266 1.875 12.1875 C1.38 12.6825 0.885 13.1775 0.375 13.6875 C-4.5 12.8125 -4.5 12.8125 -5.625 11.6875 C-5.828125 9.47265625 -5.828125 9.47265625 -5.875 6.75 C-5.90078125 5.85410156 -5.9265625 4.95820312 -5.953125 4.03515625 C-5.84484375 3.26042969 -5.7365625 2.48570313 -5.625 1.6875 C-2.625 -0.3125 -2.625 -0.3125 0 0 Z " fill="#6562B8" transform="translate(1070.625,79.3125)"/>
<path d="M0 0 C6.75 -0.125 6.75 -0.125 9 1 C9 4.63 9 8.26 9 12 C2.1640625 12.1953125 2.1640625 12.1953125 0 12 C-0.66 11.34 -1.32 10.68 -2 10 C-2 8 -2 8 -1 6 C2.0625 4.75 2.0625 4.75 5 4 C5 3.34 5 2.68 5 2 C3.02 2.33 1.04 2.66 -1 3 C-0.67 2.01 -0.34 1.02 0 0 Z " fill="#F5F3F8" transform="translate(973,508)"/>
<path d="M0 0 C0.33 1.98 0.66 3.96 1 6 C-1.31 6 -3.62 6 -6 6 C-5.34 6.66 -4.68 7.32 -4 8 C-1.39719432 7.67958603 -1.39719432 7.67958603 1 7 C0.67 7.99 0.34 8.98 0 10 C-6.40096618 11.32850242 -6.40096618 11.32850242 -8.9375 9.9375 C-10.47555213 7.13281671 -10.39310741 5.14485925 -10 2 C-7.64463991 -2.2950684 -4.23605512 -0.87918125 0 0 Z " fill="#F4F1F7" transform="translate(969,509)"/>
<path d="M0 0 C0.33 1.98 0.66 3.96 1 6 C-1.31 6 -3.62 6 -6 6 C-5.34 6.66 -4.68 7.32 -4 8 C-1.39719432 7.67958603 -1.39719432 7.67958603 1 7 C0.34 8.32 -0.32 9.64 -1 11 C-6.4 11.36 -6.4 11.36 -8.875 9.875 C-10.52854531 7.11909116 -10.39365568 5.14924548 -10 2 C-7.64463991 -2.2950684 -4.23605512 -0.87918125 0 0 Z " fill="#F5F2F8" transform="translate(923,509)"/>
<path d="M0 0 C2 2 2 2 2.125 4.625 C2.08375 5.40875 2.0425 6.1925 2 7 C-0.31 7 -2.62 7 -5 7 C-4.01 7.99 -3.02 8.98 -2 10 C-2 9.34 -2 8.68 -2 8 C-0.68 8 0.64 8 2 8 C1.34 9.32 0.68 10.64 0 12 C-2.8125 12.25 -2.8125 12.25 -6 12 C-8.35210784 9.88310295 -8.91810953 8.55958485 -9.375 5.4375 C-9 3 -9 3 -7.875 1.1875 C-5.16554166 -0.52849028 -3.13704316 -0.333728 0 0 Z " fill="#E0E1F3" transform="translate(1013,508)"/>
<path d="M0 0 C0.99 0 1.98 0 3 0 C3.33 1.32 3.66 2.64 4 4 C4.78375 3.95875 5.5675 3.9175 6.375 3.875 C9 4 9 4 11 6 C11.1953125 8.3828125 11.1953125 8.3828125 11.125 11.125 C11.10695313 12.03507813 11.08890625 12.94515625 11.0703125 13.8828125 C11.04710937 14.58148437 11.02390625 15.28015625 11 16 C9.68 16 8.36 16 7 16 C7 12.7 7 9.4 7 6 C6.01 6.33 5.02 6.66 4 7 C3.67 9.97 3.34 12.94 3 16 C2.01 16 1.02 16 0 16 C0 10.72 0 5.44 0 0 Z " fill="#FCFEFC" transform="translate(992,504)"/>
<path d="M0 0 C1 1 1 1 1.25 3.875 C1 7 1 7 -0.0625 8.9375 C-3.12469653 10.61676907 -5.69370941 9.68621125 -9 9 C-10.32 2.64 -10.32 2.64 -9 0 C-5.85440657 -1.57279672 -3.33684358 -0.7415208 0 0 Z " fill="#6A6972" transform="translate(1004,256)"/>
<path d="M0 0 C1 1 1 1 1.25 3.875 C1 7 1 7 -0.0625 8.9375 C-3.12469653 10.61676907 -5.69370941 9.68621125 -9 9 C-10.32 2.64 -10.32 2.64 -9 0 C-5.85440657 -1.57279672 -3.33684358 -0.7415208 0 0 Z " fill="#6A6972" transform="translate(938,256)"/>
<path d="M0 0 C1 1 1 1 1.25 3.875 C1 7 1 7 -0.1875 8.875 C-2.65507108 10.40659584 -4.14519831 10.42822025 -7 10 C-8.8125 8.8125 -8.8125 8.8125 -10 7 C-10.42674516 4.15503228 -10.36066991 2.63647631 -8.9375 0.125 C-5.85798867 -1.66310335 -3.35666727 -0.74592606 0 0 Z " fill="#6A6972" transform="translate(1015,226)"/>
<path d="M0 0 C2.31 0 4.62 0 7 0 C9 2 9 2 9.25 5.5 C9 9 9 9 7 11 C5.68 11 4.36 11 3 11 C2.67 12.32 2.34 13.64 2 15 C1.34 15 0.68 15 0 15 C0 10.05 0 5.1 0 0 Z " fill="#AAA5AA" transform="translate(912,413)"/>
<path d="M0 0 C0.66 0 1.32 0 2 0 C2 4.95 2 9.9 2 15 C-0.31 15 -2.62 15 -5 15 C-7.30163882 11.54754176 -7.34490322 10.05261287 -7 6 C-6.34 5.34 -5.68 4.68 -5 4 C-3.68 4 -2.36 4 -1 4 C-0.67 2.68 -0.34 1.36 0 0 Z " fill="#ADA5A7" transform="translate(873,409)"/>
<path d="M0 0 C1.33359073 6.42548263 1.33359073 6.42548263 -0.125 8.9375 C-2.62012321 10.35140315 -4.17809019 10.43413997 -7 10 C-9 7 -9 7 -8.75 3.375 C-8.5025 2.26125 -8.255 1.1475 -8 0 C-5.13822943 -1.43088528 -3.06624227 -0.59991697 0 0 Z " fill="#ABA6A8" transform="translate(909,414)"/>
<path d="M0 0 C0.99 0 1.98 0 3 0 C3.33 1.65 3.66 3.3 4 5 C4.433125 4.175 4.86625 3.35 5.3125 2.5 C5.869375 1.675 6.42625 0.85 7 0 C7.99 0 8.98 0 10 0 C10.66 1.32 11.32 2.64 12 4 C12.33 2.68 12.66 1.36 13 0 C13.99 0 14.98 0 16 0 C14.125 7.625 14.125 7.625 13 11 C12.01 11 11.02 11 10 11 C9.67 8.69 9.34 6.38 9 4 C8.34 4 7.68 4 7 4 C6.67 6.31 6.34 8.62 6 11 C5.01 11 4.02 11 3 11 C2.01 7.37 1.02 3.74 0 0 Z " fill="#716F78" transform="translate(1092,225)"/>
<path d="M0 0 C2.5 0.25 2.5 0.25 4.5 2.25 C4.75 5.75 4.75 5.75 4.5 9.25 C2.5 11.25 2.5 11.25 0 11.5 C-2.5 11.25 -2.5 11.25 -4.5 9.25 C-4.75 5.75 -4.75 5.75 -4.5 2.25 C-2.5 0.25 -2.5 0.25 0 0 Z " fill="#AAA7A9" transform="translate(859.5,412.75)"/>
<path d="M0 0 C2.5 0.25 2.5 0.25 4.5 2.25 C4.75 5.75 4.75 5.75 4.5 9.25 C2.5 11.25 2.5 11.25 0 11.5 C-2.5 11.25 -2.5 11.25 -4.5 9.25 C-4.75 5.75 -4.75 5.75 -4.5 2.25 C-2.5 0.25 -2.5 0.25 0 0 Z " fill="#A7A4A7" transform="translate(937.5,412.75)"/>
<path d="M0 0 C0.33 1.32 0.66 2.64 1 4 C1.78375 4.061875 2.5675 4.12375 3.375 4.1875 C4.24125 4.455625 5.1075 4.72375 6 5 C7.3125 7.5625 7.3125 7.5625 8 10 C8.66 8.02 9.32 6.04 10 4 C10.66 4 11.32 4 12 4 C10.97137215 9.44567686 9.75385216 14.11817117 7 19 C6.01 19 5.02 19 4 19 C4 18.34 4 17.68 4 17 C4.99 17 5.98 17 7 17 C5.68 13.37 4.36 9.74 3 6 C2.34 6 1.68 6 1 6 C1 8.64 1 11.28 1 14 C1.66 14.33 2.32 14.66 3 15 C1.68 14.67 0.36 14.34 -1 14 C-1.22331199 12.41870971 -1.42804644 10.83478911 -1.625 9.25 C-1.74101563 8.36828125 -1.85703125 7.4865625 -1.9765625 6.578125 C-2.00207817 3.77140122 -1.44843844 2.36615134 0 0 Z " fill="#ACAAB2" transform="translate(790,332)"/>
<path d="M0 0 C2.875 -0.125 2.875 -0.125 6 0 C8 2 8 2 8.1953125 4.1640625 C8.17210937 4.97617188 8.14890625 5.78828125 8.125 6.625 C8.10695313 7.44226563 8.08890625 8.25953125 8.0703125 9.1015625 C8.03550781 10.04128906 8.03550781 10.04128906 8 11 C1.9453125 11.1953125 1.9453125 11.1953125 0 11 C-0.66 10.34 -1.32 9.68 -2 9 C-1.625 6.875 -1.625 6.875 -1 5 C0.98 4.67 2.96 4.34 5 4 C5 3.34 5 2.68 5 2 C3.02 2.33 1.04 2.66 -1 3 C-0.67 2.01 -0.34 1.02 0 0 Z " fill="#696B71" transform="translate(950,225)"/>
<path d="M0 0 C3.63 0 7.26 0 11 0 C11 0.66 11 1.32 11 2 C8.03 2 5.06 2 2 2 C2 3.32 2 4.64 2 6 C4.64 6 7.28 6 10 6 C10 6.66 10 7.32 10 8 C7.36 8 4.72 8 2 8 C2 9.65 2 11.3 2 13 C4.97 13 7.94 13 11 13 C11 13.66 11 14.32 11 15 C7.37 15 3.74 15 0 15 C0 10.05 0 5.1 0 0 Z " fill="#A6A2A8" transform="translate(721,409)"/>
<path d="M0 0 C3.63 0 7.26 0 11 0 C11 0.66 11 1.32 11 2 C8.03 2 5.06 2 2 2 C2 3.32 2 4.64 2 6 C4.64 6 7.28 6 10 6 C10 6.66 10 7.32 10 8 C7.36 8 4.72 8 2 8 C2 9.65 2 11.3 2 13 C4.97 13 7.94 13 11 13 C11 13.66 11 14.32 11 15 C7.37 15 3.74 15 0 15 C0 10.05 0 5.1 0 0 Z " fill="#A6A2A8" transform="translate(721,332)"/>
<path d="M0 0 C6.75 -0.125 6.75 -0.125 9 1 C9.825 0.835 10.65 0.67 11.5 0.5 C14 0 14 0 16 1 C16 4.3 16 7.6 16 11 C15.34 11 14.68 11 14 11 C13.67 8.36 13.34 5.72 13 3 C12.01 3 11.02 3 10 3 C9.67 5.64 9.34 8.28 9 11 C8.34 11 7.68 11 7 11 C6.67 8.36 6.34 5.72 6 3 C5.01 3 4.02 3 3 3 C2.67 5.64 2.34 8.28 2 11 C1.34 11 0.68 11 0 11 C0 7.37 0 3.74 0 0 Z " fill="#595861" transform="translate(961,225)"/>
<path d="M0 0 C2.64 0 5.28 0 8 0 C8.66 1.65 9.32 3.3 10 5 C11.93798263 2.22739701 11.93798263 2.22739701 13 0 C13.66 0 14.32 0 15 0 C11.92482916 10.55808656 11.92482916 10.55808656 10 15 C9.01 15 8.02 15 7 15 C7 14.34 7 13.68 7 13 C7.66 13 8.32 13 9 13 C8.34 9.37 7.68 5.74 7 2 C5.35 2 3.7 2 2 2 C2 4.97 2 7.94 2 11 C1.34 11 0.68 11 0 11 C0 7.37 0 3.74 0 0 Z " fill="#AEA8AB" transform="translate(823,413)"/>
<path d="M0 0 C2.14576637 -0.02685938 4.29162645 -0.04633088 6.4375 -0.0625 C7.63246094 -0.07410156 8.82742188 -0.08570313 10.05859375 -0.09765625 C13 0 13 0 14 1 C14.07205511 2.68608966 14.08386068 4.37500659 14.0625 6.0625 C14.05347656 6.98160156 14.04445313 7.90070313 14.03515625 8.84765625 C14.02355469 9.55792969 14.01195312 10.26820313 14 11 C13.34 11 12.68 11 12 11 C12 8.03 12 5.06 12 2 C11.01 2.33 10.02 2.66 9 3 C8.67 5.64 8.34 8.28 8 11 C7.34 11 6.68 11 6 11 C6 8.03 6 5.06 6 2 C5.01 2.33 4.02 2.66 3 3 C2.67 5.64 2.34 8.28 2 11 C1.34 11 0.68 11 0 11 C0 7.37 0 3.74 0 0 Z " fill="#B0A7A8" transform="translate(832,336)"/>
<path d="M0 0 C2.375 -0.125 2.375 -0.125 5 0 C7 2 7 2 7.1953125 4.1640625 C7.17210937 4.97617188 7.14890625 5.78828125 7.125 6.625 C7.10695313 7.44226563 7.08890625 8.25953125 7.0703125 9.1015625 C7.03550781 10.04128906 7.03550781 10.04128906 7 11 C4.36 11 1.72 11 -1 11 C-1.625 8.625 -1.625 8.625 -2 6 C-1.34 5.34 -0.68 4.68 0 4 C1.32 4 2.64 4 4 4 C4 3.34 4 2.68 4 2 C2.35 2.33 0.7 2.66 -1 3 C-0.67 2.01 -0.34 1.02 0 0 Z " fill="#948F8C" transform="translate(1123,225)"/>
<path d="M0 0 C2 2 2 2 2.1953125 4.1640625 C2.17210937 4.97617187 2.14890625 5.78828125 2.125 6.625 C2.10695313 7.44226563 2.08890625 8.25953125 2.0703125 9.1015625 C2.03550781 10.04128906 2.03550781 10.04128906 2 11 C-0.64 11 -3.28 11 -6 11 C-6.33 9.35 -6.66 7.7 -7 6 C-4 4 -4 4 0 4 C0 3.34 0 2.68 0 2 C-2.31 2.33 -4.62 2.66 -7 3 C-7 2.34 -7 1.68 -7 1 C-4.48718205 -0.25640898 -2.78302919 -0.20872719 0 0 Z " fill="#B5B5B7" transform="translate(962,413)"/>
<path d="M0 0 C0.928125 0.20625 1.85625 0.4125 2.8125 0.625 C3.1425 2.275 3.4725 3.925 3.8125 5.625 C1.5025 5.955 -0.8075 6.285 -3.1875 6.625 C-1.5375 6.955 0.1125 7.285 1.8125 7.625 C1.8125 8.615 1.8125 9.605 1.8125 10.625 C-5.0625 9.75 -5.0625 9.75 -6.1875 8.625 C-6.4375 5.1875 -6.4375 5.1875 -6.1875 1.625 C-3.1875 -0.375 -3.1875 -0.375 0 0 Z " fill="#5A636E" transform="translate(825.1875,225.375)"/>
<path d="M0 0 C0.33 1.65 0.66 3.3 1 5 C-1.64 5 -4.28 5 -7 5 C-6.67 5.66 -6.34 6.32 -6 7 C-2.535 6.505 -2.535 6.505 1 6 C0.34 7.32 -0.32 8.64 -1 10 C-3.31 9.67 -5.62 9.34 -8 9 C-9.32561852 2.61292897 -9.32561852 2.61292897 -7.9375 0 C-5.08594286 -1.47177143 -3.03295907 -0.74138999 0 0 Z " fill="#B5B4B5" transform="translate(759,414)"/>
<path d="M0 0 C0.33 1.65 0.66 3.3 1 5 C-1.64 5 -4.28 5 -7 5 C-6.67 5.66 -6.34 6.32 -6 7 C-2.535 6.505 -2.535 6.505 1 6 C0.34 7.32 -0.32 8.64 -1 10 C-3.31 9.67 -5.62 9.34 -8 9 C-9.32561852 2.61292897 -9.32561852 2.61292897 -7.9375 0 C-5.08594286 -1.47177143 -3.03295907 -0.74138999 0 0 Z " fill="#B5B4B5" transform="translate(759,337)"/>
<path d="M0 0 C2.31 0.33 4.62 0.66 7 1 C7 4.3 7 7.6 7 11 C4.36 11 1.72 11 -1 11 C-1.33 9.35 -1.66 7.7 -2 6 C-0.02 5.01 1.96 4.02 4 3 C2.35 3 0.7 3 -1 3 C-0.67 2.01 -0.34 1.02 0 0 Z " fill="#635E65" transform="translate(971,255)"/>
<path d="M0 0 C2 2 2 2 2 6 C-0.31 6 -2.62 6 -5 6 C-4.67 6.66 -4.34 7.32 -4 8 C-2.35 8 -0.7 8 1 8 C0.67 8.99 0.34 9.98 0 11 C-2.31 10.67 -4.62 10.34 -7 10 C-8.33359073 3.57451737 -8.33359073 3.57451737 -6.875 1.0625 C-4.403308 -0.33812547 -2.79844834 -0.35877543 0 0 Z " fill="#685955" transform="translate(1161,225)"/>
<path d="M0 0 C2 2 2 2 2 6 C-0.31 6 -2.62 6 -5 6 C-4.67 6.66 -4.34 7.32 -4 8 C-2.35 8 -0.7 8 1 8 C0.67 8.99 0.34 9.98 0 11 C-2.31 10.67 -4.62 10.34 -7 10 C-8.33359073 3.57451737 -8.33359073 3.57451737 -6.875 1.0625 C-4.403308 -0.33812547 -2.79844834 -0.35877543 0 0 Z " fill="#685955" transform="translate(1117,225)"/>
<path d="M0 0 C2.31 0.33 4.62 0.66 7 1 C7 4.3 7 7.6 7 11 C4.36 11 1.72 11 -1 11 C-1.33 9.35 -1.66 7.7 -2 6 C-0.02 5.01 1.96 4.02 4 3 C2.35 3 0.7 3 -1 3 C-0.67 2.01 -0.34 1.02 0 0 Z " fill="#635E65" transform="translate(879,225)"/>
<path d="M0 0 C2 2 2 2 2 6 C-0.31 6 -2.62 6 -5 6 C-4.67 6.66 -4.34 7.32 -4 8 C-2.35 8 -0.7 8 1 8 C0.67 8.99 0.34 9.98 0 11 C-2.31 10.67 -4.62 10.34 -7 10 C-8.33359073 3.57451737 -8.33359073 3.57451737 -6.875 1.0625 C-4.403308 -0.33812547 -2.79844834 -0.35877543 0 0 Z " fill="#685955" transform="translate(859,225)"/>
<path d="M0 0 C2 2 2 2 2 6 C-0.31 6 -2.62 6 -5 6 C-4.67 6.66 -4.34 7.32 -4 8 C-2.35 8 -0.7 8 1 8 C0.67 8.99 0.34 9.98 0 11 C-2.31 10.67 -4.62 10.34 -7 10 C-8.33359073 3.57451737 -8.33359073 3.57451737 -6.875 1.0625 C-4.403308 -0.33812547 -2.79844834 -0.35877543 0 0 Z " fill="#685955" transform="translate(809,225)"/>
<path d="M0 0 C2.31 0.33 4.62 0.66 7 1 C7 4.3 7 7.6 7 11 C4.36 11 1.72 11 -1 11 C-1.33 9.35 -1.66 7.7 -2 6 C-0.02 5.01 1.96 4.02 4 3 C2.35 3 0.7 3 -1 3 C-0.67 2.01 -0.34 1.02 0 0 Z " fill="#635E65" transform="translate(782,225)"/>
<path d="M0 0 C1.99954746 -0.04254356 4.00041636 -0.04080783 6 0 C7 1 7 1 7.09765625 3.28515625 C7.08605469 4.20167969 7.07445312 5.11820312 7.0625 6.0625 C7.05347656 6.98160156 7.04445313 7.90070313 7.03515625 8.84765625 C7.02355469 9.55792969 7.01195312 10.26820313 7 11 C0.25 11.125 0.25 11.125 -2 10 C-1.67 8.35 -1.34 6.7 -1 5 C0.98 4.67 2.96 4.34 5 4 C5 3.34 5 2.68 5 2 C3.02 2.33 1.04 2.66 -1 3 C-0.67 2.01 -0.34 1.02 0 0 Z " fill="#A6A5A7" transform="translate(822,336)"/>
<path d="M0 0 C2 2 2 2 2 6 C-0.31 6 -2.62 6 -5 6 C-4.67 6.66 -4.34 7.32 -4 8 C-1.47266765 8.65555119 -1.47266765 8.65555119 1 9 C1 9.66 1 10.32 1 11 C-4.42857143 11.36190476 -4.42857143 11.36190476 -6.875 9.8125 C-8.40659584 7.34492892 -8.42822025 5.85480169 -8 3 C-5.84871852 -0.2835349 -3.77529378 -0.48401202 0 0 Z " fill="#716762" transform="translate(776,225)"/>
<path d="M0 0 C2 2 2 2 2 5 C-0.64 5 -3.28 5 -6 5 C-5.67 5.66 -5.34 6.32 -5 7 C-2.97536745 7.65213292 -2.97536745 7.65213292 -1 8 C-1 7.34 -1 6.68 -1 6 C-0.34 6 0.32 6 1 6 C1 6.99 1 7.98 1 9 C-1.31 9.33 -3.62 9.66 -6 10 C-8 7 -8 7 -7.75 3.375 C-7.5025 2.26125 -7.255 1.1475 -7 0 C-4.29393021 -1.35303489 -2.8671629 -0.7884698 0 0 Z " fill="#BEC0C2" transform="translate(885,414)"/>
<path d="M0 0 C2 2 2 2 2 5 C-0.64 5 -3.28 5 -6 5 C-5.67 5.66 -5.34 6.32 -5 7 C-2.97536745 7.65213292 -2.97536745 7.65213292 -1 8 C-1 7.34 -1 6.68 -1 6 C-0.34 6 0.32 6 1 6 C1 6.99 1 7.98 1 9 C-1.31 9.33 -3.62 9.66 -6 10 C-8 7 -8 7 -7.75 3.375 C-7.5025 2.26125 -7.255 1.1475 -7 0 C-4.29393021 -1.35303489 -2.8671629 -0.7884698 0 0 Z " fill="#BEC0C2" transform="translate(856,337)"/>
<path d="M0 0 C6.0546875 -0.1953125 6.0546875 -0.1953125 8 0 C10 2 10 2 10.1953125 4.1640625 C10.17210937 4.97617187 10.14890625 5.78828125 10.125 6.625 C10.10695313 7.44226563 10.08890625 8.25953125 10.0703125 9.1015625 C10.03550781 10.04128906 10.03550781 10.04128906 10 11 C9.01 11 8.02 11 7 11 C7 8.03 7 5.06 7 2 C6.01 2.33 5.02 2.66 4 3 C3.67 5.64 3.34 8.28 3 11 C2.01 11 1.02 11 0 11 C0 7.37 0 3.74 0 0 Z " fill="#706D77" transform="translate(1008,255)"/>
<path d="M0 0 C6.0546875 -0.1953125 6.0546875 -0.1953125 8 0 C10 2 10 2 10.1953125 4.1640625 C10.17210937 4.97617188 10.14890625 5.78828125 10.125 6.625 C10.10695313 7.44226563 10.08890625 8.25953125 10.0703125 9.1015625 C10.03550781 10.04128906 10.03550781 10.04128906 10 11 C9.01 11 8.02 11 7 11 C7 8.03 7 5.06 7 2 C6.01 2.33 5.02 2.66 4 3 C3.67 5.64 3.34 8.28 3 11 C2.01 11 1.02 11 0 11 C0 7.37 0 3.74 0 0 Z " fill="#706D77" transform="translate(831,225)"/>
<path d="M0 0 C2.5 0.25 2.5 0.25 4.5 2.25 C4.5 3.57 4.5 4.89 4.5 6.25 C2.19 6.25 -0.12 6.25 -2.5 6.25 C-2.17 6.91 -1.84 7.57 -1.5 8.25 C0.48 8.25 2.46 8.25 4.5 8.25 C4.17 9.24 3.84 10.23 3.5 11.25 C0.625 11.375 0.625 11.375 -2.5 11.25 C-4.5 9.25 -4.5 9.25 -4.75 5.75 C-4.46177779 1.71488904 -4.15174939 0.41517494 0 0 Z " fill="#747375" transform="translate(1042.5,224.75)"/>
<path d="M0 0 C2.5 0.25 2.5 0.25 4.5 2.25 C4.5 3.57 4.5 4.89 4.5 6.25 C2.19 6.25 -0.12 6.25 -2.5 6.25 C-2.17 6.91 -1.84 7.57 -1.5 8.25 C0.48 8.25 2.46 8.25 4.5 8.25 C4.17 9.24 3.84 10.23 3.5 11.25 C0.625 11.375 0.625 11.375 -2.5 11.25 C-4.5 9.25 -4.5 9.25 -4.75 5.75 C-4.46177779 1.71488904 -4.15174939 0.41517494 0 0 Z " fill="#747375" transform="translate(984.5,224.75)"/>
<path d="M0 0 C0.99 0 1.98 0 3 0 C3.66 1.98 4.32 3.96 5 6 C5.99 4.02 6.98 2.04 8 0 C8.66 0 9.32 0 10 0 C9.36180842 3.54834519 8.48725713 6.86275507 7.25 10.25 C6.79367187 11.55710938 6.79367187 11.55710938 6.328125 12.890625 C5 15 5 15 2.359375 15.796875 C1.58078125 15.86390625 0.8021875 15.9309375 0 16 C0 15.34 0 14.68 0 14 C0.66 13.67 1.32 13.34 2 13 C2.23509196 8.18061476 1.45184478 4.53701494 0 0 Z " fill="#67626B" transform="translate(918,225)"/>
<path d="M0 0 C0.66 0 1.32 0 2 0 C2 2.31 2 4.62 2 7 C2.969375 6.814375 3.93875 6.62875 4.9375 6.4375 C6.4534375 6.2209375 6.4534375 6.2209375 8 6 C9 7 9 7 9.09765625 9.28515625 C9.08605469 10.20167969 9.07445312 11.11820313 9.0625 12.0625 C9.05347656 12.98160156 9.04445313 13.90070313 9.03515625 14.84765625 C9.02355469 15.55792969 9.01195312 16.26820313 9 17 C8.34 17 7.68 17 7 17 C6.67 14.36 6.34 11.72 6 9 C5.01 9 4.02 9 3 9 C2.67 11.64 2.34 14.28 2 17 C1.34 17 0.68 17 0 17 C0 11.39 0 5.78 0 0 Z " fill="#5E585F" transform="translate(1141,219)"/>
<path d="M0 0 C6.93359375 -0.09765625 6.93359375 -0.09765625 9 0 C10 1 10 1 10.09765625 3.28515625 C10.08605469 4.20167969 10.07445312 5.11820312 10.0625 6.0625 C10.05347656 6.98160156 10.04445313 7.90070313 10.03515625 8.84765625 C10.02355469 9.55792969 10.01195312 10.26820313 10 11 C9.34 11 8.68 11 8 11 C7.67 8.36 7.34 5.72 7 3 C6.01 3 5.02 3 4 3 C3.67 5.64 3.34 8.28 3 11 C2.01 11 1.02 11 0 11 C0 7.37 0 3.74 0 0 Z " fill="#7C6F6D" transform="translate(908,255)"/>
<path d="M0 0 C6.93359375 -0.09765625 6.93359375 -0.09765625 9 0 C10 1 10 1 10.09765625 3.28515625 C10.08605469 4.20167969 10.07445312 5.11820313 10.0625 6.0625 C10.05347656 6.98160156 10.04445313 7.90070313 10.03515625 8.84765625 C10.02355469 9.55792969 10.01195312 10.26820313 10 11 C9.34 11 8.68 11 8 11 C7.67 8.36 7.34 5.72 7 3 C6.01 3 5.02 3 4 3 C3.67 5.64 3.34 8.28 3 11 C2.01 11 1.02 11 0 11 C0 7.37 0 3.74 0 0 Z " fill="#7C6F6D" transform="translate(936,225)"/>
<path d="M0 0 C0.33 1.32 0.66 2.64 1 4 C1.66 4 2.32 4 3 4 C3 4.66 3 5.32 3 6 C2.34 6 1.68 6 1 6 C1 8.64 1 11.28 1 14 C1.66 14 2.32 14 3 14 C3 14.66 3 15.32 3 16 C1.35 16 -0.3 16 -2 16 C-2 12.7 -2 9.4 -2 6 C-2.66 6 -3.32 6 -4 6 C-4 5.34 -4 4.68 -4 4 C-3.34 4 -2.68 4 -2 4 C-2 3.01 -2 2.02 -2 1 C-1.34 0.67 -0.68 0.34 0 0 Z " fill="#F9F7F9" transform="translate(929,504)"/>
<path d="M0 0 C2.64 0 5.28 0 8 0 C8 0.66 8 1.32 8 2 C7.01 2.33 6.02 2.66 5 3 C4.67 5.97 4.34 8.94 4 12 C2.68 12 1.36 12 0 12 C0 8.04 0 4.08 0 0 Z " fill="#EBEDF6" transform="translate(1017,508)"/>
<path d="M0 0 C0.33 1.32 0.66 2.64 1 4 C1.66 4 2.32 4 3 4 C3 4.66 3 5.32 3 6 C2.34 6 1.68 6 1 6 C1 8.64 1 11.28 1 14 C1.66 14 2.32 14 3 14 C3 14.66 3 15.32 3 16 C1.35 15.67 -0.3 15.34 -2 15 C-2 12.03 -2 9.06 -2 6 C-2.66 6 -3.32 6 -4 6 C-4 5.34 -4 4.68 -4 4 C-3.34 4 -2.68 4 -2 4 C-2 3.01 -2 2.02 -2 1 C-1.34 0.67 -0.68 0.34 0 0 Z " fill="#F8FAFB" transform="translate(987,504)"/>
<path d="M0 0 C0.66 0.33 1.32 0.66 2 1 C2.6328125 3.50390625 2.6328125 3.50390625 3.125 6.5625 C3.29257813 7.57441406 3.46015625 8.58632812 3.6328125 9.62890625 C3.75398438 10.41136719 3.87515625 11.19382812 4 12 C1.69 12 -0.62 12 -3 12 C-2.14285714 3.42857143 -2.14285714 3.42857143 0 0 Z " fill="#6866B7" transform="translate(1035,73)"/>
<path d="M0 0 C6.75 -0.125 6.75 -0.125 9 1 C9 4.3 9 7.6 9 11 C8.34 11 7.68 11 7 11 C7 8.03 7 5.06 7 2 C5.68 2.33 4.36 2.66 3 3 C2.67 5.64 2.34 8.28 2 11 C1.34 11 0.68 11 0 11 C0 7.37 0 3.74 0 0 Z " fill="#ACA5AA" transform="translate(944,413)"/>
<path d="M0 0 C6.75 -0.125 6.75 -0.125 9 1 C9 4.3 9 7.6 9 11 C8.34 11 7.68 11 7 11 C7 8.03 7 5.06 7 2 C5.68 2.33 4.36 2.66 3 3 C2.67 5.64 2.34 8.28 2 11 C1.34 11 0.68 11 0 11 C0 7.37 0 3.74 0 0 Z " fill="#ACA5AA" transform="translate(806,413)"/>
<path d="M0 0 C3.375 -0.125 3.375 -0.125 7 0 C9 2 9 2 9.1953125 4.1640625 C9.17210937 4.97617187 9.14890625 5.78828125 9.125 6.625 C9.10695313 7.44226563 9.08890625 8.25953125 9.0703125 9.1015625 C9.03550781 10.04128906 9.03550781 10.04128906 9 11 C8.34 11 7.68 11 7 11 C7 8.03 7 5.06 7 2 C5.68 2.33 4.36 2.66 3 3 C2.67 5.64 2.34 8.28 2 11 C1.34 11 0.68 11 0 11 C0 7.37 0 3.74 0 0 Z " fill="#A7A6AF" transform="translate(734,413)"/>
<path d="M0 0 C0.78375 0.04125 1.5675 0.0825 2.375 0.125 C2.705 1.445 3.035 2.765 3.375 4.125 C1.395 3.465 -0.585 2.805 -2.625 2.125 C-2.625 4.435 -2.625 6.745 -2.625 9.125 C-0.315 8.465 1.995 7.805 4.375 7.125 C4.705 5.805 5.035 4.485 5.375 3.125 C5.73575949 7.57436709 5.73575949 7.57436709 4.1875 9.9375 C1.7614306 11.52699375 0.22102594 11.48987512 -2.625 11.125 C-4.625 9.125 -4.625 9.125 -4.875 5.625 C-4.58138251 1.51435512 -4.25902123 0.20281053 0 0 Z " fill="#B1B0B3" transform="translate(778.625,412.875)"/>
<path d="M0 0 C0.66 0 1.32 0 2 0 C2 2.97 2 5.94 2 9 C3.32 8.67 4.64 8.34 6 8 C6.33 5.36 6.66 2.72 7 0 C7.66 0 8.32 0 9 0 C9 3.63 9 7.26 9 11 C5.625 11.125 5.625 11.125 2 11 C0 9 0 9 -0.1953125 6.8359375 C-0.17210937 6.02382813 -0.14890625 5.21171875 -0.125 4.375 C-0.10695313 3.55773437 -0.08890625 2.74046875 -0.0703125 1.8984375 C-0.04710937 1.27195312 -0.02390625 0.64546875 0 0 Z " fill="#ABA6AC" transform="translate(795,413)"/>
<path d="M0 0 C3.375 -0.125 3.375 -0.125 7 0 C9 2 9 2 9.1953125 4.1640625 C9.17210937 4.97617187 9.14890625 5.78828125 9.125 6.625 C9.10695313 7.44226563 9.08890625 8.25953125 9.0703125 9.1015625 C9.03550781 10.04128906 9.03550781 10.04128906 9 11 C8.34 11 7.68 11 7 11 C7 8.03 7 5.06 7 2 C5.68 2.33 4.36 2.66 3 3 C2.67 5.64 2.34 8.28 2 11 C1.34 11 0.68 11 0 11 C0 7.37 0 3.74 0 0 Z " fill="#A7A6AF" transform="translate(734,336)"/>
<path d="M0 0 C0.99 0 1.98 0 3 0 C3 5.61 3 11.22 3 17 C2.01 17 1.02 17 0 17 C0 11.39 0 5.78 0 0 Z " fill="#72727B" transform="translate(763,219)"/>
<path d="M0 0 C0 0.66 0 1.32 0 2 C-1.32 2 -2.64 2 -4 2 C-2.36587557 3.70840281 -1.13093906 4.93453047 1 6 C0.125 9.875 0.125 9.875 -1 11 C-2.99958364 11.04080783 -5.00045254 11.04254356 -7 11 C-7 10.34 -7 9.68 -7 9 C-5.35 9 -3.7 9 -2 9 C-3.25541557 6.48916886 -4.50063488 6.12874554 -7 5 C-7 3.68 -7 2.36 -7 1 C-4.53721199 -0.231394 -2.7204945 -0.07159196 0 0 Z " fill="#6B6769" transform="translate(1084,225)"/>
<path d="M0 0 C2.33294775 -0.04241723 4.66702567 -0.04092937 7 0 C8 1 8 1 8.09765625 3.28515625 C8.08605469 4.20167969 8.07445312 5.11820312 8.0625 6.0625 C8.05347656 6.98160156 8.04445313 7.90070313 8.03515625 8.84765625 C8.02355469 9.55792969 8.01195312 10.26820313 8 11 C7.34 11 6.68 11 6 11 C6 8.03 6 5.06 6 2 C4.68 2 3.36 2 2 2 C2 4.97 2 7.94 2 11 C1.34 11 0.68 11 0 11 C0 7.37 0 3.74 0 0 Z " fill="#ADA9AB" transform="translate(810,336)"/>
<path d="M0 0 C0.66 0 1.32 0 2 0 C2 0.99 2 1.98 2 3 C2.66 3 3.32 3 4 3 C4 3.66 4 4.32 4 5 C3.34 5 2.68 5 2 5 C2 7.31 2 9.62 2 12 C2.66 12 3.32 12 4 12 C4 12.66 4 13.32 4 14 C2.35 13.67 0.7 13.34 -1 13 C-1.22245393 11.39773045 -1.42746669 9.79303233 -1.625 8.1875 C-1.74101563 7.29417969 -1.85703125 6.40085938 -1.9765625 5.48046875 C-2 3 -2 3 0 0 Z " fill="#6F6867" transform="translate(1134,222)"/>
<path d="M0 0 C0.66 0 1.32 0 2 0 C2 0.99 2 1.98 2 3 C2.66 3 3.32 3 4 3 C4 3.66 4 4.32 4 5 C3.34 5 2.68 5 2 5 C2 7.31 2 9.62 2 12 C2.66 12 3.32 12 4 12 C4 12.66 4 13.32 4 14 C2.35 13.67 0.7 13.34 -1 13 C-1.22245393 11.39773045 -1.42746669 9.79303233 -1.625 8.1875 C-1.74101563 7.29417969 -1.85703125 6.40085938 -1.9765625 5.48046875 C-2 3 -2 3 0 0 Z " fill="#6F6867" transform="translate(1071,222)"/>
<path d="M0 0 C0.99 0 1.98 0 3 0 C3 0.66 3 1.32 3 2 C2.01 2.495 2.01 2.495 1 3 C0.67 3.99 0.34 4.98 0 6 C0.99 6 1.98 6 3 6 C3 6.66 3 7.32 3 8 C2.01 8 1.02 8 0 8 C0 10.97 0 13.94 0 17 C-0.66 17 -1.32 17 -2 17 C-2 14.03 -2 11.06 -2 8 C-2.66 8 -3.32 8 -4 8 C-4 7.34 -4 6.68 -4 6 C-3.34 6 -2.68 6 -2 6 C-1.855625 5.195625 -1.71125 4.39125 -1.5625 3.5625 C-1 1 -1 1 0 0 Z " fill="#615659" transform="translate(924,249)"/>
<path d="M0 0 C1.98 0 3.96 0 6 0 C5.67 0.99 5.34 1.98 5 3 C3.68 2.67 2.36 2.34 1 2 C1 2.66 1 3.32 1 4 C3.475 4.99 3.475 4.99 6 6 C6 7.32 6 8.64 6 10 C3.69 10.33 1.38 10.66 -1 11 C-1 10.34 -1 9.68 -1 9 C0.65 9 2.3 9 4 9 C4 8.34 4 7.68 4 7 C1.525 6.01 1.525 6.01 -1 5 C-0.67 3.35 -0.34 1.7 0 0 Z " fill="#636369" transform="translate(793,225)"/>
<path d="M0 0 C0.78375 0.04125 1.5675 0.0825 2.375 0.125 C2.705 1.445 3.035 2.765 3.375 4.125 C1.395 3.465 -0.585 2.805 -2.625 2.125 C-2.625 4.435 -2.625 6.745 -2.625 9.125 C-0.315 8.465 1.995 7.805 4.375 7.125 C3.715 8.445 3.055 9.765 2.375 11.125 C0 11.25 0 11.25 -2.625 11.125 C-4.625 9.125 -4.625 9.125 -4.875 5.625 C-4.58138251 1.51435512 -4.25902123 0.20281053 0 0 Z " fill="#A7ABB4" transform="translate(778.625,335.875)"/>
<path d="M0 0 C-0.33 0.99 -0.66 1.98 -1 3 C-2.65 3 -4.3 3 -6 3 C-5.67 4.65 -5.34 6.3 -5 8 C-3.35 8 -1.7 8 0 8 C0 8.99 0 9.98 0 11 C-2.875 11.125 -2.875 11.125 -6 11 C-8 9 -8 9 -8.3125 5.5 C-8.209375 4.345 -8.10625 3.19 -8 2 C-4.77208445 -0.1519437 -3.71599191 -0.20086443 0 0 Z " fill="#68626A" transform="translate(903,225)"/>
<path d="M0 0 C0.66 0 1.32 0 2 0 C2 0.99 2 1.98 2 3 C2.99 3 3.98 3 5 3 C5 3.66 5 4.32 5 5 C4.01 5 3.02 5 2 5 C2 7.31 2 9.62 2 12 C2.99 12 3.98 12 5 12 C5 12.66 5 13.32 5 14 C3.35 13.67 1.7 13.34 0 13 C0 10.36 0 7.72 0 5 C-0.66 5 -1.32 5 -2 5 C-2 4.34 -2 3.68 -2 3 C-1.34 3 -0.68 3 0 3 C0 2.01 0 1.02 0 0 Z " fill="#5B5A64" transform="translate(982,252)"/>
<path d="M0 0 C0.66 0 1.32 0 2 0 C2 0.99 2 1.98 2 3 C2.99 3 3.98 3 5 3 C5 3.66 5 4.32 5 5 C4.01 5 3.02 5 2 5 C2 7.31 2 9.62 2 12 C2.99 12 3.98 12 5 12 C5 12.66 5 13.32 5 14 C3.35 13.67 1.7 13.34 0 13 C0 10.36 0 7.72 0 5 C-0.66 5 -1.32 5 -2 5 C-2 4.34 -2 3.68 -2 3 C-1.34 3 -0.68 3 0 3 C0 2.01 0 1.02 0 0 Z " fill="#5B5A64" transform="translate(1051,222)"/>
<path d="M0 0 C0.66 0 1.32 0 2 0 C2 0.99 2 1.98 2 3 C2.99 3 3.98 3 5 3 C5 3.66 5 4.32 5 5 C4.01 5 3.02 5 2 5 C2 7.31 2 9.62 2 12 C2.99 12 3.98 12 5 12 C5 12.66 5 13.32 5 14 C3.35 13.67 1.7 13.34 0 13 C0 10.36 0 7.72 0 5 C-0.66 5 -1.32 5 -2 5 C-2 4.34 -2 3.68 -2 3 C-1.34 3 -0.68 3 0 3 C0 2.01 0 1.02 0 0 Z " fill="#5B5A64" transform="translate(999,222)"/>
<path d="M0 0 C0.66 0 1.32 0 2 0 C2 0.99 2 1.98 2 3 C2.99 3 3.98 3 5 3 C5 3.66 5 4.32 5 5 C4.01 5 3.02 5 2 5 C2 7.31 2 9.62 2 12 C2.99 12 3.98 12 5 12 C5 12.66 5 13.32 5 14 C3.35 13.67 1.7 13.34 0 13 C0 10.36 0 7.72 0 5 C-0.66 5 -1.32 5 -2 5 C-2 4.34 -2 3.68 -2 3 C-1.34 3 -0.68 3 0 3 C0 2.01 0 1.02 0 0 Z " fill="#5B5A64" transform="translate(845,222)"/>
<path d="M0 0 C0.66 0 1.32 0 2 0 C2 0.99 2 1.98 2 3 C2.99 3 3.98 3 5 3 C5 3.66 5 4.32 5 5 C4.01 5 3.02 5 2 5 C2 7.31 2 9.62 2 12 C2.99 12 3.98 12 5 12 C5 12.66 5 13.32 5 14 C3.35 13.67 1.7 13.34 0 13 C0 10.36 0 7.72 0 5 C-0.66 5 -1.32 5 -2 5 C-2 4.34 -2 3.68 -2 3 C-1.34 3 -0.68 3 0 3 C0 2.01 0 1.02 0 0 Z " fill="#64595C" transform="translate(912,222)"/>
<path d="M0 0 C2.31 0 4.62 0 7 0 C7 0.66 7 1.32 7 2 C6.01 2.33 5.02 2.66 4 3 C3.67 5.64 3.34 8.28 3 11 C2.01 11 1.02 11 0 11 C0 7.37 0 3.74 0 0 Z " fill="#7F706E" transform="translate(863,225)"/>
<path d="M0 0 C1.2065625 0.0309375 1.2065625 0.0309375 2.4375 0.0625 C2.4375 2.3725 2.4375 4.6825 2.4375 7.0625 C0.77138095 7.105221 -0.89632885 7.10313832 -2.5625 7.0625 C-3.5625 6.0625 -3.5625 6.0625 -3.6875 3.5625 C-3.51717518 0.15600356 -3.41884482 0.08338646 0 0 Z " fill="#EBEFF2" transform="translate(937.5625,414.9375)"/>
<path d="M0 0 C1.2065625 0.0309375 1.2065625 0.0309375 2.4375 0.0625 C2.4375 2.3725 2.4375 4.6825 2.4375 7.0625 C0.77138095 7.105221 -0.89632885 7.10313832 -2.5625 7.0625 C-3.5625 6.0625 -3.5625 6.0625 -3.6875 3.5625 C-3.51717518 0.15600356 -3.41884482 0.08338646 0 0 Z " fill="#EBEFF2" transform="translate(788.5625,414.9375)"/>
<path d="M0 0 C1.98 0 3.96 0 6 0 C6 0.66 6 1.32 6 2 C5.01 2.495 5.01 2.495 4 3 C3.53476937 4.89533342 3.53476937 4.89533342 3.375 7.0625 C3.25125 8.361875 3.1275 9.66125 3 11 C2.01 11 1.02 11 0 11 C0 7.37 0 3.74 0 0 Z " fill="#706C71" transform="translate(1165,225)"/>
<path d="M0 0 C1.67542976 0.28604898 3.34385343 0.61781233 5 1 C5 2.65 5 4.3 5 6 C3.34385343 6.38218767 1.67542976 6.71395102 0 7 C-1 6 -1 6 -1.125 3.5 C-1 1 -1 1 0 0 Z " fill="#F1F5F1" transform="translate(903,415)"/>
<path d="M0 0 C0.66 0 1.32 0 2 0 C5.15562454 3.76247542 5.44648557 7.12111903 5.3046875 11.83984375 C4.89612957 14.73641474 3.77682232 16.70493784 2 19 C1.34 18.67 0.68 18.34 0 18 C0.495 16.9790625 0.495 16.9790625 1 15.9375 C2.93903047 10.24159799 2.15166811 5.51364954 0 0 Z " fill="#ACACB4" transform="translate(971,409)"/>
<path d="M0 0 C1.2065625 0.0309375 1.2065625 0.0309375 2.4375 0.0625 C1.5625 4.9375 1.5625 4.9375 0.4375 6.0625 C-1.22867115 6.10313832 -2.89638095 6.105221 -4.5625 6.0625 C-3.48963568 0.08511307 -3.48963568 0.08511307 0 0 Z " fill="#6767BB" transform="translate(894.5625,86.9375)"/>
<path d="M0 0 C1.65 0 3.3 0 5 0 C5 2.31 5 4.62 5 7 C3.35 7 1.7 7 0 7 C0 4.69 0 2.38 0 0 Z " fill="#F4F5F4" transform="translate(857,415)"/>
<path d="M0 0 C0.33 0 0.66 0 1 0 C1 3.63 1 7.26 1 11 C-0.32 10.34 -1.64 9.68 -3 9 C-3.886875 8.835 -4.77375 8.67 -5.6875 8.5 C-6.450625 8.335 -7.21375 8.17 -8 8 C-8.33 7.34 -8.66 6.68 -9 6 C-6.03 6 -3.06 6 0 6 C0 4.02 0 2.04 0 0 Z " fill="#F7FCEC" transform="translate(830,225)"/>
<path d="M0 0 C2.375 -0.125 2.375 -0.125 5 0 C7 2 7 2 7.1953125 4.1640625 C7.17210937 4.97617188 7.14890625 5.78828125 7.125 6.625 C7.10695313 7.44226563 7.08890625 8.25953125 7.0703125 9.1015625 C7.03550781 10.04128906 7.03550781 10.04128906 7 11 C6.34 11 5.68 11 5 11 C4.45627049 7.94152152 4 5.11227195 4 2 C2.35 2.33 0.7 2.66 -1 3 C-0.67 2.01 -0.34 1.02 0 0 Z " fill="#5E5D6C" transform="translate(1123,225)"/>
<path d="M0 0 C2.375 -0.125 2.375 -0.125 5 0 C7 2 7 2 7 6 C4.69 6 2.38 6 0 6 C0 5.67 0 5.34 0 5 C1.98 5 3.96 5 6 5 C4.87465895 3.64381501 4.87465895 3.64381501 1.9375 3.9375 C0.968125 3.958125 -0.00125 3.97875 -1 4 C-0.67 2.68 -0.34 1.36 0 0 Z " fill="#868991" transform="translate(1156,225)"/>
<path d="M0 0 C2.375 -0.125 2.375 -0.125 5 0 C7 2 7 2 7 6 C4.69 6 2.38 6 0 6 C0 5.67 0 5.34 0 5 C1.98 5 3.96 5 6 5 C4.87465895 3.64381501 4.87465895 3.64381501 1.9375 3.9375 C0.968125 3.958125 -0.00125 3.97875 -1 4 C-0.67 2.68 -0.34 1.36 0 0 Z " fill="#868991" transform="translate(1112,225)"/>
<path d="M0 0 C2.375 -0.125 2.375 -0.125 5 0 C7 2 7 2 7 6 C4.69 6 2.38 6 0 6 C0 5.67 0 5.34 0 5 C1.98 5 3.96 5 6 5 C4.87465895 3.64381501 4.87465895 3.64381501 1.9375 3.9375 C0.968125 3.958125 -0.00125 3.97875 -1 4 C-0.67 2.68 -0.34 1.36 0 0 Z " fill="#868991" transform="translate(854,225)"/>
<path d="M0 0 C2.375 -0.125 2.375 -0.125 5 0 C7 2 7 2 7 6 C4.69 6 2.38 6 0 6 C0 5.67 0 5.34 0 5 C1.98 5 3.96 5 6 5 C4.87465895 3.64381501 4.87465895 3.64381501 1.9375 3.9375 C0.968125 3.958125 -0.00125 3.97875 -1 4 C-0.67 2.68 -0.34 1.36 0 0 Z " fill="#868991" transform="translate(804,225)"/>
<path d="M0 0 C0.66 0 1.32 0 2 0 C2 0.66 2 1.32 2 2 C3.65 2 5.3 2 7 2 C7 2.33 7 2.66 7 3 C5.35 3 3.7 3 2 3 C2.33 3.66 2.66 4.32 3 5 C5.02463255 5.65213292 5.02463255 5.65213292 7 6 C7 5.34 7 4.68 7 4 C7.66 4 8.32 4 9 4 C9 4.99 9 5.98 9 7 C6.69 7.33 4.38 7.66 2 8 C-0.1519437 4.77208445 -0.20086443 3.71599191 0 0 Z " fill="#AAA4A4" transform="translate(877,416)"/>
<path d="M0 0 C1.65 0 3.3 0 5 0 C5 2.31 5 4.62 5 7 C3.35 6.67 1.7 6.34 0 6 C0 4.02 0 2.04 0 0 Z " fill="#F0F4F2" transform="translate(868,415)"/>
<path d="M0 0 C0.66 0 1.32 0 2 0 C2 0.66 2 1.32 2 2 C3.65 2 5.3 2 7 2 C7 2.33 7 2.66 7 3 C5.35 3 3.7 3 2 3 C2.33 3.66 2.66 4.32 3 5 C5.02463255 5.65213292 5.02463255 5.65213292 7 6 C7 5.34 7 4.68 7 4 C7.66 4 8.32 4 9 4 C9 4.99 9 5.98 9 7 C6.69 7.33 4.38 7.66 2 8 C-0.1519437 4.77208445 -0.20086443 3.71599191 0 0 Z " fill="#AAA4A4" transform="translate(848,339)"/>
<path d="M0 0 C2.0625 0.4375 2.0625 0.4375 4 1 C4.625 2.875 4.625 2.875 5 5 C4.34 5.66 3.68 6.32 3 7 C0.875 6.625 0.875 6.625 -1 6 C-1.042721 4.33388095 -1.04063832 2.66617115 -1 1 C-0.67 0.67 -0.34 0.34 0 0 Z " fill="#FAF7F2" transform="translate(998,257)"/>
<path d="M0 0 C2.0625 0.4375 2.0625 0.4375 4 1 C4.625 2.875 4.625 2.875 5 5 C4.34 5.66 3.68 6.32 3 7 C0.875 6.625 0.875 6.625 -1 6 C-1.042721 4.33388095 -1.04063832 2.66617115 -1 1 C-0.67 0.67 -0.34 0.34 0 0 Z " fill="#FAF7F2" transform="translate(932,257)"/>
<path d="M0 0 C2.0625 0.4375 2.0625 0.4375 4 1 C4.625 2.875 4.625 2.875 5 5 C4.34 5.66 3.68 6.32 3 7 C0.875 6.625 0.875 6.625 -1 6 C-1.042721 4.33388095 -1.04063832 2.66617115 -1 1 C-0.67 0.67 -0.34 0.34 0 0 Z " fill="#FAF7F2" transform="translate(1009,227)"/>
<path d="M0 0 C0.66 0 1.32 0 2 0 C2 0.99 2 1.98 2 3 C2.66 3.33 3.32 3.66 4 4 C3.34 4 2.68 4 2 4 C2.144375 5.27875 2.28875 6.5575 2.4375 7.875 C2.51871094 8.59429687 2.59992187 9.31359375 2.68359375 10.0546875 C2.91292961 12.07404316 2.91292961 12.07404316 4 14 C2.68 13.67 1.36 13.34 0 13 C-0.19551338 11.39679026 -0.38111983 9.79237014 -0.5625 8.1875 C-0.71912109 6.84751953 -0.71912109 6.84751953 -0.87890625 5.48046875 C-1 3 -1 3 0 0 Z " fill="#B6A9A3" transform="translate(923,410)"/>
<path d="M0 0 C1.32 0 2.64 0 4 0 C4 2.31 4 4.62 4 7 C2.35 6.67 0.7 6.34 -1 6 C-1.042721 4.33388095 -1.04063832 2.66617115 -1 1 C-0.67 0.67 -0.34 0.34 0 0 Z " fill="#F4F5F2" transform="translate(915,415)"/>
<path d="M0 0 C0.33 1.32 0.66 2.64 1 4 C-1.64 4 -4.28 4 -7 4 C-6.625 2.0625 -6.625 2.0625 -6 0 C-3.50907189 -1.24546405 -2.58919267 -0.7767578 0 0 Z " fill="#6E6FBF" transform="translate(871,79)"/>
<path d="M0 0 C2.02907167 3.3146667 2.12742133 5.4315979 1.625 9.25 C1.51414062 10.14203125 1.40328125 11.0340625 1.2890625 11.953125 C1.19367187 12.62859375 1.09828125 13.3040625 1 14 C1.66 14.33 2.32 14.66 3 15 C1.68 14.67 0.36 14.34 -1 14 C-1.22331199 12.41870971 -1.42804644 10.83478911 -1.625 9.25 C-1.74101563 8.36828125 -1.85703125 7.4865625 -1.9765625 6.578125 C-2.00207817 3.77140122 -1.44843844 2.36615134 0 0 Z " fill="#A3A3AF" transform="translate(819,409)"/>
<path d="M0 0 C-0.33 1.32 -0.66 2.64 -1 4 C-2.175625 3.9690625 -2.175625 3.9690625 -3.375 3.9375 C-5.98114961 3.81315937 -5.98114961 3.81315937 -8 5 C-7.67 3.35 -7.34 1.7 -7 0 C-3.98968256 -0.93423645 -3.13349732 -1.04449911 0 0 Z " fill="#CEC9C5" transform="translate(828,341)"/>
<path d="M0 0 C1.98 0 3.96 0 6 0 C6 0.66 6 1.32 6 2 C5.01 2.66 4.02 3.32 3 4 C2.26393501 7.56769552 2.26393501 7.56769552 2 11 C1.34 11 0.68 11 0 11 C0 7.37 0 3.74 0 0 Z " fill="#6D5C61" transform="translate(942,255)"/>
<path d="M0 0 C0.33 0 0.66 0 1 0 C1 3.63 1 7.26 1 11 C0.67 10.34 0.34 9.68 0 9 C-0.99 9 -1.98 9 -3 9 C-3 6.69 -3 4.38 -3 2 C-2.01 2 -1.02 2 0 2 C0 1.34 0 0.68 0 0 Z " fill="#E8F7FE" transform="translate(987,255)"/>
<path d="M0 0 C2.0625 0.4375 2.0625 0.4375 4 1 C4 2.65 4 4.3 4 6 C2.35 6.33 0.7 6.66 -1 7 C-1.04254356 5.00045254 -1.04080783 2.99958364 -1 1 C-0.67 0.67 -0.34 0.34 0 0 Z " fill="#F8F6ED" transform="translate(754,227)"/>
<path d="M0 0 C1.66666667 0 3.33333333 0 5 0 C5 2.31 5 4.62 5 7 C3.35 6.67 1.7 6.34 0 6 C0 4.02 0 2.04 0 0 Z " fill="#FAF9FB" transform="translate(951,513)"/>
<path d="M0 0 C2.0625 0.4375 2.0625 0.4375 4 1 C4 2.65 4 4.3 4 6 C2.0625 6.5625 2.0625 6.5625 0 7 C-1 6 -1 6 -1.125 3.5 C-1 1 -1 1 0 0 Z " fill="#F2FBFB" transform="translate(1028,227)"/>
<path d="M0 0 C2.0625 0.4375 2.0625 0.4375 4 1 C4.33 2.32 4.66 3.64 5 5 C2.36 5 -0.28 5 -3 5 C-1.125 1.125 -1.125 1.125 0 0 Z " fill="#6B6BBC" transform="translate(970,78)"/>
<path d="M0 0 C0.66 0 1.32 0 2 0 C2 3.63 2 7.26 2 11 C1.01 10.67 0.02 10.34 -1 10 C-1.02689216 8.52093108 -1.04634621 7.04172517 -1.0625 5.5625 C-1.07410156 4.73878906 -1.08570313 3.91507812 -1.09765625 3.06640625 C-1 1 -1 1 0 0 Z " fill="#F0F2EC" transform="translate(821,413)"/>
<path d="M0 0 C1.98 0 3.96 0 6 0 C6 0.66 6 1.32 6 2 C4.68 2 3.36 2 2 2 C2 4.97 2 7.94 2 11 C1.34 11 0.68 11 0 11 C0 7.37 0 3.74 0 0 Z " fill="#AEA8AE" transform="translate(762,413)"/>
<path d="M0 0 C1.98 0 3.96 0 6 0 C6 0.66 6 1.32 6 2 C4.68 2 3.36 2 2 2 C2 4.97 2 7.94 2 11 C1.34 11 0.68 11 0 11 C0 7.37 0 3.74 0 0 Z " fill="#AEA8AE" transform="translate(762,336)"/>
<path d="M0 0 C-0.33 1.32 -0.66 2.64 -1 4 C-2.98 4 -4.96 4 -7 4 C-6.625 2.0625 -6.625 2.0625 -6 0 C-3.50907189 -1.24546405 -2.58919267 -0.7767578 0 0 Z " fill="#A6A49F" transform="translate(955,230)"/>
<path d="M0 0 C2.96082018 5.92164036 3.15181433 9.47305215 2 16 C1.34 16 0.68 16 0 16 C0 10.72 0 5.44 0 0 Z " fill="#765555" transform="translate(750,225)"/>
<path d="M0 0 C0.66 0.33 1.32 0.66 2 1 C2 2.32 2 3.64 2 5 C0.68 5 -0.64 5 -2 5 C-2.33 4.67 -2.66 4.34 -3 4 C-3.66 4.66 -4.32 5.32 -5 6 C-4.75 4.125 -4.75 4.125 -4 2 C-2.0625 0.6875 -2.0625 0.6875 0 0 Z " fill="#C2C4EA" transform="translate(976,512)"/>
<path d="M0 0 C0.66 0 1.32 0 2 0 C2 3.3 2 6.6 2 10 C1.01 10 0.02 10 -1 10 C-1.125 2.25 -1.125 2.25 0 0 Z " fill="#F5E6E8" transform="translate(1001,510)"/>
<path d="M0 0 C0 3.63 0 7.26 0 11 C-0.99 10.34 -1.98 9.68 -3 9 C-3.40843923 6.28796348 -3.13336867 3.7562858 -3 1 C-1 0 -1 0 0 0 Z " fill="#E0EEF5" transform="translate(928,413)"/>
<path d="M0 0 C0.99 0 1.98 0 3 0 C4.512545 5.16044765 5.33500455 8.65998179 4 14 C3.34 13.67 2.68 13.34 2 13 C2.04125 12.154375 2.0825 11.30875 2.125 10.4375 C1.98464972 6.57786731 1.17219836 3.66311987 0 0 Z " fill="#817778" transform="translate(918,225)"/>
<path d="M0 0 C1.32 0.99 2.64 1.98 4 3 C4 2.34 4 1.68 4 1 C5.32 1 6.64 1 8 1 C7.34 2.32 6.68 3.64 6 5 C4.02 5 2.04 5 0 5 C-0.33 4.01 -0.66 3.02 -1 2 C-0.67 1.34 -0.34 0.68 0 0 Z " fill="#F3F0F5" transform="translate(1007,515)"/>
<path d="M0 0 C0.99 0 1.98 0 3 0 C3.48828125 1.98567708 3.9765625 3.97135417 4.46484375 5.95703125 C4.91010705 7.65683202 5.44433985 9.33301954 6 11 C5.01 11 4.02 11 3 11 C2.01 7.37 1.02 3.74 0 0 Z " fill="#64626F" transform="translate(1092,225)"/>
<path d="M0 0 C0.33 0 0.66 0 1 0 C1 3.3 1 6.6 1 10 C0.01 10 -0.98 10 -2 10 C-2 7.36 -2 4.72 -2 2 C-1.34 2 -0.68 2 0 2 C0 1.34 0 0.68 0 0 Z " fill="#8D66C2" transform="translate(990,508)"/>
<path d="M0 0 C2.46278801 1.231394 3.42497687 2.78064923 5 5 C3.33388095 5.042721 1.66617115 5.04063832 0 5 C-0.33 4.67 -0.66 4.34 -1 4 C-1.33 5.65 -1.66 7.3 -2 9 C-2.33 9 -2.66 9 -3 9 C-3.36923077 3.46153846 -3.36923077 3.46153846 -1.5 1.125 C-1.005 0.75375 -0.51 0.3825 0 0 Z " fill="#BBC2E9" transform="translate(962,508)"/>
<path d="M0 0 C2.46278801 1.231394 3.42497687 2.78064923 5 5 C3.33388095 5.042721 1.66617115 5.04063832 0 5 C-0.33 4.67 -0.66 4.34 -1 4 C-1.33 5.65 -1.66 7.3 -2 9 C-2.33 9 -2.66 9 -3 9 C-3.36923077 3.46153846 -3.36923077 3.46153846 -1.5 1.125 C-1.005 0.75375 -0.51 0.3825 0 0 Z " fill="#BBC4EB" transform="translate(916,508)"/>
<path d="M0 0 C0.61875 0.639375 1.2375 1.27875 1.875 1.9375 C3.82597612 4.03883584 3.82597612 4.03883584 6 5 C6 5.66 6 6.32 6 7 C4.35 7 2.7 7 1 7 C0.67 7.66 0.34 8.32 0 9 C-1.125 3.375 -1.125 3.375 0 0 Z " fill="#F6E8D6" transform="translate(791,227)"/>
<path d="M0 0 C2.97 0 5.94 0 9 0 C9 0.66 9 1.32 9 2 C8.05125 2.268125 7.1025 2.53625 6.125 2.8125 C2.74732727 3.74986588 2.74732727 3.74986588 1 7 C0.67 4.69 0.34 2.38 0 0 Z " fill="#F7F4EB" transform="translate(953,415)"/>
<path d="M0 0 C1.32 0 2.64 0 4 0 C4.33 0.99 4.66 1.98 5 3 C2 5 2 5 -2 5 C-1.34 3.35 -0.68 1.7 0 0 Z " fill="#A7A5A3" transform="translate(972,261)"/>
<path d="M0 0 C1.32 0 2.64 0 4 0 C4.33 0.99 4.66 1.98 5 3 C2 5 2 5 -2 5 C-1.34 3.35 -0.68 1.7 0 0 Z " fill="#A7A5A3" transform="translate(880,231)"/>
<path d="M0 0 C1.32 0 2.64 0 4 0 C4.33 0.99 4.66 1.98 5 3 C2 5 2 5 -2 5 C-1.34 3.35 -0.68 1.7 0 0 Z " fill="#A7A5A3" transform="translate(783,231)"/>
<path d="M0 0 C0.66 1.32 1.32 2.64 2 4 C1.01 4.495 1.01 4.495 0 5 C0.185625 6.918125 0.185625 6.918125 0.375 8.875 C0.44460938 9.59429687 0.51421875 10.31359375 0.5859375 11.0546875 C0.86374749 13.22668245 0.86374749 13.22668245 3 15 C1.68 14.67 0.36 14.34 -1 14 C-1.22331199 12.41870971 -1.42804644 10.83478911 -1.625 9.25 C-1.74101563 8.36828125 -1.85703125 7.4865625 -1.9765625 6.578125 C-2.00207817 3.77140122 -1.44843844 2.36615134 0 0 Z " fill="#A69FA5" transform="translate(790,332)"/>
<path d="M0 0 C0.66 0 1.32 0 2 0 C2.268125 0.804375 2.53625 1.60875 2.8125 2.4375 C3.204375 3.283125 3.59625 4.12875 4 5 C4.99 5.33 5.98 5.66 7 6 C7 6.66 7 7.32 7 8 C4.03 7.505 4.03 7.505 1 7 C0.67 4.69 0.34 2.38 0 0 Z " fill="#6E605E" transform="translate(994,258)"/>
<path d="M0 0 C0.66 0 1.32 0 2 0 C2.268125 0.804375 2.53625 1.60875 2.8125 2.4375 C3.204375 3.283125 3.59625 4.12875 4 5 C4.99 5.33 5.98 5.66 7 6 C7 6.66 7 7.32 7 8 C4.03 7.505 4.03 7.505 1 7 C0.67 4.69 0.34 2.38 0 0 Z " fill="#6E605E" transform="translate(928,258)"/>
<path d="M0 0 C0.33 0 0.66 0 1 0 C1 1.98 1 3.96 1 6 C3.64 6 6.28 6 9 6 C8.67 6.99 8.34 7.98 8 9 C1.125 8.125 1.125 8.125 0 7 C-0.04092937 4.66702567 -0.04241723 2.33294775 0 0 Z " fill="#756665" transform="translate(819,227)"/>
<path d="M0 0 C-0.33 0.99 -0.66 1.98 -1 3 C-1.763125 3.0825 -2.52625 3.165 -3.3125 3.25 C-6.52373261 4.14615794 -7.29374499 5.21611025 -9 8 C-9.22223194 5.25913944 -9.34781139 3.56036279 -7.875 1.1875 C-5.22464043 -0.49106106 -3.06753576 -0.20450238 0 0 Z " fill="#837061" transform="translate(1033,225)"/>
<path d="M0 0 C2.31 0.66 4.62 1.32 7 2 C4 4 4 4 1 5 C0.34 5.99 -0.32 6.98 -1 8 C-1.125 2.25 -1.125 2.25 0 0 Z " fill="#F7EEDD" transform="translate(780,226)"/>
<path d="M0 0 C-0.33 0.99 -0.66 1.98 -1 3 C-2.98 3 -4.96 3 -7 3 C-7.33 2.01 -7.66 1.02 -8 0 C-5.13822943 -1.43088528 -3.06624227 -0.59991697 0 0 Z " fill="#9A9897" transform="translate(828,226)"/>
<path d="M0 0 C1.2065625 0.0309375 1.2065625 0.0309375 2.4375 0.0625 C2.4375 1.3825 2.4375 2.7025 2.4375 4.0625 C0.4575 4.0625 -1.5225 4.0625 -3.5625 4.0625 C-3.5625 0.08689024 -3.5625 0.08689024 0 0 Z " fill="#9C9997" transform="translate(773.5625,224.9375)"/>
<path d="M0 0 C1.65 0 3.3 0 5 0 C6.3609623 2.7219246 5.70366248 4.1831957 5.0625 7.125 C4.86785156 8.03507813 4.67320312 8.94515625 4.47265625 9.8828125 C4.31667969 10.58148437 4.16070313 11.28015625 4 12 C3.67 12 3.34 12 3 12 C3 8.7 3 5.4 3 2 C2.01 2 1.02 2 0 2 C0 1.34 0 0.68 0 0 Z " fill="#ECF6FC" transform="translate(996,508)"/>
<path d="M0 0 C0.66 0 1.32 0 2 0 C2.268125 0.804375 2.53625 1.60875 2.8125 2.4375 C3.204375 3.283125 3.59625 4.12875 4 5 C4.99 5.33 5.98 5.66 7 6 C7 6.66 7 7.32 7 8 C2.25 7.25 2.25 7.25 0 5 C-0.125 2.375 -0.125 2.375 0 0 Z " fill="#695D5D" transform="translate(1005,228)"/>
<path d="M0 0 C0.99 0 1.98 0 3 0 C2.7452486 1.31571603 2.47065859 2.62760376 2.1875 3.9375 C2.03667969 4.66839844 1.88585938 5.39929688 1.73046875 6.15234375 C1.48941406 6.76207031 1.24835938 7.37179688 1 8 C0.01 8.33 -0.98 8.66 -2 9 C-1.34 6.03 -0.68 3.06 0 0 Z " fill="#7A777E" transform="translate(1105,225)"/>
<path d="M0 0 C0 0.66 0 1.32 0 2 C-3.465 3.485 -3.465 3.485 -7 5 C-7.33 3.68 -7.66 2.36 -8 1 C-5.23735711 0.40267181 -2.83967231 0 0 0 Z " fill="#756ECB" transform="translate(978,510)"/>
<path d="M0 0 C0.33 0.99 0.66 1.98 1 3 C1.66 3.33 2.32 3.66 3 4 C2.34 4 1.68 4 1 4 C1.144375 5.27875 1.28875 6.5575 1.4375 7.875 C1.51871094 8.59429687 1.59992187 9.31359375 1.68359375 10.0546875 C1.91292961 12.07404316 1.91292961 12.07404316 3 14 C2.01 14 1.02 14 0 14 C0 10.7 0 7.4 0 4 C-0.66 3.67 -1.32 3.34 -2 3 C-1.34 3 -0.68 3 0 3 C0 2.01 0 1.02 0 0 Z " fill="#9F9C9B" transform="translate(746,410)"/>
<path d="M0 0 C0.33 0.99 0.66 1.98 1 3 C1.66 3.33 2.32 3.66 3 4 C2.34 4 1.68 4 1 4 C1.144375 5.27875 1.28875 6.5575 1.4375 7.875 C1.51871094 8.59429687 1.59992187 9.31359375 1.68359375 10.0546875 C1.91292961 12.07404316 1.91292961 12.07404316 3 14 C2.01 14 1.02 14 0 14 C0 10.7 0 7.4 0 4 C-0.66 3.67 -1.32 3.34 -2 3 C-1.34 3 -0.68 3 0 3 C0 2.01 0 1.02 0 0 Z " fill="#9F9C9B" transform="translate(746,333)"/>
<path d="M0 0 C0.66 0 1.32 0 2 0 C2 3.3 2 6.6 2 10 C1.34 10 0.68 10 0 10 C-0.19412181 8.52168779 -0.38012131 7.04230684 -0.5625 5.5625 C-0.66691406 4.73878906 -0.77132812 3.91507812 -0.87890625 3.06640625 C-0.91886719 2.38449219 -0.95882812 1.70257813 -1 1 C-0.67 0.67 -0.34 0.34 0 0 Z " fill="#60595F" transform="translate(916,256)"/>
<path d="M0 0 C0.2475 0.61875 0.495 1.2375 0.75 1.875 C2.20628639 4.35068687 3.37812506 4.95125002 6 6 C1.25 7.125 1.25 7.125 -1 6 C-1.042721 4.33388095 -1.04063832 2.66617115 -1 1 C-0.67 0.67 -0.34 0.34 0 0 Z " fill="#5F616F" transform="translate(1026,229)"/>
<path d="M0 0 C0.66 0 1.32 0 2 0 C2 3.3 2 6.6 2 10 C1.34 10 0.68 10 0 10 C-0.19412181 8.52168779 -0.38012131 7.04230684 -0.5625 5.5625 C-0.66691406 4.73878906 -0.77132812 3.91507813 -0.87890625 3.06640625 C-0.91886719 2.38449219 -0.95882812 1.70257813 -1 1 C-0.67 0.67 -0.34 0.34 0 0 Z " fill="#60595F" transform="translate(944,226)"/>
<path d="M0 0 C0.66 0 1.32 0 2 0 C2 4.29 2 8.58 2 13 C1.67 13 1.34 13 1 13 C0.63779734 11.20994059 0.28547531 9.41787943 -0.0625 7.625 C-0.25972656 6.62726563 -0.45695312 5.62953125 -0.66015625 4.6015625 C-1 2 -1 2 0 0 Z " fill="#55597E" transform="translate(1033,225)"/>
<path d="M0 0 C0.66 0 1.32 0 2 0 C1.67 1.65 1.34 3.3 1 5 C-0.65 4.67 -2.3 4.34 -4 4 C-4 4.66 -4 5.32 -4 6 C-4.99 5.67 -5.98 5.34 -7 5 C-7 4.34 -7 3.68 -7 3 C-4.69 3 -2.38 3 0 3 C0 2.01 0 1.02 0 0 Z " fill="#8465C0" transform="translate(1015,512)"/>
<path d="M0 0 C0.99 0.495 0.99 0.495 2 1 C1.67 2.32 1.34 3.64 1 5 C1.66 5 2.32 5 3 5 C3.33 5.99 3.66 6.98 4 8 C3.34 8.66 2.68 9.32 2 10 C0 8 0 8 -0.1953125 6.0546875 C-0.13020833 4.03645833 -0.06510417 2.01822917 0 0 Z " fill="#D0DFEF" transform="translate(747,414)"/>
<path d="M0 0 C0.99 0.495 0.99 0.495 2 1 C1.67 2.32 1.34 3.64 1 5 C1.66 5 2.32 5 3 5 C3.33 5.99 3.66 6.98 4 8 C3.34 8.66 2.68 9.32 2 10 C0 8 0 8 -0.1953125 6.0546875 C-0.13020833 4.03645833 -0.06510417 2.01822917 0 0 Z " fill="#D0DFEF" transform="translate(747,337)"/>
<path d="M0 0 C0.66 0.66 1.32 1.32 2 2 C4.58354218 2.16687448 4.58354218 2.16687448 7 2 C6.67 2.99 6.34 3.98 6 5 C3.69 4.67 1.38 4.34 -1 4 C-0.67 2.68 -0.34 1.36 0 0 Z " fill="#65676E" transform="translate(1155,231)"/>
<path d="M0 0 C0.66 0.66 1.32 1.32 2 2 C4.58354218 2.16687448 4.58354218 2.16687448 7 2 C6.67 2.99 6.34 3.98 6 5 C3.69 4.67 1.38 4.34 -1 4 C-0.67 2.68 -0.34 1.36 0 0 Z " fill="#65676E" transform="translate(1111,231)"/>
<path d="M0 0 C0.66 0.66 1.32 1.32 2 2 C4.58354218 2.16687448 4.58354218 2.16687448 7 2 C6.67 2.99 6.34 3.98 6 5 C3.69 4.67 1.38 4.34 -1 4 C-0.67 2.68 -0.34 1.36 0 0 Z " fill="#65676E" transform="translate(853,231)"/>
<path d="M0 0 C0.66 0.66 1.32 1.32 2 2 C4.58354218 2.16687448 4.58354218 2.16687448 7 2 C6.67 2.99 6.34 3.98 6 5 C3.69 4.67 1.38 4.34 -1 4 C-0.67 2.68 -0.34 1.36 0 0 Z " fill="#65676E" transform="translate(803,231)"/>
<path d="M0 0 C0.66 0.33 1.32 0.66 2 1 C2 2.32 2 3.64 2 5 C-0.31 5 -2.62 5 -5 5 C-5 4.34 -5 3.68 -5 3 C-3.35 3 -1.7 3 0 3 C0 2.01 0 1.02 0 0 Z " fill="#5C5C5F" transform="translate(776,226)"/>
<path d="M0 0 C1.65 0 3.3 0 5 0 C5.33 1.32 5.66 2.64 6 4 C5.05125 3.814375 4.1025 3.62875 3.125 3.4375 C0.10131207 2.71313368 0.10131207 2.71313368 -2 4 C-1.34 2.68 -0.68 1.36 0 0 Z " fill="#A9A6A8" transform="translate(776,413)"/>
<path d="M0 0 C1.65 0 3.3 0 5 0 C5.33 1.32 5.66 2.64 6 4 C5.05125 3.814375 4.1025 3.62875 3.125 3.4375 C0.10131207 2.71313368 0.10131207 2.71313368 -2 4 C-1.34 2.68 -0.68 1.36 0 0 Z " fill="#A9A6A8" transform="translate(776,336)"/>
<path d="M0 0 C0.78375 0.04125 1.5675 0.0825 2.375 0.125 C2.375 0.785 2.375 1.445 2.375 2.125 C1.75625 2.2075 1.1375 2.29 0.5 2.375 C-1.80937567 2.93758459 -1.80937567 2.93758459 -2.875 5.1875 C-3.1225 5.826875 -3.37 6.46625 -3.625 7.125 C-4.25 4.75 -4.25 4.75 -4.625 2.125 C-2.625 0.125 -2.625 0.125 0 0 Z " fill="#606B79" transform="translate(999.625,254.875)"/>
<path d="M0 0 C0.78375 0.04125 1.5675 0.0825 2.375 0.125 C2.375 0.785 2.375 1.445 2.375 2.125 C1.75625 2.2075 1.1375 2.29 0.5 2.375 C-1.80937567 2.93758459 -1.80937567 2.93758459 -2.875 5.1875 C-3.1225 5.826875 -3.37 6.46625 -3.625 7.125 C-4.25 4.75 -4.25 4.75 -4.625 2.125 C-2.625 0.125 -2.625 0.125 0 0 Z " fill="#606B79" transform="translate(933.625,254.875)"/>
<path d="M0 0 C0.78375 0.04125 1.5675 0.0825 2.375 0.125 C2.375 0.785 2.375 1.445 2.375 2.125 C1.75625 2.2075 1.1375 2.29 0.5 2.375 C-1.80937567 2.93758459 -1.80937567 2.93758459 -2.875 5.1875 C-3.1225 5.826875 -3.37 6.46625 -3.625 7.125 C-4.25 4.75 -4.25 4.75 -4.625 2.125 C-2.625 0.125 -2.625 0.125 0 0 Z " fill="#606B79" transform="translate(1010.625,224.875)"/>
<path d="M0 0 C1.65 0 3.3 0 5 0 C4.01 1.485 4.01 1.485 3 3 C2.61500109 4.65549531 2.27206865 6.3222433 2 8 C0.23537317 4.91190305 0 3.76687864 0 0 Z " fill="#67798F" transform="translate(751,225)"/>
<path d="M0 0 C2.0625 0.4375 2.0625 0.4375 4 1 C4 3.64 4 6.28 4 9 C3.67 9 3.34 9 3 9 C2.566875 7.576875 2.566875 7.576875 2.125 6.125 C1.23174891 2.94788422 1.23174891 2.94788422 -1 1 C-0.67 0.67 -0.34 0.34 0 0 Z " fill="#5B5D67" transform="translate(756,225)"/>
</svg>
